<svg width="149" height="32" viewBox="0 0 149 32" fill="none" xmlns="http://www.w3.org/2000/svg">
<path d="M144 0H31V32H144C146.761 32 149 29.7614 149 27V5C149 2.23858 146.761 0 144 0Z" fill="white"/>
<path d="M31 0H5C2.23858 0 0 2.23858 0 5V27C0 29.7614 2.23858 32 5 32H31V0Z" fill="#035BDA"/>
<path d="M5 1H144V-1H5V1ZM148 5V27H150V5H148ZM144 31H5V33H144V31ZM1 27V5H-1V27H1ZM5 31C2.79086 31 1 29.2091 1 27H-1C-1 30.3137 1.68629 33 5 33V31ZM148 27C148 29.2091 146.209 31 144 31V33C147.314 33 150 30.3137 150 27H148ZM144 1C146.209 1 148 2.79086 148 5H150C150 1.68629 147.314 -1 144 -1V1ZM5 -1C1.68629 -1 -1 1.68629 -1 5H1C1 2.79086 2.79086 1 5 1V-1Z" fill="black"/>
<path d="M7.70312 26.2087H11.1578V22.7587H7.70312V26.2087ZM4.81562 19.8712V22.7587H7.70312V19.8712H4.81562ZM26.6687 11.9166C25.5906 8.43843 22.8062 5.66811 19.3281 4.57593C11.3547 2.08686 4 8.01655 4 15.6197H8.49062C8.49062 10.8478 13.225 7.15874 18.2453 8.97749C20.1062 9.6478 21.5969 11.1384 22.2672 12.9947C24.1 18.0103 20.4062 22.7353 15.6391 22.7447V22.7587H15.625V27.2494C23.2469 27.2494 29.1625 19.8994 26.6687 11.9166V11.9166ZM15.6391 22.7447V18.2775H11.1578V22.7587H15.625V22.7447H15.6391Z" fill="white"/>
<path d="M39.0074 11.5H43.7774C44.9174 11.5 45.9224 11.72 46.7924 12.16C47.6724 12.59 48.3524 13.2 48.8324 13.99C49.3224 14.78 49.5674 15.7 49.5674 16.75C49.5674 17.8 49.3224 18.72 48.8324 19.51C48.3524 20.3 47.6724 20.915 46.7924 21.355C45.9224 21.785 44.9174 22 43.7774 22H39.0074V11.5ZM43.6574 20.005C44.7074 20.005 45.5424 19.715 46.1624 19.135C46.7924 18.545 47.1074 17.75 47.1074 16.75C47.1074 15.75 46.7924 14.96 46.1624 14.38C45.5424 13.79 44.7074 13.495 43.6574 13.495H41.4374V20.005H43.6574ZM51.415 13.93H53.755V22H51.415V13.93ZM52.585 12.805C52.155 12.805 51.805 12.68 51.535 12.43C51.265 12.18 51.13 11.87 51.13 11.5C51.13 11.13 51.265 10.82 51.535 10.57C51.805 10.32 52.155 10.195 52.585 10.195C53.015 10.195 53.365 10.315 53.635 10.555C53.905 10.795 54.04 11.095 54.04 11.455C54.04 11.845 53.905 12.17 53.635 12.43C53.365 12.68 53.015 12.805 52.585 12.805ZM64.4317 13.93V20.65C64.4317 22.13 64.0467 23.23 63.2767 23.95C62.5067 24.67 61.3817 25.03 59.9017 25.03C59.1217 25.03 58.3817 24.935 57.6817 24.745C56.9817 24.555 56.4017 24.28 55.9417 23.92L56.8717 22.24C57.2117 22.52 57.6417 22.74 58.1617 22.9C58.6817 23.07 59.2017 23.155 59.7217 23.155C60.5317 23.155 61.1267 22.97 61.5067 22.6C61.8967 22.24 62.0917 21.69 62.0917 20.95V20.605C61.4817 21.275 60.6317 21.61 59.5417 21.61C58.8017 21.61 58.1217 21.45 57.5017 21.13C56.8917 20.8 56.4067 20.34 56.0467 19.75C55.6867 19.16 55.5067 18.48 55.5067 17.71C55.5067 16.94 55.6867 16.26 56.0467 15.67C56.4067 15.08 56.8917 14.625 57.5017 14.305C58.1217 13.975 58.8017 13.81 59.5417 13.81C60.7117 13.81 61.6017 14.195 62.2117 14.965V13.93H64.4317ZM60.0067 19.69C60.6267 19.69 61.1317 19.51 61.5217 19.15C61.9217 18.78 62.1217 18.3 62.1217 17.71C62.1217 17.12 61.9217 16.645 61.5217 16.285C61.1317 15.915 60.6267 15.73 60.0067 15.73C59.3867 15.73 58.8767 15.915 58.4767 16.285C58.0767 16.645 57.8767 17.12 57.8767 17.71C57.8767 18.3 58.0767 18.78 58.4767 19.15C58.8767 19.51 59.3867 19.69 60.0067 19.69ZM66.7897 13.93H69.1297V22H66.7897V13.93ZM67.9597 12.805C67.5297 12.805 67.1797 12.68 66.9097 12.43C66.6397 12.18 66.5047 11.87 66.5047 11.5C66.5047 11.13 66.6397 10.82 66.9097 10.57C67.1797 10.32 67.5297 10.195 67.9597 10.195C68.3897 10.195 68.7397 10.315 69.0097 10.555C69.2797 10.795 69.4147 11.095 69.4147 11.455C69.4147 11.845 69.2797 12.17 69.0097 12.43C68.7397 12.68 68.3897 12.805 67.9597 12.805ZM76.6864 21.61C76.4564 21.78 76.1714 21.91 75.8314 22C75.5014 22.08 75.1514 22.12 74.7814 22.12C73.8214 22.12 73.0764 21.875 72.5464 21.385C72.0264 20.895 71.7664 20.175 71.7664 19.225V15.91H70.5214V14.11H71.7664V12.145H74.1064V14.11H76.1164V15.91H74.1064V19.195C74.1064 19.535 74.1914 19.8 74.3614 19.99C74.5414 20.17 74.7914 20.26 75.1114 20.26C75.4814 20.26 75.7964 20.16 76.0564 19.96L76.6864 21.61ZM81.4349 13.81C82.6849 13.81 83.6449 14.11 84.3149 14.71C84.9849 15.3 85.3199 16.195 85.3199 17.395V22H83.1299V20.995C82.6899 21.745 81.8699 22.12 80.6699 22.12C80.0499 22.12 79.5099 22.015 79.0499 21.805C78.5999 21.595 78.2549 21.305 78.0149 20.935C77.7749 20.565 77.6549 20.145 77.6549 19.675C77.6549 18.925 77.9349 18.335 78.4949 17.905C79.0649 17.475 79.9399 17.26 81.1199 17.26H82.9799C82.9799 16.75 82.8249 16.36 82.5149 16.09C82.2049 15.81 81.7399 15.67 81.1199 15.67C80.6899 15.67 80.2649 15.74 79.8449 15.88C79.4349 16.01 79.0849 16.19 78.7949 16.42L77.9549 14.785C78.3949 14.475 78.9199 14.235 79.5299 14.065C80.1499 13.895 80.7849 13.81 81.4349 13.81ZM81.2549 20.545C81.6549 20.545 82.0099 20.455 82.3199 20.275C82.6299 20.085 82.8499 19.81 82.9799 19.45V18.625H81.3749C80.4149 18.625 79.9349 18.94 79.9349 19.57C79.9349 19.87 80.0499 20.11 80.2799 20.29C80.5199 20.46 80.8449 20.545 81.2549 20.545ZM87.6178 10.87H89.9578V22H87.6178V10.87ZM97.5595 22.18C96.4695 22.18 95.4845 21.945 94.6045 21.475C93.7345 21.005 93.0495 20.36 92.5495 19.54C92.0595 18.71 91.8145 17.78 91.8145 16.75C91.8145 15.72 92.0595 14.795 92.5495 13.975C93.0495 13.145 93.7345 12.495 94.6045 12.025C95.4845 11.555 96.4695 11.32 97.5595 11.32C98.6495 11.32 99.6295 11.555 100.499 12.025C101.369 12.495 102.054 13.145 102.554 13.975C103.054 14.795 103.304 15.72 103.304 16.75C103.304 17.78 103.054 18.71 102.554 19.54C102.054 20.36 101.369 21.005 100.499 21.475C99.6295 21.945 98.6495 22.18 97.5595 22.18ZM97.5595 20.11C98.1795 20.11 98.7395 19.97 99.2395 19.69C99.7395 19.4 100.129 19 100.409 18.49C100.699 17.98 100.844 17.4 100.844 16.75C100.844 16.1 100.699 15.52 100.409 15.01C100.129 14.5 99.7395 14.105 99.2395 13.825C98.7395 13.535 98.1795 13.39 97.5595 13.39C96.9395 13.39 96.3795 13.535 95.8795 13.825C95.3795 14.105 94.9845 14.5 94.6945 15.01C94.4145 15.52 94.2745 16.1 94.2745 16.75C94.2745 17.4 94.4145 17.98 94.6945 18.49C94.9845 19 95.3795 19.4 95.8795 19.69C96.3795 19.97 96.9395 20.11 97.5595 20.11ZM109.046 22.12C108.186 22.12 107.411 21.945 106.721 21.595C106.041 21.235 105.506 20.74 105.116 20.11C104.736 19.48 104.546 18.765 104.546 17.965C104.546 17.165 104.736 16.45 105.116 15.82C105.506 15.19 106.041 14.7 106.721 14.35C107.411 13.99 108.186 13.81 109.046 13.81C109.896 13.81 110.636 13.99 111.266 14.35C111.906 14.7 112.371 15.205 112.661 15.865L110.846 16.84C110.426 16.1 109.821 15.73 109.031 15.73C108.421 15.73 107.916 15.93 107.516 16.33C107.116 16.73 106.916 17.275 106.916 17.965C106.916 18.655 107.116 19.2 107.516 19.6C107.916 20 108.421 20.2 109.031 20.2C109.831 20.2 110.436 19.83 110.846 19.09L112.661 20.08C112.371 20.72 111.906 21.22 111.266 21.58C110.636 21.94 109.896 22.12 109.046 22.12ZM121.99 17.995C121.99 18.025 121.975 18.235 121.945 18.625H115.84C115.95 19.125 116.21 19.52 116.62 19.81C117.03 20.1 117.54 20.245 118.15 20.245C118.57 20.245 118.94 20.185 119.26 20.065C119.59 19.935 119.895 19.735 120.175 19.465L121.42 20.815C120.66 21.685 119.55 22.12 118.09 22.12C117.18 22.12 116.375 21.945 115.675 21.595C114.975 21.235 114.435 20.74 114.055 20.11C113.675 19.48 113.485 18.765 113.485 17.965C113.485 17.175 113.67 16.465 114.04 15.835C114.42 15.195 114.935 14.7 115.585 14.35C116.245 13.99 116.98 13.81 117.79 13.81C118.58 13.81 119.295 13.98 119.935 14.32C120.575 14.66 121.075 15.15 121.435 15.79C121.805 16.42 121.99 17.155 121.99 17.995ZM117.805 15.58C117.275 15.58 116.83 15.73 116.47 16.03C116.11 16.33 115.89 16.74 115.81 17.26H119.785C119.705 16.75 119.485 16.345 119.125 16.045C118.765 15.735 118.325 15.58 117.805 15.58ZM126.764 13.81C128.014 13.81 128.974 14.11 129.644 14.71C130.314 15.3 130.649 16.195 130.649 17.395V22H128.459V20.995C128.019 21.745 127.199 22.12 125.999 22.12C125.379 22.12 124.839 22.015 124.379 21.805C123.929 21.595 123.584 21.305 123.344 20.935C123.104 20.565 122.984 20.145 122.984 19.675C122.984 18.925 123.264 18.335 123.824 17.905C124.394 17.475 125.269 17.26 126.449 17.26H128.309C128.309 16.75 128.154 16.36 127.844 16.09C127.534 15.81 127.069 15.67 126.449 15.67C126.019 15.67 125.594 15.74 125.174 15.88C124.764 16.01 124.414 16.19 124.124 16.42L123.284 14.785C123.724 14.475 124.249 14.235 124.859 14.065C125.479 13.895 126.114 13.81 126.764 13.81ZM126.584 20.545C126.984 20.545 127.339 20.455 127.649 20.275C127.959 20.085 128.179 19.81 128.309 19.45V18.625H126.704C125.744 18.625 125.264 18.94 125.264 19.57C125.264 19.87 125.379 20.11 125.609 20.29C125.849 20.46 126.174 20.545 126.584 20.545ZM137.851 13.81C138.851 13.81 139.656 14.11 140.266 14.71C140.886 15.31 141.196 16.2 141.196 17.38V22H138.856V17.74C138.856 17.1 138.716 16.625 138.436 16.315C138.156 15.995 137.751 15.835 137.221 15.835C136.631 15.835 136.161 16.02 135.811 16.39C135.461 16.75 135.286 17.29 135.286 18.01V22H132.946V13.93H135.181V14.875C135.491 14.535 135.876 14.275 136.336 14.095C136.796 13.905 137.301 13.81 137.851 13.81Z" fill="black"/>
</svg>
