<svg width="221" height="32" viewBox="0 0 221 32" fill="none" xmlns="http://www.w3.org/2000/svg">
<path d="M216 0H31V32H216C218.761 32 221 29.7614 221 27V5C221 2.23858 218.761 0 216 0Z" fill="white"/>
<path d="M5 0.5H30.5V31.5H5C2.51472 31.5 0.5 29.4853 0.5 27V5C0.5 2.51472 2.51472 0.5 5 0.5Z" fill="white" stroke="black"/>
<path d="M5 1H216V-1H5V1ZM220 5V27H222V5H220ZM216 31H5V33H216V31ZM1 27V5H-1V27H1ZM5 31C2.79086 31 1 29.2091 1 27H-1C-1 30.3137 1.68629 33 5 33V31ZM220 27C220 29.2091 218.209 31 216 31V33C219.314 33 222 30.3137 222 27H220ZM216 1C218.209 1 220 2.79086 220 5H222C222 1.68629 219.314 -1 216 -1V1ZM5 -1C1.68629 -1 -1 1.68629 -1 5H1C1 2.79086 2.79086 1 5 1V-1Z" fill="black"/>
<path d="M19.2961 12.1048L21.2953 10.1055L21.4286 9.26366C17.7853 5.95085 11.9939 6.32649 8.70967 10.0475C7.7974 11.0809 7.12061 12.3694 6.7597 13.6999L7.47576 13.599L11.4743 12.9396L11.783 12.6239C13.5616 10.6705 16.5689 10.4077 18.6226 12.0698L19.2961 12.1048Z" fill="#EA4335"/>
<path d="M24.1434 13.6411C23.6839 11.9488 22.7404 10.4275 21.4286 9.26376L18.6226 12.0698C19.8075 13.0379 20.4824 14.4964 20.4535 16.0262V16.5243C21.8327 16.5243 22.9509 17.6424 22.9509 19.0216C22.9509 20.4009 21.8327 21.491 20.4535 21.491H15.4518L14.9607 22.0241V25.0195L15.4518 25.4895H20.4535C24.041 25.5174 26.9719 22.6599 26.9998 19.0725C27.0167 16.898 25.9446 14.8594 24.1434 13.6411Z" fill="#4285F4"/>
<path d="M10.4571 25.4895H15.4518V21.4909H10.4571C10.1012 21.4908 9.75659 21.4143 9.43297 21.2664L8.72437 21.4839L6.71107 23.4832L6.53569 24.1636C7.66476 25.0162 9.04233 25.4956 10.4571 25.4895Z" fill="#34A853"/>
<path d="M10.4571 12.5187C6.86955 12.54 3.97874 15.4657 4.00012 19.0532C4.01207 21.0565 4.9477 22.9423 6.53569 24.1636L9.43297 21.2664C8.17597 20.6985 7.61741 19.2192 8.18531 17.9623C8.75312 16.7054 10.2325 16.1468 11.4893 16.7146C12.0432 16.9648 12.4868 17.4085 12.737 17.9623L15.6343 15.0651C14.4015 13.4536 12.486 12.5114 10.4571 12.5187Z" fill="#FBBC05"/>
<path d="M42.9575 16.585H45.1775V20.845C44.6075 21.275 43.9475 21.605 43.1975 21.835C42.4475 22.065 41.6925 22.18 40.9325 22.18C39.8425 22.18 38.8625 21.95 37.9925 21.49C37.1225 21.02 36.4375 20.375 35.9375 19.555C35.4475 18.725 35.2025 17.79 35.2025 16.75C35.2025 15.71 35.4475 14.78 35.9375 13.96C36.4375 13.13 37.1275 12.485 38.0075 12.025C38.8875 11.555 39.8775 11.32 40.9775 11.32C41.8975 11.32 42.7325 11.475 43.4825 11.785C44.2325 12.095 44.8625 12.545 45.3725 13.135L43.8125 14.575C43.0625 13.785 42.1575 13.39 41.0975 13.39C40.4275 13.39 39.8325 13.53 39.3125 13.81C38.7925 14.09 38.3875 14.485 38.0975 14.995C37.8075 15.505 37.6625 16.09 37.6625 16.75C37.6625 17.4 37.8075 17.98 38.0975 18.49C38.3875 19 38.7875 19.4 39.2975 19.69C39.8175 19.97 40.4075 20.11 41.0675 20.11C41.7675 20.11 42.3975 19.96 42.9575 19.66V16.585ZM51.2897 22.12C50.4397 22.12 49.6747 21.945 48.9947 21.595C48.3247 21.235 47.7997 20.74 47.4197 20.11C47.0397 19.48 46.8497 18.765 46.8497 17.965C46.8497 17.165 47.0397 16.45 47.4197 15.82C47.7997 15.19 48.3247 14.7 48.9947 14.35C49.6747 13.99 50.4397 13.81 51.2897 13.81C52.1397 13.81 52.8997 13.99 53.5697 14.35C54.2397 14.7 54.7647 15.19 55.1447 15.82C55.5247 16.45 55.7147 17.165 55.7147 17.965C55.7147 18.765 55.5247 19.48 55.1447 20.11C54.7647 20.74 54.2397 21.235 53.5697 21.595C52.8997 21.945 52.1397 22.12 51.2897 22.12ZM51.2897 20.2C51.8897 20.2 52.3797 20 52.7597 19.6C53.1497 19.19 53.3447 18.645 53.3447 17.965C53.3447 17.285 53.1497 16.745 52.7597 16.345C52.3797 15.935 51.8897 15.73 51.2897 15.73C50.6897 15.73 50.1947 15.935 49.8047 16.345C49.4147 16.745 49.2197 17.285 49.2197 17.965C49.2197 18.645 49.4147 19.19 49.8047 19.6C50.1947 20 50.6897 20.2 51.2897 20.2ZM61.2988 22.12C60.4488 22.12 59.6838 21.945 59.0038 21.595C58.3338 21.235 57.8088 20.74 57.4288 20.11C57.0488 19.48 56.8588 18.765 56.8588 17.965C56.8588 17.165 57.0488 16.45 57.4288 15.82C57.8088 15.19 58.3338 14.7 59.0038 14.35C59.6838 13.99 60.4488 13.81 61.2988 13.81C62.1488 13.81 62.9088 13.99 63.5788 14.35C64.2488 14.7 64.7738 15.19 65.1538 15.82C65.5338 16.45 65.7238 17.165 65.7238 17.965C65.7238 18.765 65.5338 19.48 65.1538 20.11C64.7738 20.74 64.2488 21.235 63.5788 21.595C62.9088 21.945 62.1488 22.12 61.2988 22.12ZM61.2988 20.2C61.8988 20.2 62.3888 20 62.7688 19.6C63.1588 19.19 63.3538 18.645 63.3538 17.965C63.3538 17.285 63.1588 16.745 62.7688 16.345C62.3888 15.935 61.8988 15.73 61.2988 15.73C60.6988 15.73 60.2038 15.935 59.8138 16.345C59.4238 16.745 59.2288 17.285 59.2288 17.965C59.2288 18.645 59.4238 19.19 59.8138 19.6C60.2038 20 60.6988 20.2 61.2988 20.2ZM75.7929 13.93V20.65C75.7929 22.13 75.4079 23.23 74.6379 23.95C73.8679 24.67 72.7429 25.03 71.2629 25.03C70.4829 25.03 69.7429 24.935 69.0429 24.745C68.3429 24.555 67.7629 24.28 67.3029 23.92L68.2329 22.24C68.5729 22.52 69.0029 22.74 69.5229 22.9C70.0429 23.07 70.5629 23.155 71.0829 23.155C71.8929 23.155 72.4879 22.97 72.8679 22.6C73.2579 22.24 73.4529 21.69 73.4529 20.95V20.605C72.8429 21.275 71.9929 21.61 70.9029 21.61C70.1629 21.61 69.4829 21.45 68.8629 21.13C68.2529 20.8 67.7679 20.34 67.4079 19.75C67.0479 19.16 66.8679 18.48 66.8679 17.71C66.8679 16.94 67.0479 16.26 67.4079 15.67C67.7679 15.08 68.2529 14.625 68.8629 14.305C69.4829 13.975 70.1629 13.81 70.9029 13.81C72.0729 13.81 72.9629 14.195 73.5729 14.965V13.93H75.7929ZM71.3679 19.69C71.9879 19.69 72.4929 19.51 72.8829 19.15C73.2829 18.78 73.4829 18.3 73.4829 17.71C73.4829 17.12 73.2829 16.645 72.8829 16.285C72.4929 15.915 71.9879 15.73 71.3679 15.73C70.7479 15.73 70.2379 15.915 69.8379 16.285C69.4379 16.645 69.2379 17.12 69.2379 17.71C69.2379 18.3 69.4379 18.78 69.8379 19.15C70.2379 19.51 70.7479 19.69 71.3679 19.69ZM78.1509 10.87H80.4909V22H78.1509V10.87ZM90.7476 17.995C90.7476 18.025 90.7326 18.235 90.7026 18.625H84.5976C84.7076 19.125 84.9676 19.52 85.3776 19.81C85.7876 20.1 86.2976 20.245 86.9076 20.245C87.3276 20.245 87.6976 20.185 88.0176 20.065C88.3476 19.935 88.6526 19.735 88.9326 19.465L90.1776 20.815C89.4176 21.685 88.3076 22.12 86.8476 22.12C85.9376 22.12 85.1326 21.945 84.4326 21.595C83.7326 21.235 83.1926 20.74 82.8126 20.11C82.4326 19.48 82.2426 18.765 82.2426 17.965C82.2426 17.175 82.4276 16.465 82.7976 15.835C83.1776 15.195 83.6926 14.7 84.3426 14.35C85.0026 13.99 85.7376 13.81 86.5476 13.81C87.3376 13.81 88.0526 13.98 88.6926 14.32C89.3326 14.66 89.8326 15.15 90.1926 15.79C90.5626 16.42 90.7476 17.155 90.7476 17.995ZM86.5626 15.58C86.0326 15.58 85.5876 15.73 85.2276 16.03C84.8676 16.33 84.6476 16.74 84.5676 17.26H88.5426C88.4626 16.75 88.2426 16.345 87.8826 16.045C87.5226 15.735 87.0826 15.58 86.5626 15.58ZM102.104 22.18C101.034 22.18 100.064 21.95 99.1935 21.49C98.3335 21.02 97.6535 20.375 97.1535 19.555C96.6635 18.725 96.4185 17.79 96.4185 16.75C96.4185 15.71 96.6635 14.78 97.1535 13.96C97.6535 13.13 98.3335 12.485 99.1935 12.025C100.064 11.555 101.039 11.32 102.119 11.32C103.029 11.32 103.849 11.48 104.579 11.8C105.319 12.12 105.939 12.58 106.439 13.18L104.879 14.62C104.169 13.8 103.289 13.39 102.239 13.39C101.589 13.39 101.009 13.535 100.499 13.825C99.9885 14.105 99.5885 14.5 99.2985 15.01C99.0185 15.52 98.8785 16.1 98.8785 16.75C98.8785 17.4 99.0185 17.98 99.2985 18.49C99.5885 19 99.9885 19.4 100.499 19.69C101.009 19.97 101.589 20.11 102.239 20.11C103.289 20.11 104.169 19.695 104.879 18.865L106.439 20.305C105.939 20.915 105.319 21.38 104.579 21.7C103.839 22.02 103.014 22.18 102.104 22.18ZM108.095 10.87H110.435V22H108.095V10.87ZM116.626 22.12C115.776 22.12 115.011 21.945 114.331 21.595C113.661 21.235 113.136 20.74 112.756 20.11C112.376 19.48 112.186 18.765 112.186 17.965C112.186 17.165 112.376 16.45 112.756 15.82C113.136 15.19 113.661 14.7 114.331 14.35C115.011 13.99 115.776 13.81 116.626 13.81C117.476 13.81 118.236 13.99 118.906 14.35C119.576 14.7 120.101 15.19 120.481 15.82C120.861 16.45 121.051 17.165 121.051 17.965C121.051 18.765 120.861 19.48 120.481 20.11C120.101 20.74 119.576 21.235 118.906 21.595C118.236 21.945 117.476 22.12 116.626 22.12ZM116.626 20.2C117.226 20.2 117.716 20 118.096 19.6C118.486 19.19 118.681 18.645 118.681 17.965C118.681 17.285 118.486 16.745 118.096 16.345C117.716 15.935 117.226 15.73 116.626 15.73C116.026 15.73 115.531 15.935 115.141 16.345C114.751 16.745 114.556 17.285 114.556 17.965C114.556 18.645 114.751 19.19 115.141 19.6C115.531 20 116.026 20.2 116.626 20.2ZM130.925 13.93V22H128.705V21.04C128.395 21.39 128.025 21.66 127.595 21.85C127.165 22.03 126.7 22.12 126.2 22.12C125.14 22.12 124.3 21.815 123.68 21.205C123.06 20.595 122.75 19.69 122.75 18.49V13.93H125.09V18.145C125.09 19.445 125.635 20.095 126.725 20.095C127.285 20.095 127.735 19.915 128.075 19.555C128.415 19.185 128.585 18.64 128.585 17.92V13.93H130.925ZM141.493 10.87V22H139.258V21.07C138.678 21.77 137.838 22.12 136.738 22.12C135.978 22.12 135.288 21.95 134.668 21.61C134.058 21.27 133.578 20.785 133.228 20.155C132.878 19.525 132.703 18.795 132.703 17.965C132.703 17.135 132.878 16.405 133.228 15.775C133.578 15.145 134.058 14.66 134.668 14.32C135.288 13.98 135.978 13.81 136.738 13.81C137.768 13.81 138.573 14.135 139.153 14.785V10.87H141.493ZM137.143 20.2C137.733 20.2 138.223 20 138.613 19.6C139.003 19.19 139.198 18.645 139.198 17.965C139.198 17.285 139.003 16.745 138.613 16.345C138.223 15.935 137.733 15.73 137.143 15.73C136.543 15.73 136.048 15.935 135.658 16.345C135.268 16.745 135.073 17.285 135.073 17.965C135.073 18.645 135.268 19.19 135.658 19.6C136.048 20 136.543 20.2 137.143 20.2ZM152.977 11.5C153.907 11.5 154.712 11.655 155.392 11.965C156.082 12.275 156.612 12.715 156.982 13.285C157.352 13.855 157.537 14.53 157.537 15.31C157.537 16.08 157.352 16.755 156.982 17.335C156.612 17.905 156.082 18.345 155.392 18.655C154.712 18.955 153.907 19.105 152.977 19.105H150.862V22H148.432V11.5H152.977ZM152.842 17.125C153.572 17.125 154.127 16.97 154.507 16.66C154.887 16.34 155.077 15.89 155.077 15.31C155.077 14.72 154.887 14.27 154.507 13.96C154.127 13.64 153.572 13.48 152.842 13.48H150.862V17.125H152.842ZM159.433 10.87H161.773V22H159.433V10.87ZM167.38 13.81C168.63 13.81 169.59 14.11 170.26 14.71C170.93 15.3 171.265 16.195 171.265 17.395V22H169.075V20.995C168.635 21.745 167.815 22.12 166.615 22.12C165.995 22.12 165.455 22.015 164.995 21.805C164.545 21.595 164.2 21.305 163.96 20.935C163.72 20.565 163.6 20.145 163.6 19.675C163.6 18.925 163.88 18.335 164.44 17.905C165.01 17.475 165.885 17.26 167.065 17.26H168.925C168.925 16.75 168.77 16.36 168.46 16.09C168.15 15.81 167.685 15.67 167.065 15.67C166.635 15.67 166.21 15.74 165.79 15.88C165.38 16.01 165.03 16.19 164.74 16.42L163.9 14.785C164.34 14.475 164.865 14.235 165.475 14.065C166.095 13.895 166.73 13.81 167.38 13.81ZM167.2 20.545C167.6 20.545 167.955 20.455 168.265 20.275C168.575 20.085 168.795 19.81 168.925 19.45V18.625H167.32C166.36 18.625 165.88 18.94 165.88 19.57C165.88 19.87 165.995 20.11 166.225 20.29C166.465 20.46 166.79 20.545 167.2 20.545ZM178.768 21.61C178.538 21.78 178.253 21.91 177.913 22C177.583 22.08 177.233 22.12 176.863 22.12C175.903 22.12 175.158 21.875 174.628 21.385C174.108 20.895 173.848 20.175 173.848 19.225V15.91H172.603V14.11H173.848V12.145H176.188V14.11H178.198V15.91H176.188V19.195C176.188 19.535 176.273 19.8 176.443 19.99C176.623 20.17 176.873 20.26 177.193 20.26C177.563 20.26 177.878 20.16 178.138 19.96L178.768 21.61ZM182.826 14.11H184.896V15.91H182.886V22H180.546V15.91H179.301V14.11H180.546V13.75C180.546 12.83 180.816 12.1 181.356 11.56C181.906 11.02 182.676 10.75 183.666 10.75C184.016 10.75 184.346 10.79 184.656 10.87C184.976 10.94 185.241 11.045 185.451 11.185L184.836 12.88C184.566 12.69 184.251 12.595 183.891 12.595C183.181 12.595 182.826 12.985 182.826 13.765V14.11ZM189.98 22.12C189.13 22.12 188.365 21.945 187.685 21.595C187.015 21.235 186.49 20.74 186.11 20.11C185.73 19.48 185.54 18.765 185.54 17.965C185.54 17.165 185.73 16.45 186.11 15.82C186.49 15.19 187.015 14.7 187.685 14.35C188.365 13.99 189.13 13.81 189.98 13.81C190.83 13.81 191.59 13.99 192.26 14.35C192.93 14.7 193.455 15.19 193.835 15.82C194.215 16.45 194.405 17.165 194.405 17.965C194.405 18.765 194.215 19.48 193.835 20.11C193.455 20.74 192.93 21.235 192.26 21.595C191.59 21.945 190.83 22.12 189.98 22.12ZM189.98 20.2C190.58 20.2 191.07 20 191.45 19.6C191.84 19.19 192.035 18.645 192.035 17.965C192.035 17.285 191.84 16.745 191.45 16.345C191.07 15.935 190.58 15.73 189.98 15.73C189.38 15.73 188.885 15.935 188.495 16.345C188.105 16.745 187.91 17.285 187.91 17.965C187.91 18.645 188.105 19.19 188.495 19.6C188.885 20 189.38 20.2 189.98 20.2ZM198.384 14.995C198.664 14.605 199.039 14.31 199.509 14.11C199.989 13.91 200.539 13.81 201.159 13.81V15.97C200.899 15.95 200.724 15.94 200.634 15.94C199.964 15.94 199.439 16.13 199.059 16.51C198.679 16.88 198.489 17.44 198.489 18.19V22H196.149V13.93H198.384V14.995ZM213.065 13.81C214.075 13.81 214.875 14.11 215.465 14.71C216.065 15.3 216.365 16.19 216.365 17.38V22H214.025V17.74C214.025 17.1 213.89 16.625 213.62 16.315C213.36 15.995 212.985 15.835 212.495 15.835C211.945 15.835 211.51 16.015 211.19 16.375C210.87 16.725 210.71 17.25 210.71 17.95V22H208.37V17.74C208.37 16.47 207.86 15.835 206.84 15.835C206.3 15.835 205.87 16.015 205.55 16.375C205.23 16.725 205.07 17.25 205.07 17.95V22H202.73V13.93H204.965V14.86C205.265 14.52 205.63 14.26 206.06 14.08C206.5 13.9 206.98 13.81 207.5 13.81C208.07 13.81 208.585 13.925 209.045 14.155C209.505 14.375 209.875 14.7 210.155 15.13C210.485 14.71 210.9 14.385 211.4 14.155C211.91 13.925 212.465 13.81 213.065 13.81Z" fill="black"/>
</svg>
