<svg width="130" height="32" viewBox="0 0 130 32" fill="none" xmlns="http://www.w3.org/2000/svg">
<path d="M125 0H31V32H125C127.761 32 130 29.7614 130 27V5C130 2.23858 127.761 0 125 0Z" fill="white"/>
<path d="M31 0H5C2.23858 0 0 2.23858 0 5V27C0 29.7614 2.23858 32 5 32H31V0Z" fill="#6762A6"/>
<path d="M62.031 11.5V22H59.601V17.695H54.831V22H52.401V11.5H54.831V15.64H59.601V11.5H62.031ZM72.4352 17.995C72.4352 18.025 72.4202 18.235 72.3902 18.625H66.2852C66.3952 19.125 66.6552 19.52 67.0652 19.81C67.4752 20.1 67.9852 20.245 68.5952 20.245C69.0152 20.245 69.3852 20.185 69.7052 20.065C70.0352 19.935 70.3402 19.735 70.6202 19.465L71.8652 20.815C71.1052 21.685 69.9952 22.12 68.5352 22.12C67.6252 22.12 66.8202 21.945 66.1202 21.595C65.4202 21.235 64.8802 20.74 64.5002 20.11C64.1202 19.48 63.9302 18.765 63.9302 17.965C63.9302 17.175 64.1152 16.465 64.4852 15.835C64.8652 15.195 65.3802 14.7 66.0302 14.35C66.6902 13.99 67.4252 13.81 68.2352 13.81C69.0252 13.81 69.7402 13.98 70.3802 14.32C71.0202 14.66 71.5202 15.15 71.8802 15.79C72.2502 16.42 72.4352 17.155 72.4352 17.995ZM68.2502 15.58C67.7202 15.58 67.2752 15.73 66.9152 16.03C66.5552 16.33 66.3352 16.74 66.2552 17.26H70.2302C70.1502 16.75 69.9302 16.345 69.5702 16.045C69.2102 15.735 68.7702 15.58 68.2502 15.58ZM76.4081 14.995C76.6881 14.605 77.0631 14.31 77.5331 14.11C78.0131 13.91 78.5631 13.81 79.1831 13.81V15.97C78.9231 15.95 78.7481 15.94 78.6581 15.94C77.9881 15.94 77.4631 16.13 77.0831 16.51C76.7031 16.88 76.5131 17.44 76.5131 18.19V22H74.1731V13.93H76.4081V14.995ZM84.5212 22.12C83.6712 22.12 82.9062 21.945 82.2262 21.595C81.5562 21.235 81.0312 20.74 80.6512 20.11C80.2712 19.48 80.0812 18.765 80.0812 17.965C80.0812 17.165 80.2712 16.45 80.6512 15.82C81.0312 15.19 81.5562 14.7 82.2262 14.35C82.9062 13.99 83.6712 13.81 84.5212 13.81C85.3712 13.81 86.1312 13.99 86.8012 14.35C87.4712 14.7 87.9962 15.19 88.3762 15.82C88.7562 16.45 88.9462 17.165 88.9462 17.965C88.9462 18.765 88.7562 19.48 88.3762 20.11C87.9962 20.74 87.4712 21.235 86.8012 21.595C86.1312 21.945 85.3712 22.12 84.5212 22.12ZM84.5212 20.2C85.1212 20.2 85.6112 20 85.9912 19.6C86.3812 19.19 86.5762 18.645 86.5762 17.965C86.5762 17.285 86.3812 16.745 85.9912 16.345C85.6112 15.935 85.1212 15.73 84.5212 15.73C83.9212 15.73 83.4262 15.935 83.0362 16.345C82.6462 16.745 82.4512 17.285 82.4512 17.965C82.4512 18.645 82.6462 19.19 83.0362 19.6C83.4262 20 83.9212 20.2 84.5212 20.2ZM94.1553 18.835L93.0303 19.945V22H90.6903V10.87H93.0303V17.17L96.4503 13.93H99.2403L95.8803 17.35L99.5403 22H96.7053L94.1553 18.835ZM108.756 13.93V22H106.536V21.04C106.226 21.39 105.856 21.66 105.426 21.85C104.996 22.03 104.531 22.12 104.031 22.12C102.971 22.12 102.131 21.815 101.511 21.205C100.891 20.595 100.581 19.69 100.581 18.49V13.93H102.921V18.145C102.921 19.445 103.466 20.095 104.556 20.095C105.116 20.095 105.566 19.915 105.906 19.555C106.246 19.185 106.416 18.64 106.416 17.92V13.93H108.756Z" fill="black"/>
<path d="M5 1H125V-1H5V1ZM129 5V27H131V5H129ZM125 31H5V33H125V31ZM1 27V5H-1V27H1ZM5 31C2.79086 31 1 29.2091 1 27H-1C-1 30.3137 1.6863 33 5 33V31ZM129 27C129 29.2091 127.209 31 125 31V33C128.314 33 131 30.3137 131 27H129ZM125 1C127.209 1 129 2.79086 129 5H131C131 1.68629 128.314 -1 125 -1V1ZM5 -1C1.68629 -1 -1 1.68629 -1 5H1C1 2.79086 2.79086 1 5 1V-1Z" fill="black"/>
<g clip-path="url(#clip0)">
<path fill-rule="evenodd" clip-rule="evenodd" d="M24.44 4C25.6328 4 26.6 4.9672 26.6 6.16V25.84C26.6 27.0328 25.6328 28 24.44 28H7.16C5.9672 28 5 27.0328 5 25.84V6.16C5 4.9672 5.9672 4 7.16 4H24.44ZM24.44 5.2H7.16C6.6308 5.2 6.2 5.6305 6.2 6.16V25.84C6.2 26.3692 6.6308 26.8 7.16 26.8H24.44C24.9695 26.8 25.4 26.3692 25.4 25.84V6.16C25.4 5.6305 24.9695 5.2 24.44 5.2ZM10.7 19.6L13.4 22L10.7 24.4V19.6ZM13.1 7.6V14.4133C14.2982 14.0233 15.9731 13.6 17.6 13.6C19.0835 13.6 19.9715 14.1832 20.4551 14.6725C21.4444 15.673 21.4986 16.9361 21.5001 17.1748L21.5001 24.4H19.1V17.233C19.0883 16.6729 18.8186 16 17.6 16C15.2691 16 12.6671 17.1199 12.415 17.2309L12.3953 17.2396L10.7 18.0076V7.6H13.1ZM21.5 7.6C21.338 8.9632 20.7854 10.27 19.7 11.5H17.3C18.2432 10.2625 18.8354 8.9602 19.1 7.6H21.5Z" fill="white"/>
</g>
<defs>
<clipPath id="clip0">
<rect width="21.6" height="24" fill="white" transform="translate(5 4)"/>
</clipPath>
</defs>
</svg>
