<svg width="88" height="32" viewBox="0 0 88 32" fill="none" xmlns="http://www.w3.org/2000/svg">
<g clip-path="url(#clip0)">
<path d="M83 0H31V32H83C85.7614 32 88 29.7614 88 27V5C88 2.23858 85.7614 0 83 0Z" fill="white"/>
<path d="M31 0H5C2.23858 0 0 2.23858 0 5V27C0 29.7614 2.23858 32 5 32H31V0Z" fill="#CB3837"/>
<path d="M47.075 13.81C48.075 13.81 48.88 14.11 49.49 14.71C50.11 15.31 50.42 16.2 50.42 17.38V22H48.08V17.74C48.08 17.1 47.94 16.625 47.66 16.315C47.38 15.995 46.975 15.835 46.445 15.835C45.855 15.835 45.385 16.02 45.035 16.39C44.685 16.75 44.51 17.29 44.51 18.01V22H42.17V13.93H44.405V14.875C44.715 14.535 45.1 14.275 45.56 14.095C46.02 13.905 46.525 13.81 47.075 13.81ZM57.4911 13.81C58.2411 13.81 58.9211 13.985 59.5311 14.335C60.1511 14.675 60.6361 15.16 60.9861 15.79C61.3361 16.41 61.5111 17.135 61.5111 17.965C61.5111 18.795 61.3361 19.525 60.9861 20.155C60.6361 20.775 60.1511 21.26 59.5311 21.61C58.9211 21.95 58.2411 22.12 57.4911 22.12C56.4611 22.12 55.6511 21.795 55.0611 21.145V24.91H52.7211V13.93H54.9561V14.86C55.5361 14.16 56.3811 13.81 57.4911 13.81ZM57.0861 20.2C57.6861 20.2 58.1761 20 58.5561 19.6C58.9461 19.19 59.1411 18.645 59.1411 17.965C59.1411 17.285 58.9461 16.745 58.5561 16.345C58.1761 15.935 57.6861 15.73 57.0861 15.73C56.4861 15.73 55.9911 15.935 55.6011 16.345C55.2211 16.745 55.0311 17.285 55.0311 17.965C55.0311 18.645 55.2211 19.19 55.6011 19.6C55.9911 20 56.4861 20.2 57.0861 20.2ZM73.5926 13.81C74.6026 13.81 75.4026 14.11 75.9926 14.71C76.5926 15.3 76.8926 16.19 76.8926 17.38V22H74.5526V17.74C74.5526 17.1 74.4176 16.625 74.1476 16.315C73.8876 15.995 73.5126 15.835 73.0226 15.835C72.4726 15.835 72.0376 16.015 71.7176 16.375C71.3976 16.725 71.2376 17.25 71.2376 17.95V22H68.8976V17.74C68.8976 16.47 68.3876 15.835 67.3676 15.835C66.8276 15.835 66.3976 16.015 66.0776 16.375C65.7576 16.725 65.5976 17.25 65.5976 17.95V22H63.2576V13.93H65.4926V14.86C65.7926 14.52 66.1576 14.26 66.5876 14.08C67.0276 13.9 67.5076 13.81 68.0276 13.81C68.5976 13.81 69.1126 13.925 69.5726 14.155C70.0326 14.375 70.4026 14.7 70.6826 15.13C71.0126 14.71 71.4276 14.385 71.9276 14.155C72.4376 13.925 72.9926 13.81 73.5926 13.81Z" fill="black"/>
</g>
<path d="M5 1H83V-1H5V1ZM87 5V27H89V5H87ZM83 31H5V33H83V31ZM1 27V5H-1V27H1ZM5 31C2.79086 31 1 29.2091 1 27H-1C-1 30.3137 1.68629 33 5 33V31ZM87 27C87 29.2091 85.2091 31 83 31V33C86.3137 33 89 30.3137 89 27H87ZM83 1C85.2091 1 87 2.79086 87 5H89C89 1.68629 86.3137 -1 83 -1V1ZM5 -1C1.68629 -1 -1 1.68629 -1 5H1C1 2.79086 2.79086 1 5 1V-1Z" fill="black"/>
<path d="M16 17.3333H14.6667V14.6667H16V17.3333ZM28 12V20H16V21.3333H10.6667V20H4V12H28ZM10.6667 13.3333H5.33333V18.6667H8V14.6667H9.33333V18.6667H10.6667V13.3333ZM17.3333 13.3333H12V20H14.6667V18.6667H17.3333V13.3333ZM26.6667 13.3333H18.6667V18.6667H21.3333V14.6667H22.6667V18.6667H24V14.6667H25.3333V18.6667H26.6667V13.3333Z" fill="white"/>
<defs>
<clipPath id="clip0">
<path d="M0 5C0 2.23858 2.23858 0 5 0H83C85.7614 0 88 2.23858 88 5V27C88 29.7614 85.7614 32 83 32H5C2.23858 32 0 29.7614 0 27V5Z" fill="white"/>
</clipPath>
</defs>
</svg>
