<svg width="130" height="32" viewBox="0 0 130 32" fill="none" xmlns="http://www.w3.org/2000/svg">
<path d="M125 0H31V32H125C127.761 32 130 29.7614 130 27V5C130 2.23858 127.761 0 125 0Z" fill="white"/>
<path d="M5 0.5H30.5V31.5H5C2.51472 31.5 0.5 29.4853 0.5 27V5C0.5 2.51472 2.51472 0.5 5 0.5Z" fill="white" stroke="black"/>
<path d="M56.6332 19.75H51.7582L50.8282 22H48.3382L53.0182 11.5H55.4182L60.1132 22H57.5632L56.6332 19.75ZM55.8682 17.905L54.2032 13.885L52.5382 17.905H55.8682ZM66.1226 13.81C67.1226 13.81 67.9276 14.11 68.5376 14.71C69.1576 15.31 69.4676 16.2 69.4676 17.38V22H67.1276V17.74C67.1276 17.1 66.9876 16.625 66.7076 16.315C66.4276 15.995 66.0226 15.835 65.4926 15.835C64.9026 15.835 64.4326 16.02 64.0826 16.39C63.7326 16.75 63.5576 17.29 63.5576 18.01V22H61.2176V13.93H63.4526V14.875C63.7626 14.535 64.1476 14.275 64.6076 14.095C65.0676 13.905 65.5726 13.81 66.1226 13.81ZM80.1815 13.93V20.65C80.1815 22.13 79.7965 23.23 79.0265 23.95C78.2565 24.67 77.1315 25.03 75.6515 25.03C74.8715 25.03 74.1315 24.935 73.4315 24.745C72.7315 24.555 72.1515 24.28 71.6915 23.92L72.6215 22.24C72.9615 22.52 73.3915 22.74 73.9115 22.9C74.4315 23.07 74.9515 23.155 75.4715 23.155C76.2815 23.155 76.8765 22.97 77.2565 22.6C77.6465 22.24 77.8415 21.69 77.8415 20.95V20.605C77.2315 21.275 76.3815 21.61 75.2915 21.61C74.5515 21.61 73.8715 21.45 73.2515 21.13C72.6415 20.8 72.1565 20.34 71.7965 19.75C71.4365 19.16 71.2565 18.48 71.2565 17.71C71.2565 16.94 71.4365 16.26 71.7965 15.67C72.1565 15.08 72.6415 14.625 73.2515 14.305C73.8715 13.975 74.5515 13.81 75.2915 13.81C76.4615 13.81 77.3515 14.195 77.9615 14.965V13.93H80.1815ZM75.7565 19.69C76.3765 19.69 76.8815 19.51 77.2715 19.15C77.6715 18.78 77.8715 18.3 77.8715 17.71C77.8715 17.12 77.6715 16.645 77.2715 16.285C76.8815 15.915 76.3765 15.73 75.7565 15.73C75.1365 15.73 74.6265 15.915 74.2265 16.285C73.8265 16.645 73.6265 17.12 73.6265 17.71C73.6265 18.3 73.8265 18.78 74.2265 19.15C74.6265 19.51 75.1365 19.69 75.7565 19.69ZM90.6695 13.93V22H88.4495V21.04C88.1395 21.39 87.7695 21.66 87.3395 21.85C86.9095 22.03 86.4445 22.12 85.9445 22.12C84.8845 22.12 84.0445 21.815 83.4245 21.205C82.8045 20.595 82.4945 19.69 82.4945 18.49V13.93H84.8345V18.145C84.8345 19.445 85.3795 20.095 86.4695 20.095C87.0295 20.095 87.4795 19.915 87.8195 19.555C88.1595 19.185 88.3295 18.64 88.3295 17.92V13.93H90.6695ZM93.0173 10.87H95.3573V22H93.0173V10.87ZM100.964 13.81C102.214 13.81 103.174 14.11 103.844 14.71C104.514 15.3 104.849 16.195 104.849 17.395V22H102.659V20.995C102.219 21.745 101.399 22.12 100.199 22.12C99.579 22.12 99.039 22.015 98.579 21.805C98.129 21.595 97.784 21.305 97.544 20.935C97.304 20.565 97.184 20.145 97.184 19.675C97.184 18.925 97.464 18.335 98.024 17.905C98.594 17.475 99.469 17.26 100.649 17.26H102.509C102.509 16.75 102.354 16.36 102.044 16.09C101.734 15.81 101.269 15.67 100.649 15.67C100.219 15.67 99.794 15.74 99.374 15.88C98.964 16.01 98.614 16.19 98.324 16.42L97.484 14.785C97.924 14.475 98.449 14.235 99.059 14.065C99.679 13.895 100.314 13.81 100.964 13.81ZM100.784 20.545C101.184 20.545 101.539 20.455 101.849 20.275C102.159 20.085 102.379 19.81 102.509 19.45V18.625H100.904C99.944 18.625 99.464 18.94 99.464 19.57C99.464 19.87 99.579 20.11 99.809 20.29C100.049 20.46 100.374 20.545 100.784 20.545ZM109.382 14.995C109.662 14.605 110.037 14.31 110.507 14.11C110.987 13.91 111.537 13.81 112.157 13.81V15.97C111.897 15.95 111.722 15.94 111.632 15.94C110.962 15.94 110.437 16.13 110.057 16.51C109.677 16.88 109.487 17.44 109.487 18.19V22H107.147V13.93H109.382V14.995Z" fill="black"/>
<path d="M5 1H125V-1H5V1ZM129 5V27H131V5H129ZM125 31H5V33H125V31ZM1 27V5H-1V27H1ZM5 31C2.79086 31 1 29.2091 1 27H-1C-1 30.3137 1.6863 33 5 33V31ZM129 27C129 29.2091 127.209 31 125 31V33C128.314 33 131 30.3137 131 27H129ZM125 1C127.209 1 129 2.79086 129 5H131C131 1.68629 128.314 -1 125 -1V1ZM5 -1C1.68629 -1 -1 1.68629 -1 5H1C1 2.79086 2.79086 1 5 1V-1Z" fill="black"/>
<path d="M16 4.60001L4.828 8.58401L6.532 23.356L16 28.6L25.468 23.356L27.172 8.58401L16 4.60001Z" fill="#DD0031"/>
<path d="M16 4.60001V7.26401V7.25201V19.408V28.6L25.468 23.356L27.172 8.58401L16 4.60001Z" fill="#C3002F"/>
<path d="M16 7.25201L9.01599 22.912H11.62L13.024 19.408H18.952L20.356 22.912H22.96L16 7.25201ZM18.04 17.248H13.96L16 12.34L18.04 17.248Z" fill="white"/>
</svg>
