<svg width="127" height="32" viewBox="0 0 127 32" fill="none" xmlns="http://www.w3.org/2000/svg">
<g clip-path="url(#clip0)">
<path d="M122 0H31V32H122C124.761 32 127 29.7614 127 27V5C127 2.23858 124.761 0 122 0Z" fill="white"/>
<path d="M31 0H5C2.23858 0 0 2.23858 0 5V27C0 29.7614 2.23858 32 5 32H31V0Z" fill="#563D7C"/>
<path d="M48.6823 16.54C49.2823 16.73 49.7523 17.05 50.0923 17.5C50.4323 17.94 50.6023 18.485 50.6023 19.135C50.6023 20.055 50.2423 20.765 49.5223 21.265C48.8123 21.755 47.7723 22 46.4023 22H40.9723V11.5H46.1023C47.3823 11.5 48.3623 11.745 49.0423 12.235C49.7323 12.725 50.0773 13.39 50.0773 14.23C50.0773 14.74 49.9523 15.195 49.7023 15.595C49.4623 15.995 49.1223 16.31 48.6823 16.54ZM43.3873 13.33V15.805H45.8023C46.4023 15.805 46.8573 15.7 47.1673 15.49C47.4773 15.28 47.6323 14.97 47.6323 14.56C47.6323 14.15 47.4773 13.845 47.1673 13.645C46.8573 13.435 46.4023 13.33 45.8023 13.33H43.3873ZM46.2223 20.17C46.8623 20.17 47.3423 20.065 47.6623 19.855C47.9923 19.645 48.1573 19.32 48.1573 18.88C48.1573 18.01 47.5123 17.575 46.2223 17.575H43.3873V20.17H46.2223ZM56.297 22.12C55.447 22.12 54.682 21.945 54.002 21.595C53.332 21.235 52.807 20.74 52.427 20.11C52.047 19.48 51.857 18.765 51.857 17.965C51.857 17.165 52.047 16.45 52.427 15.82C52.807 15.19 53.332 14.7 54.002 14.35C54.682 13.99 55.447 13.81 56.297 13.81C57.147 13.81 57.907 13.99 58.577 14.35C59.247 14.7 59.772 15.19 60.152 15.82C60.532 16.45 60.722 17.165 60.722 17.965C60.722 18.765 60.532 19.48 60.152 20.11C59.772 20.74 59.247 21.235 58.577 21.595C57.907 21.945 57.147 22.12 56.297 22.12ZM56.297 20.2C56.897 20.2 57.387 20 57.767 19.6C58.157 19.19 58.352 18.645 58.352 17.965C58.352 17.285 58.157 16.745 57.767 16.345C57.387 15.935 56.897 15.73 56.297 15.73C55.697 15.73 55.202 15.935 54.812 16.345C54.422 16.745 54.227 17.285 54.227 17.965C54.227 18.645 54.422 19.19 54.812 19.6C55.202 20 55.697 20.2 56.297 20.2ZM66.3061 22.12C65.4561 22.12 64.6911 21.945 64.0111 21.595C63.3411 21.235 62.8161 20.74 62.4361 20.11C62.0561 19.48 61.8661 18.765 61.8661 17.965C61.8661 17.165 62.0561 16.45 62.4361 15.82C62.8161 15.19 63.3411 14.7 64.0111 14.35C64.6911 13.99 65.4561 13.81 66.3061 13.81C67.1561 13.81 67.9161 13.99 68.5861 14.35C69.2561 14.7 69.7811 15.19 70.1611 15.82C70.5411 16.45 70.7311 17.165 70.7311 17.965C70.7311 18.765 70.5411 19.48 70.1611 20.11C69.7811 20.74 69.2561 21.235 68.5861 21.595C67.9161 21.945 67.1561 22.12 66.3061 22.12ZM66.3061 20.2C66.9061 20.2 67.3961 20 67.7761 19.6C68.1661 19.19 68.3611 18.645 68.3611 17.965C68.3611 17.285 68.1661 16.745 67.7761 16.345C67.3961 15.935 66.9061 15.73 66.3061 15.73C65.7061 15.73 65.2111 15.935 64.8211 16.345C64.4311 16.745 64.2361 17.285 64.2361 17.965C64.2361 18.645 64.4311 19.19 64.8211 19.6C65.2111 20 65.7061 20.2 66.3061 20.2ZM77.6802 21.61C77.4502 21.78 77.1652 21.91 76.8252 22C76.4952 22.08 76.1452 22.12 75.7752 22.12C74.8152 22.12 74.0702 21.875 73.5402 21.385C73.0202 20.895 72.7602 20.175 72.7602 19.225V15.91H71.5152V14.11H72.7602V12.145H75.1002V14.11H77.1102V15.91H75.1002V19.195C75.1002 19.535 75.1852 19.8 75.3552 19.99C75.5352 20.17 75.7852 20.26 76.1052 20.26C76.4752 20.26 76.7902 20.16 77.0502 19.96L77.6802 21.61ZM81.8888 22.12C81.2188 22.12 80.5638 22.04 79.9238 21.88C79.2838 21.71 78.7738 21.5 78.3938 21.25L79.1738 19.57C79.5338 19.8 79.9688 19.99 80.4788 20.14C80.9888 20.28 81.4888 20.35 81.9788 20.35C82.9688 20.35 83.4638 20.105 83.4638 19.615C83.4638 19.385 83.3288 19.22 83.0588 19.12C82.7888 19.02 82.3738 18.935 81.8138 18.865C81.1538 18.765 80.6088 18.65 80.1788 18.52C79.7488 18.39 79.3738 18.16 79.0538 17.83C78.7438 17.5 78.5887 17.03 78.5887 16.42C78.5887 15.91 78.7338 15.46 79.0238 15.07C79.3238 14.67 79.7538 14.36 80.3138 14.14C80.8838 13.92 81.5538 13.81 82.3238 13.81C82.8938 13.81 83.4588 13.875 84.0188 14.005C84.5888 14.125 85.0588 14.295 85.4288 14.515L84.6488 16.18C83.9388 15.78 83.1638 15.58 82.3238 15.58C81.8238 15.58 81.4488 15.65 81.1988 15.79C80.9488 15.93 80.8238 16.11 80.8238 16.33C80.8238 16.58 80.9588 16.755 81.2288 16.855C81.4988 16.955 81.9288 17.05 82.5188 17.14C83.1788 17.25 83.7188 17.37 84.1388 17.5C84.5588 17.62 84.9238 17.845 85.2338 18.175C85.5438 18.505 85.6988 18.965 85.6988 19.555C85.6988 20.055 85.5488 20.5 85.2488 20.89C84.9488 21.28 84.5088 21.585 83.9288 21.805C83.3588 22.015 82.6788 22.12 81.8888 22.12ZM92.5275 21.61C92.2975 21.78 92.0125 21.91 91.6725 22C91.3425 22.08 90.9925 22.12 90.6225 22.12C89.6625 22.12 88.9175 21.875 88.3875 21.385C87.8675 20.895 87.6075 20.175 87.6075 19.225V15.91H86.3625V14.11H87.6075V12.145H89.9475V14.11H91.9575V15.91H89.9475V19.195C89.9475 19.535 90.0325 19.8 90.2025 19.99C90.3825 20.17 90.6325 20.26 90.9525 20.26C91.3225 20.26 91.6375 20.16 91.8975 19.96L92.5275 21.61ZM96.2561 14.995C96.5361 14.605 96.9111 14.31 97.3811 14.11C97.8611 13.91 98.4111 13.81 99.0311 13.81V15.97C98.7711 15.95 98.5961 15.94 98.5061 15.94C97.8361 15.94 97.3111 16.13 96.9311 16.51C96.5511 16.88 96.3611 17.44 96.3611 18.19V22H94.0211V13.93H96.2561V14.995ZM103.813 13.81C105.063 13.81 106.023 14.11 106.693 14.71C107.363 15.3 107.698 16.195 107.698 17.395V22H105.508V20.995C105.068 21.745 104.248 22.12 103.048 22.12C102.428 22.12 101.888 22.015 101.428 21.805C100.978 21.595 100.633 21.305 100.393 20.935C100.153 20.565 100.033 20.145 100.033 19.675C100.033 18.925 100.313 18.335 100.873 17.905C101.443 17.475 102.318 17.26 103.498 17.26H105.358C105.358 16.75 105.203 16.36 104.893 16.09C104.583 15.81 104.118 15.67 103.498 15.67C103.068 15.67 102.643 15.74 102.223 15.88C101.813 16.01 101.463 16.19 101.173 16.42L100.333 14.785C100.773 14.475 101.298 14.235 101.908 14.065C102.528 13.895 103.163 13.81 103.813 13.81ZM103.633 20.545C104.033 20.545 104.388 20.455 104.698 20.275C105.008 20.085 105.228 19.81 105.358 19.45V18.625H103.753C102.793 18.625 102.313 18.94 102.313 19.57C102.313 19.87 102.428 20.11 102.658 20.29C102.898 20.46 103.223 20.545 103.633 20.545ZM114.766 13.81C115.516 13.81 116.196 13.985 116.806 14.335C117.426 14.675 117.911 15.16 118.261 15.79C118.611 16.41 118.786 17.135 118.786 17.965C118.786 18.795 118.611 19.525 118.261 20.155C117.911 20.775 117.426 21.26 116.806 21.61C116.196 21.95 115.516 22.12 114.766 22.12C113.736 22.12 112.926 21.795 112.336 21.145V24.91H109.996V13.93H112.231V14.86C112.811 14.16 113.656 13.81 114.766 13.81ZM114.361 20.2C114.961 20.2 115.451 20 115.831 19.6C116.221 19.19 116.416 18.645 116.416 17.965C116.416 17.285 116.221 16.745 115.831 16.345C115.451 15.935 114.961 15.73 114.361 15.73C113.761 15.73 113.266 15.935 112.876 16.345C112.496 16.745 112.306 17.285 112.306 17.965C112.306 18.645 112.496 19.19 112.876 19.6C113.266 20 113.761 20.2 114.361 20.2Z" fill="black"/>
</g>
<path d="M5 1H122V-1H5V1ZM126 5V27H128V5H126ZM122 31H5V33H122V31ZM1 27V5H-1V27H1ZM5 31C2.79086 31 1 29.2091 1 27H-1C-1 30.3137 1.68629 33 5 33V31ZM126 27C126 29.2091 124.209 31 122 31V33C125.314 33 128 30.3137 128 27H126ZM122 1C124.209 1 126 2.79086 126 5H128C128 1.68629 125.314 -1 122 -1V1ZM5 -1C1.68629 -1 -1 1.68629 -1 5H1C1 2.79086 2.79086 1 5 1V-1Z" fill="black"/>
<path d="M4 24.9054C4 26.6147 5.38553 28 7.09459 28H24.9053C26.6147 28 28 26.6145 28 24.9054V7.09469C28 5.38534 26.6145 4 24.9054 4H7.09469C5.38534 4 4 5.38553 4 7.09459V24.9053V24.9054Z" fill="#563D7C"/>
<path d="M13.9524 14.6161V11.2173H16.944C17.229 11.2173 17.5037 11.2411 17.7683 11.2886C18.0328 11.336 18.2669 11.4208 18.4705 11.5429C18.6739 11.6651 18.8367 11.8347 18.9589 12.0517C19.081 12.2688 19.1421 12.547 19.1421 12.8861C19.1421 13.4967 18.9589 13.9377 18.5925 14.209C18.2262 14.4804 17.7581 14.6161 17.1882 14.6161H13.9524V14.6161ZM10.7571 8.73438V23.2656H17.7988C18.4501 23.2656 19.0844 23.1843 19.7018 23.0214C20.3191 22.8586 20.8686 22.6076 21.3503 22.2684C21.8319 21.9292 22.2152 21.4916 22.5001 20.9557C22.7851 20.4197 22.9275 19.7854 22.9275 19.0528C22.9275 18.1437 22.707 17.367 22.2661 16.7225C21.8251 16.078 21.1569 15.6269 20.2614 15.3691C20.9126 15.0571 21.4045 14.6567 21.737 14.1683C22.0693 13.6799 22.2355 13.0694 22.2355 12.3366C22.2355 11.6583 22.1236 11.0884 21.8997 10.6271C21.6759 10.1658 21.3604 9.79609 20.9533 9.51794C20.5464 9.23978 20.0579 9.03962 19.488 8.91756C18.9182 8.79541 18.2873 8.73438 17.5953 8.73438H10.7571V8.73438ZM13.9524 20.7827V16.7937H17.4325C18.1244 16.7937 18.6807 16.9531 19.1014 17.272C19.522 17.5908 19.7323 18.1233 19.7323 18.8696C19.7323 19.2496 19.6678 19.5616 19.5389 19.8058C19.41 20.05 19.237 20.2434 19.0199 20.3858C18.8029 20.5283 18.5518 20.63 18.2669 20.6912C17.9819 20.7521 17.6835 20.7827 17.3714 20.7827H13.9524V20.7827Z" fill="white"/>
<defs>
<clipPath id="clip0">
<path d="M0 5C0 2.23858 2.23858 0 5 0H122C124.761 0 127 2.23858 127 5V27C127 29.7614 124.761 32 122 32H5C2.23857 32 0 29.7614 0 27V5Z" fill="white"/>
</clipPath>
</defs>
</svg>
