<svg width="91" height="32" viewBox="0 0 91 32" fill="none" xmlns="http://www.w3.org/2000/svg">
<g clip-path="url(#clip0)">
<path d="M86 0H31V32H86C88.7614 32 91 29.7614 91 27V5C91 2.23858 88.7614 0 86 0Z" fill="white"/>
<path d="M31 0H5C2.23858 0 0 2.23858 0 5V27C0 29.7614 2.23858 32 5 32H31V0Z" fill="#347DE4"/>
<path d="M43.137 11.5H45.567V22H43.137V11.5ZM51.9138 22.12C51.0638 22.12 50.2988 21.945 49.6188 21.595C48.9488 21.235 48.4238 20.74 48.0438 20.11C47.6638 19.48 47.4738 18.765 47.4738 17.965C47.4738 17.165 47.6638 16.45 48.0438 15.82C48.4238 15.19 48.9488 14.7 49.6188 14.35C50.2988 13.99 51.0638 13.81 51.9138 13.81C52.7638 13.81 53.5238 13.99 54.1938 14.35C54.8638 14.7 55.3888 15.19 55.7688 15.82C56.1488 16.45 56.3388 17.165 56.3388 17.965C56.3388 18.765 56.1488 19.48 55.7688 20.11C55.3888 20.74 54.8638 21.235 54.1938 21.595C53.5238 21.945 52.7638 22.12 51.9138 22.12ZM51.9138 20.2C52.5138 20.2 53.0038 20 53.3838 19.6C53.7738 19.19 53.9688 18.645 53.9688 17.965C53.9688 17.285 53.7738 16.745 53.3838 16.345C53.0038 15.935 52.5138 15.73 51.9138 15.73C51.3138 15.73 50.8188 15.935 50.4288 16.345C50.0388 16.745 49.8438 17.285 49.8438 17.965C49.8438 18.645 50.0388 19.19 50.4288 19.6C50.8188 20 51.3138 20.2 51.9138 20.2ZM62.9879 13.81C63.9879 13.81 64.7929 14.11 65.4029 14.71C66.0229 15.31 66.3329 16.2 66.3329 17.38V22H63.9929V17.74C63.9929 17.1 63.8529 16.625 63.5729 16.315C63.2929 15.995 62.8879 15.835 62.3579 15.835C61.7679 15.835 61.2979 16.02 60.9479 16.39C60.5979 16.75 60.4229 17.29 60.4229 18.01V22H58.0829V13.93H60.3179V14.875C60.6279 14.535 61.0129 14.275 61.4729 14.095C61.9329 13.905 62.4379 13.81 62.9879 13.81ZM68.634 13.93H70.974V22H68.634V13.93ZM69.804 12.805C69.374 12.805 69.024 12.68 68.754 12.43C68.484 12.18 68.349 11.87 68.349 11.5C68.349 11.13 68.484 10.82 68.754 10.57C69.024 10.32 69.374 10.195 69.804 10.195C70.234 10.195 70.584 10.315 70.854 10.555C71.124 10.795 71.259 11.095 71.259 11.455C71.259 11.845 71.124 12.17 70.854 12.43C70.584 12.68 70.234 12.805 69.804 12.805ZM77.2257 22.12C76.3657 22.12 75.5907 21.945 74.9007 21.595C74.2207 21.235 73.6857 20.74 73.2957 20.11C72.9157 19.48 72.7257 18.765 72.7257 17.965C72.7257 17.165 72.9157 16.45 73.2957 15.82C73.6857 15.19 74.2207 14.7 74.9007 14.35C75.5907 13.99 76.3657 13.81 77.2257 13.81C78.0757 13.81 78.8157 13.99 79.4457 14.35C80.0857 14.7 80.5507 15.205 80.8407 15.865L79.0257 16.84C78.6057 16.1 78.0007 15.73 77.2107 15.73C76.6007 15.73 76.0957 15.93 75.6957 16.33C75.2957 16.73 75.0957 17.275 75.0957 17.965C75.0957 18.655 75.2957 19.2 75.6957 19.6C76.0957 20 76.6007 20.2 77.2107 20.2C78.0107 20.2 78.6157 19.83 79.0257 19.09L80.8407 20.08C80.5507 20.72 80.0857 21.22 79.4457 21.58C78.8157 21.94 78.0757 22.12 77.2257 22.12Z" fill="black"/>
</g>
<path d="M5 1H86V-1H5V1ZM90 5V27H92V5H90ZM86 31H5V33H86V31ZM1 27V5H-1V27H1ZM5 31C2.79086 31 1 29.2091 1 27H-1C-1 30.3137 1.68629 33 5 33V31ZM90 27C90 29.2091 88.2091 31 86 31V33C89.3137 33 92 30.3137 92 27H90ZM86 1C88.2091 1 90 2.79086 90 5H92C92 1.68629 89.3137 -1 86 -1V1ZM5 -1C1.68629 -1 -1 1.68629 -1 5H1C1 2.79086 2.79086 1 5 1V-1Z" fill="black"/>
<g clip-path="url(#clip1)">
<path d="M26.9222 11.0267L26.8203 10.7965L26.6485 10.9832C26.2416 11.4483 25.725 11.8043 25.1455 12.019L24.9843 12.0812L25.051 12.2372C25.5481 13.4278 25.803 14.7054 25.801 15.9955C25.801 21.4015 21.406 25.8002 15.9962 25.8002C10.5865 25.8002 6.19525 21.4052 6.19525 15.9992C6.19525 10.5932 10.5985 6.1945 16 6.1945C17.4692 6.1945 18.883 6.51175 20.1993 7.14025L20.3552 7.2145L20.422 7.0615C20.664 6.49305 21.0436 5.99379 21.5267 5.60875L21.7225 5.449L21.4998 5.332C19.8 4.45288 17.9136 3.99601 16 4C9.38275 4 4 9.38275 4 16C4 22.621 9.38275 28 16 28C22.621 28 28 22.621 28 16C28 14.2697 27.6407 12.598 26.9222 11.0267ZM16 10.531C14.55 10.5324 13.1597 11.109 12.1344 12.1344C11.109 13.1597 10.5324 14.55 10.531 16C10.5324 17.45 11.109 18.8403 12.1344 19.8656C13.1597 20.891 14.55 21.4676 16 21.469C17.45 21.4676 18.8403 20.891 19.8656 19.8656C20.891 18.8403 21.4676 17.45 21.469 16C21.4676 14.55 20.891 13.1597 19.8656 12.1344C18.8403 11.109 17.45 10.5324 16 10.531ZM26.344 8.52325C26.3442 8.85062 26.2799 9.17483 26.1547 9.47733C26.0295 9.77984 25.846 10.0547 25.6145 10.2862C25.3831 10.5178 25.1082 10.7014 24.8058 10.8267C24.5033 10.9519 24.1791 11.0163 23.8517 11.0162C23.524 11.0167 23.1995 10.9526 22.8966 10.8276C22.5937 10.7025 22.3184 10.5189 22.0865 10.2874C21.8546 10.0558 21.6706 9.78085 21.5451 9.47814C21.4196 9.17543 21.355 8.85095 21.355 8.52325C21.355 5.19925 26.344 5.19925 26.344 8.52325Z" fill="white"/>
</g>
<defs>
<clipPath id="clip0">
<path d="M0 5C0 2.23858 2.23858 0 5 0H86C88.7614 0 91 2.23858 91 5V27C91 29.7614 88.7614 32 86 32H5C2.23858 32 0 29.7614 0 27V5Z" fill="white"/>
</clipPath>
<clipPath id="clip1">
<rect width="24" height="24" fill="white" transform="translate(4 4)"/>
</clipPath>
</defs>
</svg>
