<svg width="104" height="32" viewBox="0 0 104 32" fill="none" xmlns="http://www.w3.org/2000/svg">
<g clip-path="url(#clip0)">
<path d="M99 0H31V32H99C101.761 32 104 29.7614 104 27V5C104 2.23858 101.761 0 99 0Z" fill="white"/>
<path d="M31 0H5C2.23858 0 0 2.23858 0 5V27C0 29.7614 2.23858 32 5 32H31V0Z" fill="#0769AD"/>
<path d="M41.1994 25.03C40.3794 25.03 39.7544 24.88 39.3244 24.58L39.9544 22.885C40.2244 23.075 40.5544 23.17 40.9444 23.17C41.2444 23.17 41.4794 23.07 41.6494 22.87C41.8194 22.68 41.9044 22.39 41.9044 22V13.93H44.2444V21.985C44.2444 22.925 43.9744 23.665 43.4344 24.205C42.9044 24.755 42.1594 25.03 41.1994 25.03ZM43.0744 12.805C42.6444 12.805 42.2944 12.68 42.0244 12.43C41.7544 12.18 41.6194 11.87 41.6194 11.5C41.6194 11.13 41.7544 10.82 42.0244 10.57C42.2944 10.32 42.6444 10.195 43.0744 10.195C43.5044 10.195 43.8544 10.315 44.1244 10.555C44.3944 10.795 44.5294 11.095 44.5294 11.455C44.5294 11.845 44.3944 12.17 44.1244 12.43C43.8544 12.68 43.5044 12.805 43.0744 12.805ZM58.099 23.125C57.759 23.545 57.344 23.865 56.854 24.085C56.374 24.305 55.844 24.415 55.264 24.415C54.484 24.415 53.779 24.245 53.149 23.905C52.519 23.575 51.799 22.985 50.989 22.135C50.039 22.015 49.189 21.71 48.439 21.22C47.699 20.73 47.119 20.1 46.699 19.33C46.289 18.55 46.084 17.69 46.084 16.75C46.084 15.72 46.329 14.795 46.819 13.975C47.319 13.145 48.004 12.495 48.874 12.025C49.754 11.555 50.739 11.32 51.829 11.32C52.919 11.32 53.899 11.555 54.769 12.025C55.639 12.495 56.324 13.145 56.824 13.975C57.324 14.795 57.574 15.72 57.574 16.75C57.574 17.97 57.229 19.04 56.539 19.96C55.859 20.88 54.954 21.52 53.824 21.88C54.074 22.14 54.314 22.325 54.544 22.435C54.784 22.555 55.039 22.615 55.309 22.615C55.959 22.615 56.529 22.355 57.019 21.835L58.099 23.125ZM48.544 16.75C48.544 17.4 48.684 17.98 48.964 18.49C49.254 19 49.649 19.4 50.149 19.69C50.649 19.97 51.209 20.11 51.829 20.11C52.449 20.11 53.009 19.97 53.509 19.69C54.009 19.4 54.399 19 54.679 18.49C54.969 17.98 55.114 17.4 55.114 16.75C55.114 16.1 54.969 15.52 54.679 15.01C54.399 14.5 54.009 14.105 53.509 13.825C53.009 13.535 52.449 13.39 51.829 13.39C51.209 13.39 50.649 13.535 50.149 13.825C49.649 14.105 49.254 14.5 48.964 15.01C48.684 15.52 48.544 16.1 48.544 16.75ZM67.5453 13.93V22H65.3253V21.04C65.0153 21.39 64.6453 21.66 64.2153 21.85C63.7853 22.03 63.3203 22.12 62.8203 22.12C61.7603 22.12 60.9203 21.815 60.3003 21.205C59.6803 20.595 59.3703 19.69 59.3703 18.49V13.93H61.7103V18.145C61.7103 19.445 62.2553 20.095 63.3453 20.095C63.9053 20.095 64.3553 19.915 64.6953 19.555C65.0353 19.185 65.2053 18.64 65.2053 17.92V13.93H67.5453ZM77.7981 17.995C77.7981 18.025 77.7831 18.235 77.7531 18.625H71.6481C71.7581 19.125 72.0181 19.52 72.4281 19.81C72.8381 20.1 73.3481 20.245 73.9581 20.245C74.3781 20.245 74.7481 20.185 75.0681 20.065C75.3981 19.935 75.7031 19.735 75.9831 19.465L77.2281 20.815C76.4681 21.685 75.3581 22.12 73.8981 22.12C72.9881 22.12 72.1831 21.945 71.4831 21.595C70.7831 21.235 70.2431 20.74 69.8631 20.11C69.4831 19.48 69.2931 18.765 69.2931 17.965C69.2931 17.175 69.4781 16.465 69.8481 15.835C70.2281 15.195 70.7431 14.7 71.3931 14.35C72.0531 13.99 72.7881 13.81 73.5981 13.81C74.3881 13.81 75.1031 13.98 75.7431 14.32C76.3831 14.66 76.8831 15.15 77.2431 15.79C77.6131 16.42 77.7981 17.155 77.7981 17.995ZM73.6131 15.58C73.0831 15.58 72.6381 15.73 72.2781 16.03C71.9181 16.33 71.6981 16.74 71.6181 17.26H75.5931C75.5131 16.75 75.2931 16.345 74.9331 16.045C74.5731 15.735 74.1331 15.58 73.6131 15.58ZM81.771 14.995C82.051 14.605 82.426 14.31 82.896 14.11C83.376 13.91 83.926 13.81 84.546 13.81V15.97C84.286 15.95 84.111 15.94 84.021 15.94C83.351 15.94 82.826 16.13 82.446 16.51C82.066 16.88 81.876 17.44 81.876 18.19V22H79.536V13.93H81.771V14.995ZM94.4057 13.93L90.7607 22.495C90.3907 23.425 89.9307 24.08 89.3807 24.46C88.8407 24.84 88.1857 25.03 87.4157 25.03C86.9957 25.03 86.5807 24.965 86.1707 24.835C85.7607 24.705 85.4257 24.525 85.1657 24.295L86.0207 22.63C86.2007 22.79 86.4057 22.915 86.6357 23.005C86.8757 23.095 87.1107 23.14 87.3407 23.14C87.6607 23.14 87.9207 23.06 88.1207 22.9C88.3207 22.75 88.5007 22.495 88.6607 22.135L88.6907 22.06L85.1957 13.93H87.6107L89.8757 19.405L92.1557 13.93H94.4057Z" fill="black"/>
</g>
<path d="M5 1H99V-1H5V1ZM103 5V27H105V5H103ZM99 31H5V33H99V31ZM1 27V5H-1V27H1ZM5 31C2.79086 31 1 29.2091 1 27H-1C-1 30.3137 1.68629 33 5 33V31ZM103 27C103 29.2091 101.209 31 99 31V33C102.314 33 105 30.3137 105 27H103ZM99 1C101.209 1 103 2.79086 103 5H105C105 1.68629 102.314 -1 99 -1V1ZM5 -1C1.68629 -1 -1 1.68629 -1 5H1C1 2.79086 2.79086 1 5 1V-1Z" fill="black"/>
<path d="M7.34497 11.935C5.58897 14.458 5.80697 17.741 7.14897 20.422L7.24697 20.612C7.26797 20.652 7.28797 20.694 7.30997 20.733C7.32197 20.757 7.33597 20.78 7.34897 20.802C7.41206 20.9183 7.47808 21.033 7.54697 21.146L7.61997 21.266C7.68794 21.3775 7.75829 21.4875 7.83097 21.596C7.9026 21.7037 7.97628 21.8101 8.05197 21.915L8.08797 21.964C8.15097 22.052 8.21697 22.139 8.28397 22.225L8.35797 22.319L8.53997 22.542L8.60897 22.624C8.69097 22.721 8.77597 22.818 8.86097 22.913L8.86597 22.918C8.86997 22.922 8.87297 22.924 8.87597 22.929C8.95897 23.02 9.04597 23.11 9.13197 23.2L9.21497 23.283L9.41997 23.484L9.50397 23.564C9.59597 23.651 9.68997 23.736 9.78497 23.82L9.78897 23.824L9.83797 23.865C9.92097 23.938 10.007 24.01 10.093 24.08L10.198 24.164C10.3817 24.3113 10.5702 24.4527 10.763 24.588C10.792 24.609 10.82 24.63 10.85 24.65L10.874 24.667C10.95 24.72 11.028 24.77 11.105 24.82C11.138 24.842 11.171 24.865 11.206 24.887C11.4932 25.0703 11.7889 25.2402 12.092 25.396C12.157 25.43 12.221 25.464 12.287 25.497L12.332 25.519L12.412 25.558C12.514 25.606 12.617 25.655 12.72 25.701L12.786 25.73C12.905 25.782 13.025 25.832 13.146 25.879L13.234 25.914C13.3606 25.9632 13.4879 26.0105 13.616 26.056C13.741 26.1 13.868 26.141 13.996 26.18L14.088 26.208C14.216 26.247 14.344 26.293 14.478 26.318C22.97 27.866 25.436 21.216 25.436 21.216C23.364 23.914 19.688 24.626 16.204 23.834C16.072 23.804 15.943 23.763 15.814 23.725L15.717 23.696C15.4622 23.6172 15.2103 23.5292 14.962 23.432L14.869 23.396C14.749 23.349 14.63 23.299 14.513 23.248L14.442 23.217C14.341 23.1717 14.2406 23.1251 14.141 23.077L14.054 23.035C13.976 22.997 13.899 22.956 13.822 22.917C13.771 22.89 13.718 22.864 13.667 22.835C13.5733 22.7848 13.4806 22.7328 13.389 22.679L13.295 22.627C13.1726 22.5549 13.0516 22.4806 12.932 22.404L12.834 22.339C12.7468 22.2829 12.6605 22.2256 12.575 22.167L12.492 22.108C12.41 22.05 12.328 21.992 12.248 21.932C12.1372 21.8489 12.0278 21.7639 11.92 21.677L11.821 21.598C11.729 21.522 11.637 21.446 11.547 21.367C11.4389 21.2729 11.3326 21.1769 11.228 21.079C11.2 21.053 11.173 21.028 11.147 21.001C11.0764 20.9346 11.0071 20.8669 10.939 20.798L10.858 20.717C10.7718 20.6288 10.6871 20.5391 10.604 20.448L10.592 20.436C10.5044 20.3398 10.4183 20.2421 10.334 20.143L10.267 20.062C10.1803 19.9593 10.0956 19.855 10.013 19.749C9.93987 19.6548 9.86819 19.5594 9.79797 19.463C7.86397 16.825 7.16997 13.186 8.71497 10.198" fill="white"/>
<path d="M12.794 9.809C11.524 11.636 11.594 14.082 12.584 16.014C12.75 16.338 12.937 16.653 13.145 16.952C13.336 17.225 13.546 17.549 13.799 17.768C13.891 17.869 13.986 17.967 14.083 18.063L14.159 18.137C14.253 18.229 14.349 18.319 14.45 18.408L14.461 18.418L14.464 18.42C14.575 18.517 14.688 18.61 14.804 18.701L14.882 18.761C15.0015 18.8537 15.1236 18.943 15.248 19.029C15.301 19.066 15.356 19.101 15.409 19.136C15.435 19.153 15.46 19.171 15.487 19.187C15.5858 19.2508 15.6862 19.3122 15.788 19.371C15.864 19.415 15.943 19.458 16.021 19.501C16.047 19.516 16.076 19.53 16.103 19.544C16.158 19.572 16.211 19.601 16.266 19.627C16.3865 19.6865 16.5082 19.7436 16.631 19.798L16.705 19.829C16.798 19.868 16.891 19.906 16.986 19.942L17.103 19.986C17.189 20.018 17.274 20.046 17.359 20.075L17.476 20.112C17.597 20.15 17.719 20.197 17.846 20.219C24.402 21.305 25.914 16.258 25.914 16.258C24.55 18.222 21.908 19.16 19.089 18.428C18.8377 18.363 18.5897 18.2855 18.346 18.196L18.228 18.153C18.1092 18.1076 17.9915 18.0593 17.875 18.008C17.7592 17.9575 17.6445 17.9045 17.531 17.849C17.474 17.821 17.418 17.791 17.361 17.762L17.262 17.711C17.0809 17.6126 16.9032 17.5082 16.729 17.398L16.649 17.345C16.4414 17.2098 16.2405 17.0647 16.047 16.91C14.813 15.936 13.834 14.604 13.369 13.095C12.881 11.529 12.987 9.772 13.831 8.345" fill="white"/>
<path d="M17.3789 8.221C16.6299 9.323 16.5559 10.69 17.0749 11.907C17.6229 13.199 18.7459 14.211 20.0559 14.692C20.1331 14.7208 20.2111 14.7472 20.2899 14.771C20.3669 14.795 20.4419 14.824 20.5229 14.838C24.1429 15.537 25.1239 12.981 25.3849 12.604C24.5249 13.843 23.0789 14.14 21.3069 13.709C20.984 13.6236 20.6696 13.5084 20.3679 13.365C20.0526 13.2128 19.7529 13.0303 19.4729 12.82C17.8879 11.616 16.8999 9.319 17.9369 7.448" fill="white"/>
<defs>
<clipPath id="clip0">
<path d="M0 5C0 2.23858 2.23858 0 5 0H99C101.761 0 104 2.23858 104 5V27C104 29.7614 101.761 32 99 32H5C2.23858 32 0 29.7614 0 27V5Z" fill="white"/>
</clipPath>
</defs>
</svg>
