<svg width="107" height="32" viewBox="0 0 107 32" fill="none" xmlns="http://www.w3.org/2000/svg">
<g clip-path="url(#clip0)">
<path d="M102 0H31V32H102C104.761 32 107 29.7614 107 27V5C107 2.23858 104.761 0 102 0Z" fill="white"/>
<path d="M5 0.5H30.5V31.5H5C2.51472 31.5 0.5 29.4853 0.5 27V5C0.5 2.51472 2.51472 0.5 5 0.5Z" fill="white" stroke="black"/>
<path d="M50.6187 11.5V22H48.6237L43.3887 15.625V22H40.9887V11.5H42.9987L48.2187 17.875V11.5H50.6187ZM56.9579 22.12C56.1079 22.12 55.3429 21.945 54.6629 21.595C53.9929 21.235 53.4679 20.74 53.0879 20.11C52.7079 19.48 52.5179 18.765 52.5179 17.965C52.5179 17.165 52.7079 16.45 53.0879 15.82C53.4679 15.19 53.9929 14.7 54.6629 14.35C55.3429 13.99 56.1079 13.81 56.9579 13.81C57.8079 13.81 58.5679 13.99 59.2379 14.35C59.9079 14.7 60.4329 15.19 60.8129 15.82C61.1929 16.45 61.3829 17.165 61.3829 17.965C61.3829 18.765 61.1929 19.48 60.8129 20.11C60.4329 20.74 59.9079 21.235 59.2379 21.595C58.5679 21.945 57.8079 22.12 56.9579 22.12ZM56.9579 20.2C57.5579 20.2 58.0479 20 58.4279 19.6C58.8179 19.19 59.0129 18.645 59.0129 17.965C59.0129 17.285 58.8179 16.745 58.4279 16.345C58.0479 15.935 57.5579 15.73 56.9579 15.73C56.3579 15.73 55.8629 15.935 55.4729 16.345C55.0829 16.745 54.8879 17.285 54.8879 17.965C54.8879 18.645 55.0829 19.19 55.4729 19.6C55.8629 20 56.3579 20.2 56.9579 20.2ZM71.3471 10.87V22H69.1121V21.07C68.5321 21.77 67.6921 22.12 66.5921 22.12C65.8321 22.12 65.1421 21.95 64.5221 21.61C63.9121 21.27 63.4321 20.785 63.0821 20.155C62.7321 19.525 62.5571 18.795 62.5571 17.965C62.5571 17.135 62.7321 16.405 63.0821 15.775C63.4321 15.145 63.9121 14.66 64.5221 14.32C65.1421 13.98 65.8321 13.81 66.5921 13.81C67.6221 13.81 68.4271 14.135 69.0071 14.785V10.87H71.3471ZM66.9971 20.2C67.5871 20.2 68.0771 20 68.4671 19.6C68.8571 19.19 69.0521 18.645 69.0521 17.965C69.0521 17.285 68.8571 16.745 68.4671 16.345C68.0771 15.935 67.5871 15.73 66.9971 15.73C66.3971 15.73 65.9021 15.935 65.5121 16.345C65.1221 16.745 64.9271 17.285 64.9271 17.965C64.9271 18.645 65.1221 19.19 65.5121 19.6C65.9021 20 66.3971 20.2 66.9971 20.2ZM81.5978 17.995C81.5978 18.025 81.5828 18.235 81.5528 18.625H75.4478C75.5578 19.125 75.8178 19.52 76.2278 19.81C76.6378 20.1 77.1478 20.245 77.7578 20.245C78.1778 20.245 78.5478 20.185 78.8678 20.065C79.1978 19.935 79.5028 19.735 79.7828 19.465L81.0278 20.815C80.2678 21.685 79.1578 22.12 77.6978 22.12C76.7878 22.12 75.9828 21.945 75.2828 21.595C74.5828 21.235 74.0428 20.74 73.6628 20.11C73.2828 19.48 73.0928 18.765 73.0928 17.965C73.0928 17.175 73.2778 16.465 73.6478 15.835C74.0278 15.195 74.5428 14.7 75.1928 14.35C75.8528 13.99 76.5878 13.81 77.3978 13.81C78.1878 13.81 78.9028 13.98 79.5428 14.32C80.1828 14.66 80.6828 15.15 81.0428 15.79C81.4128 16.42 81.5978 17.155 81.5978 17.995ZM77.4128 15.58C76.8828 15.58 76.4378 15.73 76.0778 16.03C75.7178 16.33 75.4978 16.74 75.4178 17.26H79.3928C79.3128 16.75 79.0928 16.345 78.7328 16.045C78.3728 15.735 77.9328 15.58 77.4128 15.58ZM84.2207 22.12C83.8107 22.12 83.4657 21.98 83.1857 21.7C82.9057 21.42 82.7657 21.07 82.7657 20.65C82.7657 20.22 82.9057 19.875 83.1857 19.615C83.4657 19.345 83.8107 19.21 84.2207 19.21C84.6307 19.21 84.9757 19.345 85.2557 19.615C85.5357 19.875 85.6757 20.22 85.6757 20.65C85.6757 21.07 85.5357 21.42 85.2557 21.7C84.9757 21.98 84.6307 22.12 84.2207 22.12ZM86.9879 25.03C86.1679 25.03 85.5429 24.88 85.1129 24.58L85.7429 22.885C86.0129 23.075 86.3429 23.17 86.7329 23.17C87.0329 23.17 87.2679 23.07 87.4379 22.87C87.6079 22.68 87.6929 22.39 87.6929 22V13.93H90.033V21.985C90.033 22.925 89.763 23.665 89.2229 24.205C88.6929 24.755 87.9479 25.03 86.9879 25.03ZM88.8629 12.805C88.4329 12.805 88.0829 12.68 87.8129 12.43C87.5429 12.18 87.4079 11.87 87.4079 11.5C87.4079 11.13 87.5429 10.82 87.8129 10.57C88.0829 10.32 88.4329 10.195 88.8629 10.195C89.2929 10.195 89.6429 10.315 89.913 10.555C90.1829 10.795 90.3179 11.095 90.3179 11.455C90.3179 11.845 90.1829 12.17 89.913 12.43C89.6429 12.68 89.2929 12.805 88.8629 12.805ZM95.0826 22.12C94.4126 22.12 93.7576 22.04 93.1176 21.88C92.4776 21.71 91.9676 21.5 91.5876 21.25L92.3676 19.57C92.7276 19.8 93.1626 19.99 93.6726 20.14C94.1826 20.28 94.6826 20.35 95.1726 20.35C96.1626 20.35 96.6576 20.105 96.6576 19.615C96.6576 19.385 96.5226 19.22 96.2526 19.12C95.9826 19.02 95.5676 18.935 95.0076 18.865C94.3476 18.765 93.8026 18.65 93.3726 18.52C92.9426 18.39 92.5676 18.16 92.2476 17.83C91.9376 17.5 91.7826 17.03 91.7826 16.42C91.7826 15.91 91.9276 15.46 92.2176 15.07C92.5176 14.67 92.9476 14.36 93.5076 14.14C94.0776 13.92 94.7476 13.81 95.5176 13.81C96.0876 13.81 96.6526 13.875 97.2126 14.005C97.7826 14.125 98.2526 14.295 98.6226 14.515L97.8426 16.18C97.1326 15.78 96.3576 15.58 95.5176 15.58C95.0176 15.58 94.6426 15.65 94.3926 15.79C94.1426 15.93 94.0176 16.11 94.0176 16.33C94.0176 16.58 94.1526 16.755 94.4226 16.855C94.6926 16.955 95.1226 17.05 95.7126 17.14C96.3726 17.25 96.9126 17.37 97.3326 17.5C97.7526 17.62 98.1176 17.845 98.4276 18.175C98.7376 18.505 98.8926 18.965 98.8926 19.555C98.8926 20.055 98.7426 20.5 98.4426 20.89C98.1426 21.28 97.7026 21.585 97.1226 21.805C96.5526 22.015 95.8726 22.12 95.0826 22.12Z" fill="black"/>
</g>
<path d="M5 1H102V-1H5V1ZM106 5V27H108V5H106ZM102 31H5V33H102V31ZM1 27V5H-1V27H1ZM5 31C2.79086 31 1 29.2091 1 27H-1C-1 30.3137 1.68629 33 5 33V31ZM106 27C106 29.2091 104.209 31 102 31V33C105.314 33 108 30.3137 108 27H106ZM102 1C104.209 1 106 2.79086 106 5H108C108 1.68629 105.314 -1 102 -1V1ZM5 -1C1.68629 -1 -1 1.68629 -1 5H1C1 2.79086 2.79086 1 5 1V-1Z" fill="black"/>
<g clip-path="url(#clip1)">
<path d="M15.8534 23.8993C15.7654 23.8993 15.6832 23.8758 15.6069 23.8347L14.8263 23.3711C14.7089 23.3065 14.7676 23.283 14.8029 23.2713C14.9613 23.2185 14.9907 23.2067 15.155 23.1129C15.1726 23.1011 15.1961 23.107 15.2137 23.1187L15.8124 23.4767C15.8358 23.4884 15.8652 23.4884 15.8827 23.4767L18.2245 22.121C18.248 22.1092 18.2598 22.0857 18.2598 22.0564V19.3508C18.2598 19.3214 18.248 19.298 18.2245 19.2862L15.8827 17.9363C15.8593 17.9245 15.8299 17.9245 15.8124 17.9363L13.4706 19.2862C13.4471 19.2979 13.4353 19.3273 13.4353 19.3507V22.0564C13.4353 22.0799 13.4471 22.1092 13.4706 22.121L14.1103 22.4907C14.4566 22.6667 14.6737 22.4613 14.6737 22.2559V19.5855C14.6737 19.5503 14.7031 19.5151 14.7442 19.5151H15.0435C15.0787 19.5151 15.1139 19.5444 15.1139 19.5855V22.2559C15.1139 22.7196 14.8615 22.9896 14.4214 22.9896C14.2864 22.9896 14.1808 22.9896 13.8814 22.8428L13.2652 22.4907C13.1126 22.4027 13.0187 22.2383 13.0187 22.0623V19.3566C13.0187 19.1806 13.1126 19.0162 13.2652 18.9282L15.6069 17.5724C15.7537 17.4903 15.9532 17.4903 16.0999 17.5724L18.4417 18.9282C18.5943 19.0162 18.6882 19.1806 18.6882 19.3566V22.0623C18.6882 22.2383 18.5943 22.4027 18.4417 22.4907L16.0999 23.8464C16.0236 23.8817 15.9356 23.8993 15.8534 23.8993H15.8534ZM16.5753 22.0388C15.5482 22.0388 15.3369 21.5693 15.3369 21.1702C15.3369 21.1349 15.3663 21.0997 15.4074 21.0997H15.7126C15.7478 21.0997 15.7771 21.1232 15.7771 21.1584C15.8241 21.4695 15.9591 21.6221 16.5812 21.6221C17.0742 21.6221 17.2855 21.5106 17.2855 21.2464C17.2855 21.0939 17.2268 20.9824 16.4579 20.9061C15.8182 20.8415 15.4191 20.7007 15.4191 20.19C15.4191 19.7146 15.8182 19.4329 16.4873 19.4329C17.2385 19.4329 17.6083 19.6912 17.6553 20.2545C17.6553 20.2722 17.6494 20.2898 17.6376 20.3074C17.6259 20.3191 17.6083 20.3309 17.5907 20.3309H17.2855C17.2561 20.3309 17.2268 20.3074 17.2209 20.2781C17.1505 19.9553 16.9685 19.8496 16.4873 19.8496C15.9473 19.8496 15.8827 20.0374 15.8827 20.1783C15.8827 20.3485 15.9591 20.4013 16.6868 20.4952C17.4087 20.5891 17.7492 20.7241 17.7492 21.2288C17.7433 21.7453 17.3207 22.0388 16.5753 22.0388Z" fill="#539E43"/>
<path d="M8.58741 13.3174C8.58741 13.2118 8.52871 13.112 8.43481 13.0592L5.94633 11.6271C5.90519 11.6036 5.85827 11.5919 5.81135 11.586H5.78784C5.74092 11.586 5.69394 11.6036 5.65286 11.6271L3.16438 13.0592C3.07043 13.112 3.01178 13.2118 3.01178 13.3174L3.01767 17.1675C3.01767 17.2203 3.04702 17.2731 3.09394 17.2967C3.14092 17.326 3.19957 17.326 3.2407 17.2967L4.71971 16.4515C4.8136 16.3987 4.8723 16.2989 4.8723 16.1933V14.3915C4.8723 14.2858 4.93096 14.186 5.0249 14.1332L5.65286 13.7693C5.69983 13.74 5.75265 13.7282 5.80546 13.7282C5.85827 13.7282 5.91108 13.74 5.95222 13.7693L6.58018 14.1332C6.67412 14.186 6.73278 14.2858 6.73278 14.3915V16.1933C6.73278 16.2989 6.79148 16.3987 6.88537 16.4515L8.36438 17.2967C8.41135 17.326 8.47 17.326 8.51698 17.2967C8.56395 17.2731 8.5933 17.2203 8.5933 17.1675L8.58741 13.3174Z" fill="#333333"/>
<path d="M20.5485 8.0176C20.5015 7.99409 20.4428 7.99409 20.4017 8.0176C20.3548 8.04695 20.3254 8.09388 20.3254 8.14669V11.9616C20.3254 11.9968 20.3079 12.032 20.2726 12.0555C20.2374 12.0731 20.2022 12.0731 20.167 12.0555L19.5449 11.6975C19.4993 11.6715 19.4477 11.6579 19.3952 11.6579C19.3427 11.6579 19.2911 11.6715 19.2455 11.6975L16.757 13.1354C16.6631 13.1882 16.6044 13.288 16.6044 13.3937V16.2636C16.6044 16.3692 16.6631 16.4691 16.757 16.5219L19.2455 17.9598C19.2911 17.9858 19.3427 17.9994 19.3952 17.9994C19.4477 17.9994 19.4993 17.9858 19.5449 17.9598L22.0334 16.5219C22.1273 16.4691 22.186 16.3693 22.186 16.2636V9.10925C22.186 8.99773 22.1273 8.898 22.0334 8.84513L20.5485 8.0176H20.5485ZM20.3196 15.3187C20.3196 15.3481 20.3079 15.3715 20.2843 15.3833L19.4334 15.8762C19.4215 15.882 19.4084 15.8851 19.3952 15.8851C19.382 15.8851 19.3689 15.882 19.357 15.8762L18.506 15.3833C18.4825 15.3715 18.4708 15.3422 18.4708 15.3187V14.3327C18.4708 14.3033 18.4825 14.2799 18.506 14.2682L19.357 13.7751C19.3689 13.7693 19.382 13.7663 19.3952 13.7663C19.4084 13.7663 19.4215 13.7693 19.4334 13.7751L20.2843 14.2682C20.3079 14.2798 20.3196 14.3092 20.3196 14.3327V15.3187Z" fill="#333333"/>
<path d="M28.83 14.3093C28.9239 14.2565 28.9767 14.1567 28.9767 14.051V13.3526C28.9767 13.247 28.918 13.1472 28.83 13.0944L26.3591 11.6624C26.3135 11.6364 26.2619 11.6227 26.2094 11.6227C26.157 11.6227 26.1054 11.6364 26.0598 11.6624L23.5713 13.1002C23.4774 13.153 23.4187 13.2528 23.4187 13.3585V16.2284C23.4187 16.3341 23.4774 16.4339 23.5713 16.4867L26.0422 17.8952C26.1361 17.948 26.2476 17.948 26.3356 17.8952L27.8322 17.0619C27.8792 17.0384 27.9085 16.9856 27.9085 16.9328C27.9085 16.88 27.8792 16.8272 27.8322 16.8036L25.332 15.3657C25.2851 15.3364 25.2557 15.2894 25.2557 15.2366V14.3387C25.2557 14.2859 25.2851 14.233 25.332 14.2095L26.1126 13.7635C26.1354 13.7491 26.1619 13.7415 26.1889 13.7415C26.2159 13.7415 26.2423 13.7491 26.2652 13.7635L27.0458 14.2095C27.0927 14.2389 27.1221 14.2858 27.1221 14.3387V15.043C27.1221 15.0958 27.1514 15.1486 27.1984 15.172C27.2453 15.2014 27.304 15.2014 27.3509 15.172L28.83 14.3093V14.3093Z" fill="#333333"/>
<path d="M26.1711 14.1742C26.1798 14.1685 26.19 14.1654 26.2004 14.1654C26.2108 14.1654 26.221 14.1685 26.2297 14.1742L26.7052 14.4501C26.7228 14.4617 26.7345 14.4794 26.7345 14.5029V15.0546C26.7345 15.078 26.7228 15.0956 26.7052 15.1074L26.2297 15.3832C26.221 15.389 26.2108 15.392 26.2004 15.392C26.19 15.392 26.1798 15.389 26.1711 15.3832L25.6957 15.1074C25.6781 15.0956 25.6663 15.078 25.6663 15.0546V14.5029C25.6663 14.4794 25.6781 14.4617 25.6957 14.4501L26.1711 14.1742V14.1742Z" fill="#539E43"/>
<mask id="mask0" mask-type="alpha" maskUnits="userSpaceOnUse" x="9" y="11" width="7" height="7">
<path d="M12.7485 11.6741C12.7029 11.6481 12.6513 11.6345 12.5988 11.6345C12.5463 11.6345 12.4948 11.6481 12.4492 11.6741L9.9783 13.1002C9.88436 13.153 9.83154 13.2528 9.83154 13.3584V16.2167C9.83154 16.3223 9.89025 16.4221 9.9783 16.4749L12.4492 17.9011C12.4948 17.9271 12.5463 17.9407 12.5988 17.9407C12.6513 17.9407 12.7029 17.9271 12.7485 17.9011L15.2194 16.4749C15.3133 16.4221 15.3661 16.3223 15.3661 16.2167V13.3585C15.3661 13.2528 15.3074 13.1531 15.2194 13.1002L12.7485 11.6741Z" fill="white"/>
</mask>
<g mask="url(#mask0)">
<path d="M12.7485 11.6741C12.7029 11.6481 12.6513 11.6345 12.5988 11.6345C12.5463 11.6345 12.4948 11.6481 12.4492 11.6741L9.9783 13.1002C9.88436 13.153 9.83154 13.2528 9.83154 13.3584V16.2167C9.83154 16.3223 9.89025 16.4221 9.9783 16.4749L12.4492 17.9011C12.4948 17.9271 12.5463 17.9407 12.5988 17.9407C12.6513 17.9407 12.7029 17.9271 12.7485 17.9011L15.2194 16.4749C15.3133 16.4221 15.3661 16.3223 15.3661 16.2167V13.3585C15.3661 13.2528 15.3074 13.1531 15.2194 13.1002L12.7485 11.6741Z" fill="url(#paint0_linear)"/>
<path d="M15.2252 13.1003L12.7426 11.6741C12.7182 11.6618 12.6926 11.652 12.6663 11.6448L9.88434 16.4105C9.90738 16.4386 9.93522 16.4625 9.96655 16.4809L12.4491 17.9071C12.5196 17.9482 12.6017 17.9599 12.678 17.9364L15.2898 13.159C15.2722 13.1356 15.2487 13.1179 15.2252 13.1003V13.1003Z" fill="url(#paint1_linear)"/>
<path fill-rule="evenodd" clip-rule="evenodd" d="M15.231 16.475C15.3014 16.4339 15.3542 16.3634 15.3777 16.2872L12.6544 11.6389C12.5839 11.6271 12.5076 11.633 12.4431 11.674L9.97809 13.0944L12.6367 17.9422C12.6754 17.9359 12.713 17.9241 12.7483 17.907L15.2309 16.475L15.231 16.475Z" fill="url(#paint2_linear)"/>
<path fill-rule="evenodd" clip-rule="evenodd" d="M15.231 16.475L12.7543 17.9012C12.7193 17.919 12.6816 17.9309 12.6428 17.9364L12.6897 18.0245L15.4364 16.434V16.3987L15.366 16.2813C15.3543 16.3635 15.3015 16.4339 15.231 16.475V16.475Z" fill="url(#paint3_linear)"/>
<path fill-rule="evenodd" clip-rule="evenodd" d="M15.231 16.475L12.7543 17.9012C12.7193 17.919 12.6816 17.9309 12.6428 17.9364L12.6897 18.0245L15.4364 16.434V16.3987L15.366 16.2813C15.3543 16.3635 15.3015 16.4339 15.231 16.475V16.475Z" fill="url(#paint4_linear)"/>
</g>
</g>
<defs>
<linearGradient id="paint0_linear" x1="13.6055" y1="12.7373" x2="10.8972" y2="16.9928" gradientUnits="userSpaceOnUse">
<stop stop-color="#41873F"/>
<stop offset="0.3288" stop-color="#418B3D"/>
<stop offset="0.6352" stop-color="#419637"/>
<stop offset="0.9319" stop-color="#3FA92D"/>
<stop offset="1" stop-color="#3FAE2A"/>
</linearGradient>
<linearGradient id="paint1_linear" x1="12.2237" y1="15.1224" x2="19.0065" y2="11.4373" gradientUnits="userSpaceOnUse">
<stop offset="0.1376" stop-color="#41873F"/>
<stop offset="0.4032" stop-color="#54A044"/>
<stop offset="0.7136" stop-color="#66B848"/>
<stop offset="0.9081" stop-color="#6CC04A"/>
</linearGradient>
<linearGradient id="paint2_linear" x1="9.7411" y1="14.7877" x2="15.4587" y2="14.7877" gradientUnits="userSpaceOnUse">
<stop offset="0.09192" stop-color="#6CC04A"/>
<stop offset="0.2864" stop-color="#66B848"/>
<stop offset="0.5968" stop-color="#54A044"/>
<stop offset="0.8624" stop-color="#41873F"/>
</linearGradient>
<linearGradient id="paint3_linear" x1="9.74121" y1="17.1577" x2="15.4587" y2="17.1577" gradientUnits="userSpaceOnUse">
<stop offset="0.09192" stop-color="#6CC04A"/>
<stop offset="0.2864" stop-color="#66B848"/>
<stop offset="0.5968" stop-color="#54A044"/>
<stop offset="0.8624" stop-color="#41873F"/>
</linearGradient>
<linearGradient id="paint4_linear" x1="16.2917" y1="12.6021" x2="14.8432" y2="20.1921" gradientUnits="userSpaceOnUse">
<stop stop-color="#41873F"/>
<stop offset="0.3288" stop-color="#418B3D"/>
<stop offset="0.6352" stop-color="#419637"/>
<stop offset="0.9319" stop-color="#3FA92D"/>
<stop offset="1" stop-color="#3FAE2A"/>
</linearGradient>
<clipPath id="clip0">
<path d="M0 5C0 2.23858 2.23858 0 5 0H102C104.761 0 107 2.23858 107 5V27C107 29.7614 104.761 32 102 32H5C2.23858 32 0 29.7614 0 27V5Z" fill="white"/>
</clipPath>
<clipPath id="clip1">
<rect width="26" height="15.9453" fill="white" transform="translate(3 8)"/>
</clipPath>
</defs>
</svg>
