<svg width="95" height="32" viewBox="0 0 95 32" fill="none" xmlns="http://www.w3.org/2000/svg">
<g clip-path="url(#clip0)">
<path d="M90 0H31V32H90C92.7614 32 95 29.7614 95 27V5C95 2.23858 92.7614 0 90 0Z" fill="white"/>
<path d="M31 0H5C2.23858 0 0 2.23858 0 5V27C0 29.7614 2.23858 32 5 32H31V0Z" fill="#1DA1F2"/>
<path d="M48.5164 22L46.4914 19.075H46.3714H44.2564V22H41.8264V11.5H46.3714C47.3014 11.5 48.1064 11.655 48.7864 11.965C49.4764 12.275 50.0064 12.715 50.3764 13.285C50.7464 13.855 50.9314 14.53 50.9314 15.31C50.9314 16.09 50.7414 16.765 50.3614 17.335C49.9914 17.895 49.4614 18.325 48.7714 18.625L51.1264 22H48.5164ZM48.4714 15.31C48.4714 14.72 48.2814 14.27 47.9014 13.96C47.5214 13.64 46.9664 13.48 46.2364 13.48H44.2564V17.14H46.2364C46.9664 17.14 47.5214 16.98 47.9014 16.66C48.2814 16.34 48.4714 15.89 48.4714 15.31ZM60.7767 17.995C60.7767 18.025 60.7617 18.235 60.7317 18.625H54.6267C54.7367 19.125 54.9967 19.52 55.4067 19.81C55.8167 20.1 56.3267 20.245 56.9367 20.245C57.3567 20.245 57.7267 20.185 58.0467 20.065C58.3767 19.935 58.6817 19.735 58.9617 19.465L60.2067 20.815C59.4467 21.685 58.3367 22.12 56.8767 22.12C55.9667 22.12 55.1617 21.945 54.4617 21.595C53.7617 21.235 53.2217 20.74 52.8417 20.11C52.4617 19.48 52.2717 18.765 52.2717 17.965C52.2717 17.175 52.4567 16.465 52.8267 15.835C53.2067 15.195 53.7217 14.7 54.3717 14.35C55.0317 13.99 55.7667 13.81 56.5767 13.81C57.3667 13.81 58.0817 13.98 58.7217 14.32C59.3617 14.66 59.8617 15.15 60.2217 15.79C60.5917 16.42 60.7767 17.155 60.7767 17.995ZM56.5917 15.58C56.0617 15.58 55.6167 15.73 55.2567 16.03C54.8967 16.33 54.6767 16.74 54.5967 17.26H58.5717C58.4917 16.75 58.2717 16.345 57.9117 16.045C57.5517 15.735 57.1117 15.58 56.5917 15.58ZM65.5498 13.81C66.7998 13.81 67.7598 14.11 68.4298 14.71C69.0998 15.3 69.4348 16.195 69.4348 17.395V22H67.2448V20.995C66.8048 21.745 65.9848 22.12 64.7848 22.12C64.1648 22.12 63.6248 22.015 63.1648 21.805C62.7148 21.595 62.3698 21.305 62.1298 20.935C61.8898 20.565 61.7698 20.145 61.7698 19.675C61.7698 18.925 62.0498 18.335 62.6098 17.905C63.1798 17.475 64.0548 17.26 65.2348 17.26H67.0948C67.0948 16.75 66.9398 16.36 66.6298 16.09C66.3198 15.81 65.8548 15.67 65.2348 15.67C64.8048 15.67 64.3798 15.74 63.9598 15.88C63.5498 16.01 63.1998 16.19 62.9098 16.42L62.0698 14.785C62.5098 14.475 63.0348 14.235 63.6448 14.065C64.2648 13.895 64.8998 13.81 65.5498 13.81ZM65.3698 20.545C65.7698 20.545 66.1248 20.455 66.4348 20.275C66.7448 20.085 66.9648 19.81 67.0948 19.45V18.625H65.4898C64.5298 18.625 64.0498 18.94 64.0498 19.57C64.0498 19.87 64.1648 20.11 64.3948 20.29C64.6348 20.46 64.9598 20.545 65.3698 20.545ZM75.7205 22.12C74.8605 22.12 74.0855 21.945 73.3955 21.595C72.7155 21.235 72.1805 20.74 71.7905 20.11C71.4105 19.48 71.2205 18.765 71.2205 17.965C71.2205 17.165 71.4105 16.45 71.7905 15.82C72.1805 15.19 72.7155 14.7 73.3955 14.35C74.0855 13.99 74.8605 13.81 75.7205 13.81C76.5705 13.81 77.3105 13.99 77.9405 14.35C78.5805 14.7 79.0455 15.205 79.3355 15.865L77.5205 16.84C77.1005 16.1 76.4955 15.73 75.7055 15.73C75.0955 15.73 74.5905 15.93 74.1905 16.33C73.7905 16.73 73.5905 17.275 73.5905 17.965C73.5905 18.655 73.7905 19.2 74.1905 19.6C74.5905 20 75.0955 20.2 75.7055 20.2C76.5055 20.2 77.1105 19.83 77.5205 19.09L79.3355 20.08C79.0455 20.72 78.5805 21.22 77.9405 21.58C77.3105 21.94 76.5705 22.12 75.7205 22.12ZM86.185 21.61C85.955 21.78 85.67 21.91 85.33 22C85 22.08 84.65 22.12 84.28 22.12C83.32 22.12 82.575 21.875 82.045 21.385C81.525 20.895 81.265 20.175 81.265 19.225V15.91H80.02V14.11H81.265V12.145H83.605V14.11H85.615V15.91H83.605V19.195C83.605 19.535 83.69 19.8 83.86 19.99C84.04 20.17 84.29 20.26 84.61 20.26C84.98 20.26 85.295 20.16 85.555 19.96L86.185 21.61Z" fill="black"/>
</g>
<path d="M5 1H90V-1H5V1ZM94 5V27H96V5H94ZM90 31H5V33H90V31ZM1 27V5H-1V27H1ZM5 31C2.79086 31 1 29.2091 1 27H-1C-1 30.3137 1.68629 33 5 33V31ZM94 27C94 29.2091 92.2091 31 90 31V33C93.3137 33 96 30.3137 96 27H94ZM90 1C92.2091 1 94 2.79086 94 5H96C96 1.68629 93.3137 -1 90 -1V1ZM5 -1C1.68629 -1 -1 1.68629 -1 5H1C1 2.79086 2.79086 1 5 1V-1Z" fill="black"/>
<path d="M23.6031 12.8057C23.35 12.7213 23.0969 12.6416 22.8438 12.5666C22.8859 12.3932 22.9234 12.2197 22.9609 12.0463C23.5375 9.25254 23.1578 7.00723 21.8781 6.2666C20.6453 5.55879 18.6344 6.29473 16.6 8.0666C16.3984 8.24004 16.2016 8.42285 16.0141 8.60566C15.8875 8.48379 15.7562 8.36191 15.625 8.24473C13.4922 6.35098 11.3547 5.5541 10.075 6.29941C8.84688 7.01191 8.48125 9.12598 8.99687 11.7697C9.04844 12.0322 9.10469 12.29 9.17031 12.5525C8.87031 12.6369 8.575 12.7307 8.29844 12.8291C5.79531 13.6963 4 15.065 4 16.4807C4 17.9432 5.9125 19.4104 8.51406 20.301C8.725 20.3713 8.93594 20.4416 9.15156 20.5025C9.08125 20.7838 9.02031 21.0604 8.96406 21.3463C8.47188 23.9479 8.85625 26.0104 10.0844 26.7182C11.35 27.4494 13.4781 26.6994 15.55 24.8854C15.7141 24.74 15.8781 24.59 16.0422 24.4307C16.2484 24.6322 16.4641 24.8244 16.6797 25.0119C18.6859 26.7369 20.6688 27.4354 21.8922 26.7275C23.1578 25.9963 23.5703 23.7791 23.0359 21.0791C22.9938 20.8729 22.9469 20.6619 22.8953 20.4463C23.0453 20.4041 23.1906 20.3572 23.3359 20.3104C26.0406 19.415 28 17.9666 28 16.4807C28 15.0604 26.1531 13.6822 23.6031 12.8057V12.8057ZM17.2609 8.82598C19.0047 7.30723 20.6313 6.71191 21.3719 7.13848C22.1641 7.59316 22.4687 9.43066 21.9719 11.8447C21.9391 12.0041 21.9063 12.1588 21.8641 12.3135C20.8234 12.0791 19.7687 11.9104 18.7094 11.8166C18.1 10.9447 17.4344 10.1104 16.7125 9.32754C16.8953 9.1541 17.0734 8.99004 17.2609 8.82598V8.82598ZM11.8375 18.9135C12.0766 19.3213 12.3203 19.7291 12.5781 20.1275C11.8469 20.0479 11.1203 19.9307 10.4031 19.776C10.6094 19.101 10.8672 18.4025 11.1672 17.69C11.3828 18.1025 11.6031 18.5104 11.8375 18.9135V18.9135ZM10.4172 13.2744C11.0922 13.1244 11.8094 13.0025 12.5547 12.9088C12.3062 13.2979 12.0625 13.6963 11.8328 14.0994C11.6031 14.4979 11.3781 14.9057 11.1672 15.3182C10.8719 14.6197 10.6234 13.9354 10.4172 13.2744ZM11.7016 16.5041C12.0109 15.8572 12.3484 15.2244 12.7047 14.601C13.0609 13.9775 13.4453 13.3729 13.8484 12.7775C14.5516 12.726 15.2687 12.6979 16 12.6979C16.7313 12.6979 17.4531 12.726 18.1516 12.7775C18.55 13.3682 18.9297 13.9729 19.2906 14.5916C19.6516 15.2104 19.9891 15.8432 20.3078 16.4854C19.9937 17.1322 19.6562 17.7697 19.2953 18.3979C18.9391 19.0213 18.5594 19.626 18.1609 20.226C17.4625 20.2775 16.7359 20.301 16 20.301C15.2641 20.301 14.5516 20.2775 13.8625 20.2354C13.4547 19.64 13.0703 19.0307 12.7094 18.4072C12.3484 17.7838 12.0156 17.151 11.7016 16.5041ZM20.1672 18.9041C20.4062 18.4916 20.6313 18.0744 20.8516 17.6525C21.1516 18.3322 21.4141 19.0213 21.6437 19.7291C20.9172 19.8932 20.1812 20.0197 19.4406 20.1041C19.6937 19.7104 19.9328 19.3072 20.1672 18.9041ZM20.8422 15.3182C20.6219 14.9057 20.3969 14.4932 20.1625 14.09C19.9328 13.6916 19.6938 13.2979 19.4453 12.9088C20.2 13.0025 20.9219 13.1291 21.5969 13.2838C21.3812 13.9775 21.1281 14.6525 20.8422 15.3182V15.3182ZM16.0094 10.0447C16.5016 10.5791 16.9656 11.1416 17.3969 11.7229C16.4687 11.6807 15.5359 11.6807 14.6078 11.7229C15.0672 11.1182 15.5406 10.5557 16.0094 10.0447ZM10.5719 7.17129C11.3594 6.71191 13.1078 7.36816 14.95 8.99941C15.0672 9.10254 15.1844 9.21504 15.3062 9.32754C14.5797 10.1104 13.9094 10.9447 13.2953 11.8166C12.2359 11.9104 11.1859 12.0744 10.1453 12.3041C10.0844 12.065 10.0328 11.8213 9.98125 11.5775C9.54062 9.30879 9.83125 7.59785 10.5719 7.17129V7.17129ZM9.42344 19.5275C9.22656 19.4713 9.03438 19.4104 8.84219 19.3447C7.84375 19.0307 6.70937 18.5338 5.88906 17.8822C5.41562 17.5541 5.09687 17.0479 5.00781 16.4807C5.00781 15.6229 6.48906 14.526 8.62656 13.7807C8.89375 13.6869 9.16562 13.6025 9.4375 13.5229C9.75625 14.54 10.1406 15.5385 10.5859 16.5041C10.1359 17.4838 9.74687 18.4963 9.42344 19.5275V19.5275ZM14.8891 24.1213C14.1156 24.8291 13.2203 25.3916 12.2453 25.776C11.725 26.0244 11.125 26.0479 10.5906 25.8369C9.84531 25.4057 9.53594 23.751 9.95781 21.5244C10.0094 21.2619 10.0656 20.9994 10.1313 20.7416C11.1813 20.9666 12.2406 21.1213 13.3141 21.201C13.9328 22.0775 14.6125 22.9166 15.3391 23.7041C15.1891 23.8494 15.0391 23.99 14.8891 24.1213ZM16.0375 22.9822C15.5594 22.4666 15.0812 21.8947 14.6172 21.2807C15.0672 21.2994 15.5312 21.3088 16 21.3088C16.4828 21.3088 16.9562 21.2994 17.425 21.276C16.9937 21.8713 16.5297 22.4385 16.0375 22.9822V22.9822ZM22.1641 24.3885C22.1219 24.9604 21.8406 25.4947 21.3906 25.8557C20.6453 26.2869 19.0563 25.7244 17.3406 24.2525C17.1438 24.0838 16.9469 23.901 16.7453 23.7135C17.4625 22.9213 18.1234 22.0822 18.7234 21.201C19.7969 21.1119 20.8656 20.9479 21.9203 20.7088C21.9672 20.901 22.0094 21.0932 22.0469 21.2807C22.2766 22.2932 22.3141 23.3479 22.1641 24.3885V24.3885ZM23.0172 19.3494C22.8859 19.3916 22.7547 19.4338 22.6188 19.4713C22.2906 18.4494 21.8875 17.451 21.4234 16.4807C21.8734 15.5244 22.2531 14.54 22.5719 13.5322C22.8156 13.6025 23.05 13.6775 23.275 13.7525C25.4594 14.5025 26.9922 15.6182 26.9922 16.4713C26.9922 17.39 25.3563 18.576 23.0172 19.3494ZM16 18.6463C17.1859 18.6463 18.1469 17.6854 18.1469 16.4994C18.1469 15.3135 17.1859 14.3525 16 14.3525C14.8141 14.3525 13.8531 15.3135 13.8531 16.4994C13.8531 17.6854 14.8141 18.6463 16 18.6463Z" fill="white"/>
<defs>
<clipPath id="clip0">
<path d="M0 5C0 2.23858 2.23858 0 5 0H90C92.7614 0 95 2.23858 95 5V27C95 29.7614 92.7614 32 90 32H5C2.23857 32 0 29.7614 0 27V5Z" fill="white"/>
</clipPath>
</defs>
</svg>
