<svg width="98" height="32" viewBox="0 0 98 32" fill="none" xmlns="http://www.w3.org/2000/svg">
<g clip-path="url(#clip0)">
<path d="M93 0H31V32H93C95.7614 32 98 29.7614 98 27V5C98 2.23858 95.7614 0 93 0Z" fill="white"/>
<path d="M5 0.5H30.5V31.5H5C2.51472 31.5 0.5 29.4853 0.5 27V5C0.5 2.51472 2.51472 0.5 5 0.5Z" fill="#F6F6F6" stroke="black"/>
<path d="M49.687 16.585H51.907V20.845C51.337 21.275 50.677 21.605 49.927 21.835C49.177 22.065 48.422 22.18 47.662 22.18C46.572 22.18 45.592 21.95 44.722 21.49C43.852 21.02 43.167 20.375 42.667 19.555C42.177 18.725 41.932 17.79 41.932 16.75C41.932 15.71 42.177 14.78 42.667 13.96C43.167 13.13 43.857 12.485 44.737 12.025C45.617 11.555 46.607 11.32 47.707 11.32C48.627 11.32 49.462 11.475 50.212 11.785C50.962 12.095 51.592 12.545 52.102 13.135L50.542 14.575C49.792 13.785 48.887 13.39 47.827 13.39C47.157 13.39 46.562 13.53 46.042 13.81C45.522 14.09 45.117 14.485 44.827 14.995C44.537 15.505 44.392 16.09 44.392 16.75C44.392 17.4 44.537 17.98 44.827 18.49C45.117 19 45.517 19.4 46.027 19.69C46.547 19.97 47.137 20.11 47.797 20.11C48.497 20.11 49.127 19.96 49.687 19.66V16.585ZM64.5143 13.81C65.5243 13.81 66.3243 14.11 66.9143 14.71C67.5143 15.3 67.8143 16.19 67.8143 17.38V22H65.4743V17.74C65.4743 17.1 65.3393 16.625 65.0693 16.315C64.8093 15.995 64.4343 15.835 63.9443 15.835C63.3943 15.835 62.9593 16.015 62.6393 16.375C62.3193 16.725 62.1593 17.25 62.1593 17.95V22H59.8193V17.74C59.8193 16.47 59.3093 15.835 58.2893 15.835C57.7493 15.835 57.3193 16.015 56.9993 16.375C56.6793 16.725 56.5193 17.25 56.5193 17.95V22H54.1793V13.93H56.4143V14.86C56.7143 14.52 57.0793 14.26 57.5093 14.08C57.9493 13.9 58.4293 13.81 58.9493 13.81C59.5193 13.81 60.0343 13.925 60.4943 14.155C60.9543 14.375 61.3243 14.7 61.6043 15.13C61.9343 14.71 62.3493 14.385 62.8493 14.155C63.3593 13.925 63.9143 13.81 64.5143 13.81ZM73.3467 13.81C74.5967 13.81 75.5567 14.11 76.2267 14.71C76.8967 15.3 77.2317 16.195 77.2317 17.395V22H75.0417V20.995C74.6017 21.745 73.7817 22.12 72.5817 22.12C71.9617 22.12 71.4217 22.015 70.9617 21.805C70.5117 21.595 70.1667 21.305 69.9267 20.935C69.6867 20.565 69.5667 20.145 69.5667 19.675C69.5667 18.925 69.8467 18.335 70.4067 17.905C70.9767 17.475 71.8517 17.26 73.0317 17.26H74.8917C74.8917 16.75 74.7367 16.36 74.4267 16.09C74.1167 15.81 73.6517 15.67 73.0317 15.67C72.6017 15.67 72.1767 15.74 71.7567 15.88C71.3467 16.01 70.9967 16.19 70.7067 16.42L69.8667 14.785C70.3067 14.475 70.8317 14.235 71.4417 14.065C72.0617 13.895 72.6967 13.81 73.3467 13.81ZM73.1667 20.545C73.5667 20.545 73.9217 20.455 74.2317 20.275C74.5417 20.085 74.7617 19.81 74.8917 19.45V18.625H73.2867C72.3267 18.625 71.8467 18.94 71.8467 19.57C71.8467 19.87 71.9617 20.11 72.1917 20.29C72.4317 20.46 72.7567 20.545 73.1667 20.545ZM79.5295 13.93H81.8695V22H79.5295V13.93ZM80.6995 12.805C80.2695 12.805 79.9195 12.68 79.6495 12.43C79.3795 12.18 79.2445 11.87 79.2445 11.5C79.2445 11.13 79.3795 10.82 79.6495 10.57C79.9195 10.32 80.2695 10.195 80.6995 10.195C81.1295 10.195 81.4795 10.315 81.7495 10.555C82.0195 10.795 82.1545 11.095 82.1545 11.455C82.1545 11.845 82.0195 12.17 81.7495 12.43C81.4795 12.68 81.1295 12.805 80.6995 12.805ZM84.2213 10.87H86.5613V22H84.2213V10.87Z" fill="black"/>
</g>
<path d="M5 1H93V-1H5V1ZM97 5V27H99V5H97ZM93 31H5V33H93V31ZM1 27V5H-1V27H1ZM5 31C2.79086 31 1 29.2091 1 27H-1C-1 30.3137 1.68629 33 5 33V31ZM97 27C97 29.2091 95.2091 31 93 31V33C96.3137 33 99 30.3137 99 27H97ZM93 1C95.2091 1 97 2.79086 97 5H99C99 1.68629 96.3137 -1 93 -1V1ZM5 -1C1.68629 -1 -1 1.68629 -1 5H1C1 2.79086 2.79086 1 5 1V-1Z" fill="black"/>
<path d="M25 7H7V25H25V7Z" fill="#ECEFF1"/>
<path d="M16 17.8931L25 25.0001V10.9691L16 17.8931Z" fill="#CFD8DC"/>
<path d="M25.75 7H25L16 14.107L7 7H6.25C5.008 7 4 8.008 4 9.25V22.75C4 23.992 5.008 25 6.25 25H7V10.969L16 17.8915L25 10.9675V25H25.75C26.992 25 28 23.992 28 22.75V9.25C28 8.008 26.992 7 25.75 7Z" fill="#F44336"/>
<defs>
<clipPath id="clip0">
<path d="M0 5C0 2.23858 2.23858 0 5 0H93C95.7614 0 98 2.23858 98 5V27C98 29.7614 95.7614 32 93 32H5C2.23857 32 0 29.7614 0 27V5Z" fill="white"/>
</clipPath>
</defs>
</svg>
