<svg width="118" height="32" viewBox="0 0 118 32" fill="none" xmlns="http://www.w3.org/2000/svg">
<g clip-path="url(#clip0)">
<path d="M113 0H31V32H113C115.761 32 118 29.7614 118 27V5C118 2.23858 115.761 0 113 0Z" fill="white"/>
<path d="M31 0H5C2.23858 0 0 2.23858 0 5V27C0 29.7614 2.23858 32 5 32H31V0Z" fill="#004880"/>
<path d="M40.801 11.5H43.231V20.02H48.496V22H40.801V11.5ZM49.8688 13.93H52.2088V22H49.8688V13.93ZM51.0388 12.805C50.6088 12.805 50.2588 12.68 49.9888 12.43C49.7188 12.18 49.5838 11.87 49.5838 11.5C49.5838 11.13 49.7188 10.82 49.9888 10.57C50.2588 10.32 50.6088 10.195 51.0388 10.195C51.4688 10.195 51.8188 10.315 52.0888 10.555C52.3588 10.795 52.4938 11.095 52.4938 11.455C52.4938 11.845 52.3588 12.17 52.0888 12.43C51.8188 12.68 51.4688 12.805 51.0388 12.805ZM59.4655 13.81C60.4655 13.81 61.2705 14.11 61.8805 14.71C62.5005 15.31 62.8105 16.2 62.8105 17.38V22H60.4705V17.74C60.4705 17.1 60.3305 16.625 60.0505 16.315C59.7705 15.995 59.3655 15.835 58.8355 15.835C58.2455 15.835 57.7755 16.02 57.4255 16.39C57.0755 16.75 56.9005 17.29 56.9005 18.01V22H54.5605V13.93H56.7955V14.875C57.1055 14.535 57.4905 14.275 57.9505 14.095C58.4105 13.905 58.9155 13.81 59.4655 13.81ZM68.5766 18.835L67.4516 19.945V22H65.1116V10.87H67.4516V17.17L70.8716 13.93H73.6616L70.3016 17.35L73.9616 22H71.1266L68.5766 18.835ZM82.7474 17.995C82.7474 18.025 82.7324 18.235 82.7024 18.625H76.5974C76.7074 19.125 76.9674 19.52 77.3774 19.81C77.7874 20.1 78.2974 20.245 78.9074 20.245C79.3274 20.245 79.6974 20.185 80.0174 20.065C80.3474 19.935 80.6524 19.735 80.9324 19.465L82.1774 20.815C81.4174 21.685 80.3074 22.12 78.8474 22.12C77.9374 22.12 77.1324 21.945 76.4324 21.595C75.7324 21.235 75.1924 20.74 74.8124 20.11C74.4324 19.48 74.2424 18.765 74.2424 17.965C74.2424 17.175 74.4274 16.465 74.7974 15.835C75.1774 15.195 75.6924 14.7 76.3424 14.35C77.0024 13.99 77.7374 13.81 78.5474 13.81C79.3374 13.81 80.0524 13.98 80.6924 14.32C81.3324 14.66 81.8324 15.15 82.1924 15.79C82.5624 16.42 82.7474 17.155 82.7474 17.995ZM78.5624 15.58C78.0324 15.58 77.5874 15.73 77.2274 16.03C76.8674 16.33 76.6474 16.74 76.5674 17.26H80.5424C80.4624 16.75 80.2424 16.345 79.8824 16.045C79.5224 15.735 79.0824 15.58 78.5624 15.58ZM92.7053 10.87V22H90.4703V21.07C89.8903 21.77 89.0503 22.12 87.9503 22.12C87.1903 22.12 86.5003 21.95 85.8803 21.61C85.2703 21.27 84.7903 20.785 84.4403 20.155C84.0903 19.525 83.9153 18.795 83.9153 17.965C83.9153 17.135 84.0903 16.405 84.4403 15.775C84.7903 15.145 85.2703 14.66 85.8803 14.32C86.5003 13.98 87.1903 13.81 87.9503 13.81C88.9803 13.81 89.7853 14.135 90.3653 14.785V10.87H92.7053ZM88.3553 20.2C88.9453 20.2 89.4353 20 89.8253 19.6C90.2153 19.19 90.4103 18.645 90.4103 17.965C90.4103 17.285 90.2153 16.745 89.8253 16.345C89.4353 15.935 88.9453 15.73 88.3553 15.73C87.7553 15.73 87.2603 15.935 86.8703 16.345C86.4803 16.745 86.2853 17.285 86.2853 17.965C86.2853 18.645 86.4803 19.19 86.8703 19.6C87.2603 20 87.7553 20.2 88.3553 20.2ZM95.216 11.5H97.646V22H95.216V11.5ZM105.058 13.81C106.058 13.81 106.863 14.11 107.473 14.71C108.093 15.31 108.403 16.2 108.403 17.38V22H106.063V17.74C106.063 17.1 105.923 16.625 105.643 16.315C105.363 15.995 104.958 15.835 104.428 15.835C103.838 15.835 103.368 16.02 103.018 16.39C102.668 16.75 102.493 17.29 102.493 18.01V22H100.153V13.93H102.388V14.875C102.698 14.535 103.083 14.275 103.543 14.095C104.003 13.905 104.508 13.81 105.058 13.81Z" fill="black"/>
</g>
<path d="M5 1H113V-1H5V1ZM117 5V27H119V5H117ZM113 31H5V33H113V31ZM1 27V5H-1V27H1ZM5 31C2.79086 31 1 29.2091 1 27H-1C-1 30.3137 1.68629 33 5 33V31ZM117 27C117 29.2091 115.209 31 113 31V33C116.314 33 119 30.3137 119 27H117ZM113 1C115.209 1 117 2.79086 117 5H119C119 1.68629 116.314 -1 113 -1V1ZM5 -1C1.68629 -1 -1 1.68629 -1 5H1C1 2.79086 2.79086 1 5 1V-1Z" fill="black"/>
<path d="M9.92457 27H5.3634V12.3117H9.92457V27ZM7.64153 10.3081C6.18302 10.3081 5 9.10005 5 7.64153C5 6.94095 5.2783 6.26907 5.77369 5.77369C6.26907 5.2783 6.94095 5 7.64153 5C8.34211 5 9.01399 5.2783 9.50938 5.77369C10.0048 6.26907 10.2831 6.94095 10.2831 7.64153C10.2831 9.10005 9.09956 10.3081 7.64153 10.3081ZM26.9956 27H22.4442V19.8498C22.4442 18.1458 22.4099 15.9605 20.0728 15.9605C17.7014 15.9605 17.338 17.8118 17.338 19.7271V27H12.7817V12.3117H17.1563V14.3153H17.2201C17.829 13.1613 19.3165 11.9434 21.5357 11.9434C26.1519 11.9434 27.0005 14.9832 27.0005 18.9315V27H26.9956Z" fill="white"/>
<defs>
<clipPath id="clip0">
<path d="M0 5C0 2.23858 2.23858 0 5 0H113C115.761 0 118 2.23858 118 5V27C118 29.7614 115.761 32 113 32H5C2.23858 32 0 29.7614 0 27V5Z" fill="white"/>
</clipPath>
</defs>
</svg>
