<svg width="157" height="32" viewBox="0 0 157 32" fill="none" xmlns="http://www.w3.org/2000/svg">
<path d="M152 0H31V32H152C154.761 32 157 29.7614 157 27V5C157 2.23858 154.761 0 152 0Z" fill="white"/>
<path d="M31 0H5C2.23858 0 0 2.23858 0 5V27C0 29.7614 2.23858 32 5 32H31V0Z" fill="#F48024"/>
<path d="M5 1H152V-1H5V1ZM156 5V27H158V5H156ZM152 31H5V33H152V31ZM1 27V5H-1V27H1ZM5 31C2.79086 31 1 29.2091 1 27H-1C-1 30.3137 1.68629 33 5 33V31ZM156 27C156 29.2091 154.209 31 152 31V33C155.314 33 158 30.3137 158 27H156ZM152 1C154.209 1 156 2.79086 156 5H158C158 1.68629 155.314 -1 152 -1V1ZM5 -1C1.68629 -1 -1 1.68629 -1 5H1C1 2.79086 2.79086 1 5 1V-1Z" fill="black"/>
<path d="M20.4286 18.9464L9.94464 16.7339L9.50536 18.8393L19.9893 21.0357L20.4286 18.9464ZM23.1607 14.2857L14.9375 7.4125L13.5714 9.0625L21.7946 15.9357L23.1607 14.2857ZM21.4893 16.4125L11.7768 11.875L10.8821 13.8304L20.5893 18.3571L21.4893 16.4125ZM18.8911 4L17.1768 5.28571L23.5679 13.8732L25.2821 12.5875L18.8911 4ZM19.9893 21.5714H9.275V23.6982H19.9893V21.5714ZM22.1161 25.8571H7.14286V19.4286H5V28H24.2589V19.4286H22.1161V25.8571Z" fill="white"/>
<path d="M41.5722 22.18C40.7422 22.18 39.9372 22.07 39.1572 21.85C38.3872 21.62 37.7672 21.325 37.2972 20.965L38.1222 19.135C38.5722 19.465 39.1072 19.73 39.7272 19.93C40.3472 20.13 40.9672 20.23 41.5872 20.23C42.2772 20.23 42.7872 20.13 43.1172 19.93C43.4472 19.72 43.6122 19.445 43.6122 19.105C43.6122 18.855 43.5122 18.65 43.3122 18.49C43.1222 18.32 42.8722 18.185 42.5622 18.085C42.2622 17.985 41.8522 17.875 41.3322 17.755C40.5322 17.565 39.8772 17.375 39.3672 17.185C38.8572 16.995 38.4172 16.69 38.0472 16.27C37.6872 15.85 37.5072 15.29 37.5072 14.59C37.5072 13.98 37.6722 13.43 38.0022 12.94C38.3322 12.44 38.8272 12.045 39.4872 11.755C40.1572 11.465 40.9722 11.32 41.9322 11.32C42.6022 11.32 43.2572 11.4 43.8972 11.56C44.5372 11.72 45.0972 11.95 45.5772 12.25L44.8272 14.095C43.8572 13.545 42.8872 13.27 41.9172 13.27C41.2372 13.27 40.7322 13.38 40.4022 13.6C40.0822 13.82 39.9222 14.11 39.9222 14.47C39.9222 14.83 40.1072 15.1 40.4772 15.28C40.8572 15.45 41.4322 15.62 42.2022 15.79C43.0022 15.98 43.6572 16.17 44.1672 16.36C44.6772 16.55 45.1122 16.85 45.4722 17.26C45.8422 17.67 46.0272 18.225 46.0272 18.925C46.0272 19.525 45.8572 20.075 45.5172 20.575C45.1872 21.065 44.6872 21.455 44.0172 21.745C43.3472 22.035 42.5322 22.18 41.5722 22.18ZM52.9076 21.61C52.6776 21.78 52.3926 21.91 52.0526 22C51.7226 22.08 51.3726 22.12 51.0026 22.12C50.0426 22.12 49.2976 21.875 48.7676 21.385C48.2476 20.895 47.9876 20.175 47.9876 19.225V15.91H46.7426V14.11H47.9876V12.145H50.3276V14.11H52.3376V15.91H50.3276V19.195C50.3276 19.535 50.4126 19.8 50.5826 19.99C50.7626 20.17 51.0126 20.26 51.3326 20.26C51.7026 20.26 52.0176 20.16 52.2776 19.96L52.9076 21.61ZM57.6562 13.81C58.9062 13.81 59.8662 14.11 60.5362 14.71C61.2062 15.3 61.5412 16.195 61.5412 17.395V22H59.3512V20.995C58.9112 21.745 58.0912 22.12 56.8912 22.12C56.2712 22.12 55.7312 22.015 55.2712 21.805C54.8212 21.595 54.4762 21.305 54.2362 20.935C53.9962 20.565 53.8762 20.145 53.8762 19.675C53.8762 18.925 54.1562 18.335 54.7162 17.905C55.2862 17.475 56.1612 17.26 57.3412 17.26H59.2012C59.2012 16.75 59.0462 16.36 58.7362 16.09C58.4262 15.81 57.9612 15.67 57.3412 15.67C56.9112 15.67 56.4862 15.74 56.0662 15.88C55.6562 16.01 55.3062 16.19 55.0162 16.42L54.1762 14.785C54.6162 14.475 55.1412 14.235 55.7512 14.065C56.3712 13.895 57.0062 13.81 57.6562 13.81ZM57.4762 20.545C57.8762 20.545 58.2312 20.455 58.5412 20.275C58.8512 20.085 59.0712 19.81 59.2012 19.45V18.625H57.5962C56.6362 18.625 56.1562 18.94 56.1562 19.57C56.1562 19.87 56.2712 20.11 56.5012 20.29C56.7412 20.46 57.0662 20.545 57.4762 20.545ZM67.8269 22.12C66.9669 22.12 66.1919 21.945 65.5019 21.595C64.8219 21.235 64.2869 20.74 63.8969 20.11C63.5169 19.48 63.3269 18.765 63.3269 17.965C63.3269 17.165 63.5169 16.45 63.8969 15.82C64.2869 15.19 64.8219 14.7 65.5019 14.35C66.1919 13.99 66.9669 13.81 67.8269 13.81C68.6769 13.81 69.4169 13.99 70.0469 14.35C70.6869 14.7 71.1519 15.205 71.4419 15.865L69.6269 16.84C69.2069 16.1 68.6019 15.73 67.8119 15.73C67.2019 15.73 66.6969 15.93 66.2969 16.33C65.8969 16.73 65.6969 17.275 65.6969 17.965C65.6969 18.655 65.8969 19.2 66.2969 19.6C66.6969 20 67.2019 20.2 67.8119 20.2C68.6119 20.2 69.2169 19.83 69.6269 19.09L71.4419 20.08C71.1519 20.72 70.6869 21.22 70.0469 21.58C69.4169 21.94 68.6769 22.12 67.8269 22.12ZM76.3756 18.835L75.2506 19.945V22H72.9106V10.87H75.2506V17.17L78.6706 13.93H81.4606L78.1006 17.35L81.7606 22H78.9256L76.3756 18.835ZM86.4814 22.12C85.6314 22.12 84.8664 21.945 84.1864 21.595C83.5164 21.235 82.9914 20.74 82.6114 20.11C82.2314 19.48 82.0414 18.765 82.0414 17.965C82.0414 17.165 82.2314 16.45 82.6114 15.82C82.9914 15.19 83.5164 14.7 84.1864 14.35C84.8664 13.99 85.6314 13.81 86.4814 13.81C87.3314 13.81 88.0914 13.99 88.7614 14.35C89.4314 14.7 89.9564 15.19 90.3364 15.82C90.7164 16.45 90.9064 17.165 90.9064 17.965C90.9064 18.765 90.7164 19.48 90.3364 20.11C89.9564 20.74 89.4314 21.235 88.7614 21.595C88.0914 21.945 87.3314 22.12 86.4814 22.12ZM86.4814 20.2C87.0814 20.2 87.5714 20 87.9514 19.6C88.3414 19.19 88.5364 18.645 88.5364 17.965C88.5364 17.285 88.3414 16.745 87.9514 16.345C87.5714 15.935 87.0814 15.73 86.4814 15.73C85.8814 15.73 85.3864 15.935 84.9964 16.345C84.6064 16.745 84.4114 17.285 84.4114 17.965C84.4114 18.645 84.6064 19.19 84.9964 19.6C85.3864 20 85.8814 20.2 86.4814 20.2ZM100.441 13.93L97.0357 22H94.6207L91.2307 13.93H93.6457L95.8807 19.42L98.1907 13.93H100.441ZM109.261 17.995C109.261 18.025 109.246 18.235 109.216 18.625H103.111C103.221 19.125 103.481 19.52 103.891 19.81C104.301 20.1 104.811 20.245 105.421 20.245C105.841 20.245 106.211 20.185 106.531 20.065C106.861 19.935 107.166 19.735 107.446 19.465L108.691 20.815C107.931 21.685 106.821 22.12 105.361 22.12C104.451 22.12 103.646 21.945 102.946 21.595C102.246 21.235 101.706 20.74 101.326 20.11C100.946 19.48 100.756 18.765 100.756 17.965C100.756 17.175 100.941 16.465 101.311 15.835C101.691 15.195 102.206 14.7 102.856 14.35C103.516 13.99 104.251 13.81 105.061 13.81C105.851 13.81 106.566 13.98 107.206 14.32C107.846 14.66 108.346 15.15 108.706 15.79C109.076 16.42 109.261 17.155 109.261 17.995ZM105.076 15.58C104.546 15.58 104.101 15.73 103.741 16.03C103.381 16.33 103.161 16.74 103.081 17.26H107.056C106.976 16.75 106.756 16.345 106.396 16.045C106.036 15.735 105.596 15.58 105.076 15.58ZM113.234 14.995C113.514 14.605 113.889 14.31 114.359 14.11C114.839 13.91 115.389 13.81 116.009 13.81V15.97C115.749 15.95 115.574 15.94 115.484 15.94C114.814 15.94 114.289 16.13 113.909 16.51C113.529 16.88 113.339 17.44 113.339 18.19V22H110.999V13.93H113.234V14.995ZM120.423 14.11H122.493V15.91H120.483V22H118.143V15.91H116.898V14.11H118.143V13.75C118.143 12.83 118.413 12.1 118.953 11.56C119.503 11.02 120.273 10.75 121.263 10.75C121.613 10.75 121.943 10.79 122.253 10.87C122.573 10.94 122.838 11.045 123.048 11.185L122.433 12.88C122.163 12.69 121.848 12.595 121.488 12.595C120.778 12.595 120.423 12.985 120.423 13.765V14.11ZM123.663 10.87H126.003V22H123.663V10.87ZM132.206 22.12C131.356 22.12 130.591 21.945 129.911 21.595C129.241 21.235 128.716 20.74 128.336 20.11C127.956 19.48 127.766 18.765 127.766 17.965C127.766 17.165 127.956 16.45 128.336 15.82C128.716 15.19 129.241 14.7 129.911 14.35C130.591 13.99 131.356 13.81 132.206 13.81C133.056 13.81 133.816 13.99 134.486 14.35C135.156 14.7 135.681 15.19 136.061 15.82C136.441 16.45 136.631 17.165 136.631 17.965C136.631 18.765 136.441 19.48 136.061 20.11C135.681 20.74 135.156 21.235 134.486 21.595C133.816 21.945 133.056 22.12 132.206 22.12ZM132.206 20.2C132.806 20.2 133.296 20 133.676 19.6C134.066 19.19 134.261 18.645 134.261 17.965C134.261 17.285 134.066 16.745 133.676 16.345C133.296 15.935 132.806 15.73 132.206 15.73C131.606 15.73 131.111 15.935 130.721 16.345C130.331 16.745 130.136 17.285 130.136 17.965C130.136 18.645 130.331 19.19 130.721 19.6C131.111 20 131.606 20.2 132.206 20.2ZM151.115 13.93L148.19 22H145.94L144.125 16.99L142.25 22H140L137.09 13.93H139.295L141.2 19.39L143.18 13.93H145.16L147.08 19.39L149.045 13.93H151.115Z" fill="black"/>
</svg>
