<svg width="100" height="32" viewBox="0 0 100 32" fill="none" xmlns="http://www.w3.org/2000/svg">
<g clip-path="url(#clip0)">
<path d="M95 0H31V32H95C97.7614 32 100 29.7614 100 27V5C100 2.23858 97.7614 0 95 0Z" fill="white"/>
<path d="M31 0H5C2.23858 0 0 2.23858 0 5V27C0 29.7614 2.23858 32 5 32H31V0Z" fill="url(#paint0_linear)"/>
<path d="M44.8008 22.18C43.9708 22.18 43.1658 22.07 42.3858 21.85C41.6158 21.62 40.9958 21.325 40.5258 20.965L41.3508 19.135C41.8008 19.465 42.3358 19.73 42.9558 19.93C43.5758 20.13 44.1958 20.23 44.8158 20.23C45.5058 20.23 46.0158 20.13 46.3458 19.93C46.6758 19.72 46.8408 19.445 46.8408 19.105C46.8408 18.855 46.7408 18.65 46.5408 18.49C46.3508 18.32 46.1008 18.185 45.7908 18.085C45.4908 17.985 45.0808 17.875 44.5608 17.755C43.7608 17.565 43.1058 17.375 42.5958 17.185C42.0858 16.995 41.6458 16.69 41.2758 16.27C40.9158 15.85 40.7358 15.29 40.7358 14.59C40.7358 13.98 40.9008 13.43 41.2308 12.94C41.5608 12.44 42.0558 12.045 42.7158 11.755C43.3858 11.465 44.2008 11.32 45.1608 11.32C45.8308 11.32 46.4858 11.4 47.1258 11.56C47.7658 11.72 48.3258 11.95 48.8058 12.25L48.0558 14.095C47.0858 13.545 46.1158 13.27 45.1458 13.27C44.4658 13.27 43.9608 13.38 43.6308 13.6C43.3108 13.82 43.1508 14.11 43.1508 14.47C43.1508 14.83 43.3358 15.1 43.7058 15.28C44.0858 15.45 44.6608 15.62 45.4308 15.79C46.2308 15.98 46.8858 16.17 47.3958 16.36C47.9058 16.55 48.3408 16.85 48.7008 17.26C49.0708 17.67 49.2558 18.225 49.2558 18.925C49.2558 19.525 49.0858 20.075 48.7458 20.575C48.4158 21.065 47.9158 21.455 47.2458 21.745C46.5758 22.035 45.7608 22.18 44.8008 22.18ZM56.1363 21.61C55.9063 21.78 55.6213 21.91 55.2812 22C54.9513 22.08 54.6013 22.12 54.2313 22.12C53.2712 22.12 52.5262 21.875 51.9962 21.385C51.4762 20.895 51.2162 20.175 51.2162 19.225V15.91H49.9712V14.11H51.2162V12.145H53.5562V14.11H55.5662V15.91H53.5562V19.195C53.5562 19.535 53.6412 19.8 53.8112 19.99C53.9912 20.17 54.2412 20.26 54.5612 20.26C54.9312 20.26 55.2462 20.16 55.5062 19.96L56.1363 21.61ZM65.2858 17.995C65.2858 18.025 65.2708 18.235 65.2408 18.625H59.1358C59.2458 19.125 59.5058 19.52 59.9158 19.81C60.3258 20.1 60.8358 20.245 61.4458 20.245C61.8658 20.245 62.2358 20.185 62.5558 20.065C62.8858 19.935 63.1908 19.735 63.4708 19.465L64.7158 20.815C63.9558 21.685 62.8458 22.12 61.3858 22.12C60.4758 22.12 59.6708 21.945 58.9708 21.595C58.2708 21.235 57.7308 20.74 57.3508 20.11C56.9708 19.48 56.7808 18.765 56.7808 17.965C56.7808 17.175 56.9658 16.465 57.3358 15.835C57.7158 15.195 58.2308 14.7 58.8808 14.35C59.5408 13.99 60.2758 13.81 61.0858 13.81C61.8758 13.81 62.5908 13.98 63.2308 14.32C63.8708 14.66 64.3708 15.15 64.7308 15.79C65.1008 16.42 65.2858 17.155 65.2858 17.995ZM61.1008 15.58C60.5708 15.58 60.1258 15.73 59.7658 16.03C59.4058 16.33 59.1858 16.74 59.1058 17.26H63.0808C63.0008 16.75 62.7808 16.345 62.4208 16.045C62.0608 15.735 61.6208 15.58 61.1008 15.58ZM70.0589 13.81C71.3089 13.81 72.2689 14.11 72.9389 14.71C73.6089 15.3 73.9439 16.195 73.9439 17.395V22H71.7539V20.995C71.3139 21.745 70.4939 22.12 69.2939 22.12C68.6739 22.12 68.1339 22.015 67.6739 21.805C67.2239 21.595 66.8789 21.305 66.6389 20.935C66.3989 20.565 66.2789 20.145 66.2789 19.675C66.2789 18.925 66.5589 18.335 67.1189 17.905C67.6889 17.475 68.5639 17.26 69.7439 17.26H71.6039C71.6039 16.75 71.4489 16.36 71.1389 16.09C70.8289 15.81 70.3639 15.67 69.7439 15.67C69.3139 15.67 68.8889 15.74 68.4689 15.88C68.0589 16.01 67.7089 16.19 67.4189 16.42L66.5789 14.785C67.0189 14.475 67.5439 14.235 68.1539 14.065C68.7739 13.895 69.4089 13.81 70.0589 13.81ZM69.8789 20.545C70.2789 20.545 70.6339 20.455 70.9439 20.275C71.2539 20.085 71.4739 19.81 71.6039 19.45V18.625H69.9989C69.0389 18.625 68.5589 18.94 68.5589 19.57C68.5589 19.87 68.6739 20.11 68.9039 20.29C69.1439 20.46 69.4689 20.545 69.8789 20.545ZM86.5768 13.81C87.5868 13.81 88.3868 14.11 88.9768 14.71C89.5768 15.3 89.8768 16.19 89.8768 17.38V22H87.5368V17.74C87.5368 17.1 87.4018 16.625 87.1318 16.315C86.8718 15.995 86.4968 15.835 86.0068 15.835C85.4568 15.835 85.0218 16.015 84.7018 16.375C84.3818 16.725 84.2218 17.25 84.2218 17.95V22H81.8818V17.74C81.8818 16.47 81.3718 15.835 80.3518 15.835C79.8118 15.835 79.3818 16.015 79.0618 16.375C78.7418 16.725 78.5818 17.25 78.5818 17.95V22H76.2418V13.93H78.4768V14.86C78.7768 14.52 79.1418 14.26 79.5718 14.08C80.0118 13.9 80.4918 13.81 81.0118 13.81C81.5818 13.81 82.0968 13.925 82.5568 14.155C83.0168 14.375 83.3868 14.7 83.6668 15.13C83.9968 14.71 84.4118 14.385 84.9118 14.155C85.4218 13.925 85.9768 13.81 86.5768 13.81Z" fill="black"/>
</g>
<path d="M5 1H95V-1H5V1ZM99 5V27H101V5H99ZM95 31H5V33H95V31ZM1 27V5H-1V27H1ZM5 31C2.79086 31 1 29.2091 1 27H-1C-1 30.3137 1.68629 33 5 33V31ZM99 27C99 29.2091 97.2091 31 95 31V33C98.3137 33 101 30.3137 101 27H99ZM95 1C97.2091 1 99 2.79086 99 5H101C101 1.68629 98.3137 -1 95 -1V1ZM5 -1C1.68629 -1 -1 1.68629 -1 5H1C1 2.79086 2.79086 1 5 1V-1Z" fill="black"/>
<path d="M25.1875 12.0804C25.1875 13.8911 23.7143 15.3482 21.9196 15.3482C20.1089 15.3482 18.6518 13.8857 18.6518 12.0804C18.6518 10.275 20.1143 8.8125 21.9196 8.8125C23.7143 8.8125 25.1875 10.2696 25.1875 12.0804ZM28 12.0911C28 15.4661 25.2679 18.1875 21.9089 18.1875L16.0536 22.4625C15.8393 24.7661 13.8839 26.5768 11.5268 26.5768C9.35714 26.5768 7.525 25.0339 7.08036 22.9875L4 21.75V16.0018L9.20714 18.1071C10.0161 17.6143 10.9321 17.3946 11.9929 17.4911L15.7964 12.0429C15.8232 8.70536 18.5554 6 21.9036 6C25.2679 6 28 8.73214 28 12.0911ZM14.875 22.0179C14.875 20.1589 13.3857 18.6696 11.5268 18.6696C11.2857 18.6696 11.0446 18.6964 10.8036 18.75L12.1964 19.3125C13.5625 19.8589 14.2321 21.4018 13.6804 22.7679C13.1339 24.1339 11.5804 24.8036 10.2143 24.2411C9.66786 24.0268 9.11607 23.7964 8.56964 23.5875C9.13214 24.6429 10.2411 25.3661 11.5268 25.3661C13.3857 25.3661 14.875 23.8768 14.875 22.0179ZM25.9911 12.0911C25.9911 9.84107 24.1536 8.00893 21.9089 8.00893C19.6429 8.00893 17.8107 9.84107 17.8107 12.0911C17.8107 14.3518 19.6482 16.1732 21.9089 16.1732C24.1536 16.1786 25.9911 14.3571 25.9911 12.0911Z" fill="white"/>
<defs>
<linearGradient id="paint0_linear" x1="15.5" y1="0" x2="15.5" y2="32" gradientUnits="userSpaceOnUse">
<stop stop-color="#0B1B32"/>
<stop offset="0.28125" stop-color="#0C2050"/>
<stop offset="1" stop-color="#1274A5"/>
</linearGradient>
<clipPath id="clip0">
<path d="M0 5C0 2.23858 2.23858 0 5 0H95C97.7614 0 100 2.23858 100 5V27C100 29.7614 97.7614 32 95 32H5C2.23858 32 0 29.7614 0 27V5Z" fill="white"/>
</clipPath>
</defs>
</svg>
