<svg width="93" height="32" viewBox="0 0 93 32" fill="none" xmlns="http://www.w3.org/2000/svg">
<g clip-path="url(#clip0)">
<path d="M88 0H31V32H88C90.7614 32 93 29.7614 93 27V5C93 2.23858 90.7614 0 88 0Z" fill="white"/>
<path d="M31 0H5C2.23858 0 0 2.23858 0 5V27C0 29.7614 2.23858 32 5 32H31V0Z" fill="#107C0D"/>
<path d="M50.3073 22L47.7723 18.355L45.2823 22H42.4923L46.3773 16.66L42.6873 11.5H45.4473L47.8623 14.905L50.2323 11.5H52.8573L49.1973 16.57L53.1123 22H50.3073ZM59.1853 13.81C59.9353 13.81 60.6153 13.985 61.2253 14.335C61.8453 14.675 62.3303 15.16 62.6803 15.79C63.0303 16.41 63.2053 17.135 63.2053 17.965C63.2053 18.795 63.0303 19.525 62.6803 20.155C62.3303 20.775 61.8453 21.26 61.2253 21.61C60.6153 21.95 59.9353 22.12 59.1853 22.12C58.0753 22.12 57.2303 21.77 56.6503 21.07V22H54.4153V10.87H56.7553V14.785C57.3453 14.135 58.1553 13.81 59.1853 13.81ZM58.7803 20.2C59.3803 20.2 59.8703 20 60.2503 19.6C60.6403 19.19 60.8353 18.645 60.8353 17.965C60.8353 17.285 60.6403 16.745 60.2503 16.345C59.8703 15.935 59.3803 15.73 58.7803 15.73C58.1803 15.73 57.6853 15.935 57.2953 16.345C56.9153 16.745 56.7253 17.285 56.7253 17.965C56.7253 18.645 56.9153 19.19 57.2953 19.6C57.6853 20 58.1803 20.2 58.7803 20.2ZM68.7917 22.12C67.9417 22.12 67.1767 21.945 66.4967 21.595C65.8267 21.235 65.3017 20.74 64.9217 20.11C64.5417 19.48 64.3517 18.765 64.3517 17.965C64.3517 17.165 64.5417 16.45 64.9217 15.82C65.3017 15.19 65.8267 14.7 66.4967 14.35C67.1767 13.99 67.9417 13.81 68.7917 13.81C69.6417 13.81 70.4017 13.99 71.0717 14.35C71.7417 14.7 72.2667 15.19 72.6467 15.82C73.0267 16.45 73.2167 17.165 73.2167 17.965C73.2167 18.765 73.0267 19.48 72.6467 20.11C72.2667 20.74 71.7417 21.235 71.0717 21.595C70.4017 21.945 69.6417 22.12 68.7917 22.12ZM68.7917 20.2C69.3917 20.2 69.8817 20 70.2617 19.6C70.6517 19.19 70.8467 18.645 70.8467 17.965C70.8467 17.285 70.6517 16.745 70.2617 16.345C69.8817 15.935 69.3917 15.73 68.7917 15.73C68.1917 15.73 67.6967 15.935 67.3067 16.345C66.9167 16.745 66.7217 17.285 66.7217 17.965C66.7217 18.645 66.9167 19.19 67.3067 19.6C67.6967 20 68.1917 20.2 68.7917 20.2ZM79.8418 22L78.0718 19.525L76.2418 22H73.6918L76.7968 17.935L73.7968 13.93H76.4218L78.1318 16.285L79.8868 13.93H82.3768L79.3768 17.875L82.4968 22H79.8418Z" fill="black"/>
</g>
<path d="M5 1H88V-1H5V1ZM92 5V27H94V5H92ZM88 31H5V33H88V31ZM1 27V5H-1V27H1ZM5 31C2.79086 31 1 29.2091 1 27H-1C-1 30.3137 1.68629 33 5 33V31ZM92 27C92 29.2091 90.2091 31 88 31V33C91.3137 33 94 30.3137 94 27H92ZM88 1C90.2091 1 92 2.79086 92 5H94C94 1.68629 91.3137 -1 88 -1V1ZM5 -1C1.68629 -1 -1 1.68629 -1 5H1C1 2.79086 2.79086 1 5 1V-1Z" fill="black"/>
<path d="M21.5062 19.0095C23.6494 21.6365 24.6364 23.7894 24.1381 24.7521C23.7559 25.4826 21.395 26.9098 19.6582 27.4565C18.2262 27.9064 16.349 28.0999 14.8009 27.9499C12.9528 27.7709 11.0806 27.1082 9.4744 26.0632C8.12462 25.1827 7.81984 24.8198 7.81984 24.099C7.81984 22.6524 9.4115 20.1174 12.1352 17.2243C13.6834 15.5843 15.8362 13.6588 16.0733 13.712C16.5281 13.8136 20.1516 17.3453 21.5062 19.0095V19.0095ZM12.7351 10.5722C11.2983 9.27083 9.92432 7.96459 8.5552 7.50499C7.81984 7.25826 7.76662 7.27278 7.16672 7.89686C5.75406 9.36758 4.57845 11.7527 4.24947 13.8184C3.98822 15.473 3.95436 15.9374 4.04628 16.7454C4.3172 19.1885 4.88323 20.8769 6.00563 22.5944C6.46523 23.3007 6.59101 23.4313 6.45555 23.0733C6.25236 22.5412 6.44104 21.2591 6.91515 19.9771C7.60697 18.0903 9.52278 14.5151 12.7351 10.5722V10.5722ZM27.81 13.6443C26.9924 9.77397 24.5444 7.34051 24.201 7.34051C23.8478 7.34051 23.0302 7.65497 22.4593 8.01297C21.3321 8.71447 20.4758 9.53207 19.3485 10.5674C21.3998 13.146 24.2929 17.3114 25.2943 20.3544C25.6233 21.3559 25.7636 22.3428 25.6523 22.8847C25.5701 23.2959 25.5701 23.2959 25.7201 23.1072C26.0152 22.7347 26.6828 21.5929 26.9489 21.0027C27.3069 20.219 27.6746 19.0579 27.8487 18.1629C28.0568 17.0744 28.0374 14.7376 27.81 13.6443V13.6443ZM10.4468 5.69562C12.7545 5.57467 15.754 7.3647 15.9765 7.40824C16.0104 7.41307 16.4797 7.20504 17.0215 6.93896C20.1129 5.43437 21.5691 5.69078 22.2174 5.71981C19.126 3.81852 14.8299 3.30086 10.9016 5.15378C9.76951 5.69078 9.74048 5.72949 10.4468 5.69562Z" fill="white"/>
<defs>
<clipPath id="clip0">
<path d="M0 5C0 2.23858 2.23858 0 5 0H88C90.7614 0 93 2.23858 93 5V27C93 29.7614 90.7614 32 88 32H5C2.23858 32 0 29.7614 0 27V5Z" fill="white"/>
</clipPath>
</defs>
</svg>
