<svg width="92" height="32" viewBox="0 0 92 32" fill="none" xmlns="http://www.w3.org/2000/svg">
<g clip-path="url(#clip0)">
<path d="M87 0H31V32H87C89.7614 32 92 29.7614 92 27V5C92 2.23858 89.7614 0 87 0Z" fill="white"/>
<path d="M31 0H5C2.23858 0 0 2.23858 0 5V27C0 29.7614 2.23858 32 5 32H31V0Z" fill="#3C92C7"/>
<path d="M47.2266 22.18C46.1566 22.18 45.1866 21.95 44.3166 21.49C43.4566 21.02 42.7766 20.375 42.2766 19.555C41.7866 18.725 41.5416 17.79 41.5416 16.75C41.5416 15.71 41.7866 14.78 42.2766 13.96C42.7766 13.13 43.4566 12.485 44.3166 12.025C45.1866 11.555 46.1616 11.32 47.2416 11.32C48.1516 11.32 48.9716 11.48 49.7016 11.8C50.4416 12.12 51.0616 12.58 51.5616 13.18L50.0016 14.62C49.2916 13.8 48.4116 13.39 47.3616 13.39C46.7116 13.39 46.1316 13.535 45.6216 13.825C45.1116 14.105 44.7116 14.5 44.4216 15.01C44.1416 15.52 44.0016 16.1 44.0016 16.75C44.0016 17.4 44.1416 17.98 44.4216 18.49C44.7116 19 45.1116 19.4 45.6216 19.69C46.1316 19.97 46.7116 20.11 47.3616 20.11C48.4116 20.11 49.2916 19.695 50.0016 18.865L51.5616 20.305C51.0616 20.915 50.4416 21.38 49.7016 21.7C48.9616 22.02 48.1366 22.18 47.2266 22.18ZM56.7446 22.18C55.9146 22.18 55.1096 22.07 54.3296 21.85C53.5596 21.62 52.9396 21.325 52.4696 20.965L53.2946 19.135C53.7446 19.465 54.2796 19.73 54.8996 19.93C55.5196 20.13 56.1396 20.23 56.7596 20.23C57.4496 20.23 57.9596 20.13 58.2896 19.93C58.6196 19.72 58.7846 19.445 58.7846 19.105C58.7846 18.855 58.6846 18.65 58.4846 18.49C58.2946 18.32 58.0446 18.185 57.7346 18.085C57.4346 17.985 57.0246 17.875 56.5046 17.755C55.7046 17.565 55.0496 17.375 54.5396 17.185C54.0296 16.995 53.5896 16.69 53.2196 16.27C52.8596 15.85 52.6796 15.29 52.6796 14.59C52.6796 13.98 52.8446 13.43 53.1746 12.94C53.5046 12.44 53.9996 12.045 54.6596 11.755C55.3296 11.465 56.1446 11.32 57.1046 11.32C57.7746 11.32 58.4296 11.4 59.0696 11.56C59.7096 11.72 60.2696 11.95 60.7496 12.25L59.9996 14.095C59.0296 13.545 58.0596 13.27 57.0896 13.27C56.4096 13.27 55.9046 13.38 55.5746 13.6C55.2546 13.82 55.0946 14.11 55.0946 14.47C55.0946 14.83 55.2796 15.1 55.6496 15.28C56.0296 15.45 56.6046 15.62 57.3746 15.79C58.1746 15.98 58.8296 16.17 59.3396 16.36C59.8496 16.55 60.2846 16.85 60.6446 17.26C61.0146 17.67 61.1996 18.225 61.1996 18.925C61.1996 19.525 61.0296 20.075 60.6896 20.575C60.3596 21.065 59.8596 21.455 59.1896 21.745C58.5196 22.035 57.7046 22.18 56.7446 22.18ZM66.4901 22.18C65.6601 22.18 64.8551 22.07 64.0751 21.85C63.3051 21.62 62.6851 21.325 62.2151 20.965L63.0401 19.135C63.4901 19.465 64.0251 19.73 64.6451 19.93C65.2651 20.13 65.8851 20.23 66.5051 20.23C67.1951 20.23 67.7051 20.13 68.0351 19.93C68.3651 19.72 68.5301 19.445 68.5301 19.105C68.5301 18.855 68.4301 18.65 68.2301 18.49C68.0401 18.32 67.7901 18.185 67.4801 18.085C67.1801 17.985 66.7701 17.875 66.2501 17.755C65.4501 17.565 64.7951 17.375 64.2851 17.185C63.7751 16.995 63.3351 16.69 62.9651 16.27C62.6051 15.85 62.4251 15.29 62.4251 14.59C62.4251 13.98 62.5901 13.43 62.9201 12.94C63.2501 12.44 63.7451 12.045 64.4051 11.755C65.0751 11.465 65.8901 11.32 66.8501 11.32C67.5201 11.32 68.1751 11.4 68.8151 11.56C69.4551 11.72 70.0151 11.95 70.4951 12.25L69.7451 14.095C68.7751 13.545 67.8051 13.27 66.8351 13.27C66.1551 13.27 65.6501 13.38 65.3201 13.6C65.0001 13.82 64.8401 14.11 64.8401 14.47C64.8401 14.83 65.0251 15.1 65.3951 15.28C65.7751 15.45 66.3501 15.62 67.1201 15.79C67.9201 15.98 68.5751 16.17 69.0851 16.36C69.5951 16.55 70.0301 16.85 70.3901 17.26C70.7601 17.67 70.9451 18.225 70.9451 18.925C70.9451 19.525 70.7751 20.075 70.4351 20.575C70.1051 21.065 69.6051 21.455 68.9351 21.745C68.2651 22.035 67.4501 22.18 66.4901 22.18ZM77.9905 15.76C78.9605 15.91 79.7005 16.255 80.2105 16.795C80.7305 17.325 80.9905 17.99 80.9905 18.79C80.9905 19.4 80.8255 19.965 80.4955 20.485C80.1655 20.995 79.6605 21.405 78.9805 21.715C78.3105 22.025 77.4805 22.18 76.4905 22.18C75.6405 22.18 74.8405 22.075 74.0905 21.865C73.3405 21.655 72.7255 21.365 72.2455 20.995L73.2505 19.135C74.1605 19.805 75.2255 20.14 76.4455 20.14C77.1155 20.14 77.6305 20.025 77.9905 19.795C78.3605 19.555 78.5455 19.22 78.5455 18.79C78.5455 18.38 78.3705 18.065 78.0205 17.845C77.6805 17.615 77.1605 17.5 76.4605 17.5H75.2755V15.895L77.5705 13.45H72.6505V11.5H80.5105V13.075L77.9905 15.76Z" fill="black"/>
</g>
<path d="M5 1H87V-1H5V1ZM91 5V27H93V5H91ZM87 31H5V33H87V31ZM1 27V5H-1V27H1ZM5 31C2.79086 31 1 29.2091 1 27H-1C-1 30.3137 1.68629 33 5 33V31ZM91 27C91 29.2091 89.2091 31 87 31V33C90.3137 33 93 30.3137 93 27H91ZM87 1C89.2091 1 91 2.79086 91 5H93C93 1.68629 90.3137 -1 87 -1V1ZM5 -1C1.68629 -1 -1 1.68629 -1 5H1C1 2.79086 2.79086 1 5 1V-1Z" fill="black"/>
<path d="M24.1248 25.6034L15.9999 27.8225L7.87491 25.6034L6 5H26L24.1248 25.6034Z" fill="white"/>
<path d="M15.9999 6.66879V26.0525L16.0183 26.0577L22.5934 24.2618L24.111 6.66879H15.9999Z" fill="white"/>
<path d="M15.9926 11.8205L10.1774 14.2771L10.3703 16.7093L15.9926 14.2709L21.9734 11.6773L22.2214 9.18915L15.9926 11.8205Z" fill="#3C9CD7"/>
<path d="M10.1773 14.2773L10.3702 16.7096L15.9926 14.2712V11.8207L10.1773 14.2773Z" fill="#3C9CD7"/>
<path d="M22.2214 9.18938L15.9926 11.8207V14.2711L21.9734 11.6774L22.2214 9.18938Z" fill="#3C9CD7"/>
<path d="M10.1862 14.2772L10.3792 16.7095L19.006 16.7373L18.813 19.9803L15.9743 20.7909L13.2455 20.092L13.0801 18.0792H10.5445L10.8753 21.965L16.0018 23.5026L21.1007 21.993L21.7622 14.2772H10.1862Z" fill="#3C9CD7"/>
<path d="M15.9926 14.2772H10.1774L10.3703 16.7095L15.9926 16.7276V14.2772ZM15.9926 20.7832L15.9651 20.7909L13.2366 20.0921L13.0713 18.0792H10.5357L10.8664 21.9651L15.9926 23.5027V20.7832Z" fill="#3C9CD7"/>
<path d="M9.65366 9.18938H22.2214L21.9734 11.6775H9.9568L9.65366 9.18938Z" fill="#3C9CD7"/>
<path opacity="0.05" d="M15.9926 9.18938H9.65366L9.9568 11.6775H15.9926V9.18938Z" fill="#3C9CD7"/>
<defs>
<clipPath id="clip0">
<path d="M0 5C0 2.23858 2.23858 0 5 0H87C89.7614 0 92 2.23858 92 5V27C92 29.7614 89.7614 32 87 32H5C2.23858 32 0 29.7614 0 27V5Z" fill="white"/>
</clipPath>
</defs>
</svg>
