<svg width="100" height="32" viewBox="0 0 100 32" fill="none" xmlns="http://www.w3.org/2000/svg">
<g clip-path="url(#clip0)">
<path d="M95 0H31V32H95C97.7614 32 100 29.7614 100 27V5C100 2.23858 97.7614 0 95 0Z" fill="white"/>
<path d="M31 0H5C2.23858 0 0 2.23858 0 5V27C0 29.7614 2.23858 32 5 32H31V0Z" fill="#E44D26"/>
<path d="M53.7222 11.5V22H51.2922V17.695H46.5222V22H44.0922V11.5H46.5222V15.64H51.2922V11.5H53.7222ZM58.5614 13.48H55.2014V11.5H64.3514V13.48H60.9914V22H58.5614V13.48ZM75.3939 22L75.3789 15.7L72.2889 20.89H71.1939L68.1189 15.835V22H65.8389V11.5H67.8489L71.7789 18.025L75.6489 11.5H77.6439L77.6739 22H75.3939ZM80.3451 11.5H82.7751V20.02H88.0401V22H80.3451V11.5Z" fill="black"/>
</g>
<path d="M5 1H95V-1H5V1ZM99 5V27H101V5H99ZM95 31H5V33H95V31ZM1 27V5H-1V27H1ZM5 31C2.79086 31 1 29.2091 1 27H-1C-1 30.3137 1.68629 33 5 33V31ZM99 27C99 29.2091 97.2091 31 95 31V33C98.3137 33 101 30.3137 101 27H99ZM95 1C97.2091 1 99 2.79086 99 5H101C101 1.68629 98.3137 -1 95 -1V1ZM5 -1C1.68629 -1 -1 1.68629 -1 5H1C1 2.79086 2.79086 1 5 1V-1Z" fill="black"/>
<path d="M6 5L7.81771 25.6146L15.974 28.3333L24.1823 25.6146L26 5H6ZM22.0521 11.6615H12.4792L12.6927 14.2344H21.8385L21.1302 21.9635L16.0313 23.3698V23.3854H15.974L10.8333 21.9635L10.5208 18.0156H13.0052L13.1875 20L15.974 20.7552L18.7708 20L19.0833 16.7604H10.3906L9.72396 9.17708H22.2812L22.0521 11.6615V11.6615Z" fill="white"/>
<defs>
<clipPath id="clip0">
<path d="M0 5C0 2.23858 2.23858 0 5 0H95C97.7614 0 100 2.23858 100 5V27C100 29.7614 97.7614 32 95 32H5C2.23858 32 0 29.7614 0 27V5Z" fill="white"/>
</clipPath>
</defs>
</svg>
