<svg width="130" height="32" viewBox="0 0 130 32" fill="none" xmlns="http://www.w3.org/2000/svg">
<path d="M125 0H31V32H125C127.761 32 130 29.7614 130 27V5C130 2.23858 127.761 0 125 0Z" fill="white"/>
<path d="M31 0H5C2.23858 0 0 2.23858 0 5V27C0 29.7614 2.23858 32 5 32H31V0Z" fill="#F1C731"/>
<path d="M42.1693 22.18C41.4593 22.18 40.8043 22.05 40.2043 21.79C39.6143 21.52 39.1293 21.14 38.7493 20.65L40.0993 19.03C40.6693 19.8 41.3193 20.185 42.0493 20.185C43.0393 20.185 43.5343 19.605 43.5343 18.445V13.45H39.8443V11.5H45.9493V18.31C45.9493 19.6 45.6293 20.57 44.9893 21.22C44.3493 21.86 43.4093 22.18 42.1693 22.18ZM51.6195 13.81C52.8696 13.81 53.8296 14.11 54.4996 14.71C55.1696 15.3 55.5046 16.195 55.5046 17.395V22H53.3145V20.995C52.8745 21.745 52.0545 22.12 50.8545 22.12C50.2345 22.12 49.6945 22.015 49.2345 21.805C48.7845 21.595 48.4395 21.305 48.1995 20.935C47.9595 20.565 47.8395 20.145 47.8395 19.675C47.8395 18.925 48.1195 18.335 48.6795 17.905C49.2495 17.475 50.1245 17.26 51.3045 17.26H53.1646C53.1646 16.75 53.0096 16.36 52.6996 16.09C52.3896 15.81 51.9245 15.67 51.3045 15.67C50.8745 15.67 50.4495 15.74 50.0295 15.88C49.6195 16.01 49.2695 16.19 48.9795 16.42L48.1395 14.785C48.5795 14.475 49.1045 14.235 49.7145 14.065C50.3345 13.895 50.9695 13.81 51.6195 13.81ZM51.4395 20.545C51.8395 20.545 52.1945 20.455 52.5046 20.275C52.8145 20.085 53.0345 19.81 53.1646 19.45V18.625H51.5596C50.5995 18.625 50.1195 18.94 50.1195 19.57C50.1195 19.87 50.2345 20.11 50.4645 20.29C50.7045 20.46 51.0295 20.545 51.4395 20.545ZM65.6659 13.93L62.2609 22H59.8459L56.4559 13.93H58.8709L61.1059 19.42L63.4159 13.93H65.6659ZM69.7921 13.81C71.0421 13.81 72.0021 14.11 72.6721 14.71C73.3421 15.3 73.6771 16.195 73.6771 17.395V22H71.4871V20.995C71.0471 21.745 70.2271 22.12 69.0271 22.12C68.4071 22.12 67.8671 22.015 67.4071 21.805C66.9571 21.595 66.6121 21.305 66.3721 20.935C66.1321 20.565 66.0121 20.145 66.0121 19.675C66.0121 18.925 66.2921 18.335 66.8521 17.905C67.4221 17.475 68.2971 17.26 69.4771 17.26H71.3371C71.3371 16.75 71.1821 16.36 70.8721 16.09C70.5621 15.81 70.0971 15.67 69.4771 15.67C69.0471 15.67 68.6221 15.74 68.2021 15.88C67.7921 16.01 67.4421 16.19 67.1521 16.42L66.3121 14.785C66.7521 14.475 67.2771 14.235 67.8871 14.065C68.5071 13.895 69.1421 13.81 69.7921 13.81ZM69.6121 20.545C70.0121 20.545 70.3671 20.455 70.6771 20.275C70.9871 20.085 71.2071 19.81 71.3371 19.45V18.625H69.7321C68.7721 18.625 68.2921 18.94 68.2921 19.57C68.2921 19.87 68.4071 20.11 68.6371 20.29C68.8771 20.46 69.2021 20.545 69.6121 20.545ZM79.5899 22.18C78.7599 22.18 77.9549 22.07 77.1749 21.85C76.4049 21.62 75.7849 21.325 75.3149 20.965L76.1399 19.135C76.5899 19.465 77.1249 19.73 77.7449 19.93C78.3649 20.13 78.9849 20.23 79.6049 20.23C80.2949 20.23 80.8049 20.13 81.1349 19.93C81.4649 19.72 81.6299 19.445 81.6299 19.105C81.6299 18.855 81.5299 18.65 81.3299 18.49C81.1399 18.32 80.8899 18.185 80.5799 18.085C80.2799 17.985 79.8699 17.875 79.3499 17.755C78.5499 17.565 77.8949 17.375 77.3849 17.185C76.8749 16.995 76.4349 16.69 76.0649 16.27C75.7049 15.85 75.5249 15.29 75.5249 14.59C75.5249 13.98 75.6899 13.43 76.0199 12.94C76.3499 12.44 76.8449 12.045 77.5049 11.755C78.1749 11.465 78.9899 11.32 79.9499 11.32C80.6199 11.32 81.2749 11.4 81.9149 11.56C82.5549 11.72 83.1149 11.95 83.5949 12.25L82.8449 14.095C81.8749 13.545 80.9049 13.27 79.9349 13.27C79.2549 13.27 78.7499 13.38 78.4199 13.6C78.0999 13.82 77.9399 14.11 77.9399 14.47C77.9399 14.83 78.1249 15.1 78.4949 15.28C78.8749 15.45 79.4499 15.62 80.2199 15.79C81.0199 15.98 81.6749 16.17 82.1849 16.36C82.6949 16.55 83.1299 16.85 83.4899 17.26C83.8599 17.67 84.0449 18.225 84.0449 18.925C84.0449 19.525 83.8749 20.075 83.5349 20.575C83.2049 21.065 82.7049 21.455 82.0349 21.745C81.3649 22.035 80.5499 22.18 79.5899 22.18ZM89.6203 22.12C88.7603 22.12 87.9853 21.945 87.2953 21.595C86.6153 21.235 86.0803 20.74 85.6903 20.11C85.3103 19.48 85.1203 18.765 85.1203 17.965C85.1203 17.165 85.3103 16.45 85.6903 15.82C86.0803 15.19 86.6153 14.7 87.2953 14.35C87.9853 13.99 88.7603 13.81 89.6203 13.81C90.4703 13.81 91.2103 13.99 91.8403 14.35C92.4803 14.7 92.9453 15.205 93.2353 15.865L91.4203 16.84C91.0003 16.1 90.3953 15.73 89.6053 15.73C88.9953 15.73 88.4903 15.93 88.0903 16.33C87.6903 16.73 87.4903 17.275 87.4903 17.965C87.4903 18.655 87.6903 19.2 88.0903 19.6C88.4903 20 88.9953 20.2 89.6053 20.2C90.4053 20.2 91.0103 19.83 91.4203 19.09L93.2353 20.08C92.9453 20.72 92.4803 21.22 91.8403 21.58C91.2103 21.94 90.4703 22.12 89.6203 22.12ZM96.9976 14.995C97.2776 14.605 97.6526 14.31 98.1226 14.11C98.6026 13.91 99.1526 13.81 99.7726 13.81V15.97C99.5126 15.95 99.3376 15.94 99.2476 15.94C98.5776 15.94 98.0526 16.13 97.6726 16.51C97.2926 16.88 97.1026 17.44 97.1026 18.19V22H94.7626V13.93H96.9976V14.995ZM101.344 13.93H103.684V22H101.344V13.93ZM102.514 12.805C102.084 12.805 101.734 12.68 101.464 12.43C101.194 12.18 101.059 11.87 101.059 11.5C101.059 11.13 101.194 10.82 101.464 10.57C101.734 10.32 102.084 10.195 102.514 10.195C102.944 10.195 103.294 10.315 103.564 10.555C103.834 10.795 103.969 11.095 103.969 11.455C103.969 11.845 103.834 12.17 103.564 12.43C103.294 12.68 102.944 12.805 102.514 12.805ZM110.806 13.81C111.556 13.81 112.236 13.985 112.846 14.335C113.466 14.675 113.951 15.16 114.301 15.79C114.651 16.41 114.826 17.135 114.826 17.965C114.826 18.795 114.651 19.525 114.301 20.155C113.951 20.775 113.466 21.26 112.846 21.61C112.236 21.95 111.556 22.12 110.806 22.12C109.776 22.12 108.966 21.795 108.376 21.145V24.91H106.036V13.93H108.271V14.86C108.851 14.16 109.696 13.81 110.806 13.81ZM110.401 20.2C111.001 20.2 111.491 20 111.871 19.6C112.261 19.19 112.456 18.645 112.456 17.965C112.456 17.285 112.261 16.745 111.871 16.345C111.491 15.935 111.001 15.73 110.401 15.73C109.801 15.73 109.306 15.935 108.916 16.345C108.536 16.745 108.346 17.285 108.346 17.965C108.346 18.645 108.536 19.19 108.916 19.6C109.306 20 109.801 20.2 110.401 20.2ZM121.777 21.61C121.547 21.78 121.262 21.91 120.922 22C120.592 22.08 120.242 22.12 119.872 22.12C118.912 22.12 118.167 21.875 117.637 21.385C117.117 20.895 116.857 20.175 116.857 19.225V15.91H115.612V14.11H116.857V12.145H119.197V14.11H121.207V15.91H119.197V19.195C119.197 19.535 119.282 19.8 119.452 19.99C119.632 20.17 119.882 20.26 120.202 20.26C120.572 20.26 120.887 20.16 121.147 19.96L121.777 21.61Z" fill="black"/>
<path d="M5 1H125V-1H5V1ZM129 5V27H131V5H129ZM125 31H5V33H125V31ZM1 27V5H-1V27H1ZM5 31C2.79086 31 1 29.2091 1 27H-1C-1 30.3137 1.6863 33 5 33V31ZM129 27C129 29.2091 127.209 31 125 31V33C128.314 33 131 30.3137 131 27H129ZM125 1C127.209 1 129 2.79086 129 5H131C131 1.68629 128.314 -1 125 -1V1ZM5 -1C1.68629 -1 -1 1.68629 -1 5H1C1 2.79086 2.79086 1 5 1V-1Z" fill="black"/>
<path d="M23.1485 13.3997C21.9464 13.4951 20.9384 13.9276 20.1879 14.6718C19.4151 15.4382 19.0462 16.3731 19.0462 17.5593C19.0462 19.3338 19.7744 20.574 21.3995 21.5567C21.8129 21.8048 22.3758 22.0751 23.3489 22.4948C24.675 23.0641 25.1679 23.3344 25.4827 23.6715C25.8707 24.0881 25.9788 24.7527 25.7339 25.2615C25.6862 25.3601 25.5622 25.5255 25.4509 25.6368C25.0757 26.0152 24.4842 26.2156 23.7496 26.2156C22.5093 26.2156 21.5839 25.7067 20.8398 24.6064C20.738 24.4601 20.6458 24.3393 20.6331 24.3393C20.6044 24.3393 18.1844 25.7354 18.1335 25.7831C18.1017 25.8117 18.1271 25.8785 18.2512 26.082C19.2179 27.7102 20.7285 28.6642 22.7701 28.9377C23.3043 29.0109 24.3061 29.0077 24.8181 28.9377C26.1028 28.7565 27.0664 28.3303 27.8137 27.6053C28.6088 26.8389 28.9999 25.8467 28.9999 24.6032C28.9999 23.8082 28.8695 23.1881 28.5738 22.5743C28.3702 22.1546 28.1667 21.8715 27.8169 21.5154C27.1459 20.8348 26.2777 20.3196 24.5446 19.5755C23.2344 19.0126 22.7955 18.7709 22.5061 18.4625C22.2295 18.1667 22.1118 17.8201 22.1373 17.3876C22.1595 17.0441 22.2549 16.812 22.4648 16.5862C22.7669 16.2586 23.1167 16.1219 23.6573 16.1251C24.2711 16.1251 24.6686 16.2841 25.0725 16.6911C25.2156 16.8311 25.4 17.0568 25.4859 17.1936C25.5845 17.3494 25.6576 17.4353 25.6831 17.4257C25.7657 17.3908 28.0777 15.8961 28.0777 15.8738C28.0777 15.8611 27.96 15.6767 27.8169 15.4604C27.5116 15.0025 26.9615 14.4301 26.583 14.1788C25.8834 13.7146 25.1361 13.476 24.1503 13.4029C23.6669 13.3647 23.6033 13.3647 23.1485 13.3997Z" fill="black"/>
<path d="M13.2489 19.1779L13.2394 24.8004L13.1694 25.0643C13.0772 25.411 12.9691 25.6177 12.7783 25.8085C12.5111 26.0756 12.1677 26.1869 11.5953 26.1901C10.778 26.1933 10.2882 25.8466 9.71899 24.8735C9.62677 24.7209 9.54409 24.5968 9.53455 24.6C9.52183 24.6064 8.94623 24.953 8.25614 25.3696L7 26.1328L7.0954 26.3236C7.66464 27.4589 8.65048 28.3176 9.83666 28.7119C11.0896 29.1285 12.6988 29.0903 13.8786 28.6165C15.2937 28.0441 16.1237 26.8611 16.3432 25.1025C16.3622 24.9244 16.375 22.9368 16.375 19.197V13.5587H14.8167H13.2616L13.2489 19.1779Z" fill="black"/>
</svg>
