<svg width="86" height="32" viewBox="0 0 86 32" fill="none" xmlns="http://www.w3.org/2000/svg">
<g clip-path="url(#clip0)">
<path d="M81 0H31V32H81C83.7614 32 86 29.7614 86 27V5C86 2.23858 83.7614 0 81 0Z" fill="white"/>
<path d="M31 0H5C2.23858 0 0 2.23858 0 5V27C0 29.7614 2.23858 32 5 32H31V0Z" fill="#CC6C9C"/>
<path d="M45.5446 22.18C44.7146 22.18 43.9096 22.07 43.1296 21.85C42.3596 21.62 41.7396 21.325 41.2696 20.965L42.0946 19.135C42.5446 19.465 43.0796 19.73 43.6996 19.93C44.3196 20.13 44.9396 20.23 45.5596 20.23C46.2496 20.23 46.7596 20.13 47.0896 19.93C47.4196 19.72 47.5846 19.445 47.5846 19.105C47.5846 18.855 47.4846 18.65 47.2846 18.49C47.0946 18.32 46.8446 18.185 46.5346 18.085C46.2346 17.985 45.8246 17.875 45.3046 17.755C44.5046 17.565 43.8496 17.375 43.3396 17.185C42.8296 16.995 42.3896 16.69 42.0196 16.27C41.6596 15.85 41.4796 15.29 41.4796 14.59C41.4796 13.98 41.6446 13.43 41.9746 12.94C42.3046 12.44 42.7996 12.045 43.4596 11.755C44.1296 11.465 44.9446 11.32 45.9046 11.32C46.5746 11.32 47.2296 11.4 47.8696 11.56C48.5096 11.72 49.0696 11.95 49.5496 12.25L48.7996 14.095C47.8296 13.545 46.8596 13.27 45.8896 13.27C45.2096 13.27 44.7046 13.38 44.3746 13.6C44.0546 13.82 43.8946 14.11 43.8946 14.47C43.8946 14.83 44.0796 15.1 44.4496 15.28C44.8296 15.45 45.4046 15.62 46.1746 15.79C46.9746 15.98 47.6296 16.17 48.1396 16.36C48.6496 16.55 49.0846 16.85 49.4446 17.26C49.8146 17.67 49.9996 18.225 49.9996 18.925C49.9996 19.525 49.8296 20.075 49.4896 20.575C49.1596 21.065 48.6596 21.455 47.9896 21.745C47.3196 22.035 46.5046 22.18 45.5446 22.18ZM54.9301 13.81C56.1801 13.81 57.1401 14.11 57.8101 14.71C58.4801 15.3 58.8151 16.195 58.8151 17.395V22H56.6251V20.995C56.1851 21.745 55.3651 22.12 54.1651 22.12C53.5451 22.12 53.0051 22.015 52.5451 21.805C52.0951 21.595 51.7501 21.305 51.5101 20.935C51.2701 20.565 51.1501 20.145 51.1501 19.675C51.1501 18.925 51.4301 18.335 51.9901 17.905C52.5601 17.475 53.4351 17.26 54.6151 17.26H56.4751C56.4751 16.75 56.3201 16.36 56.0101 16.09C55.7001 15.81 55.2351 15.67 54.6151 15.67C54.1851 15.67 53.7601 15.74 53.3401 15.88C52.9301 16.01 52.5801 16.19 52.2901 16.42L51.4501 14.785C51.8901 14.475 52.4151 14.235 53.0251 14.065C53.6451 13.895 54.2801 13.81 54.9301 13.81ZM54.7501 20.545C55.1501 20.545 55.5051 20.455 55.8151 20.275C56.1251 20.085 56.3451 19.81 56.4751 19.45V18.625H54.8701C53.9101 18.625 53.4301 18.94 53.4301 19.57C53.4301 19.87 53.5451 20.11 53.7751 20.29C54.0151 20.46 54.3401 20.545 54.7501 20.545ZM63.8279 22.12C63.1579 22.12 62.5029 22.04 61.8629 21.88C61.2229 21.71 60.7129 21.5 60.3329 21.25L61.1129 19.57C61.4729 19.8 61.9079 19.99 62.4179 20.14C62.9279 20.28 63.4279 20.35 63.9179 20.35C64.9079 20.35 65.4029 20.105 65.4029 19.615C65.4029 19.385 65.2679 19.22 64.9979 19.12C64.7279 19.02 64.3129 18.935 63.7529 18.865C63.0929 18.765 62.5479 18.65 62.1179 18.52C61.6879 18.39 61.3129 18.16 60.9929 17.83C60.6829 17.5 60.5279 17.03 60.5279 16.42C60.5279 15.91 60.6729 15.46 60.9629 15.07C61.2629 14.67 61.6929 14.36 62.2529 14.14C62.8229 13.92 63.4929 13.81 64.2629 13.81C64.8329 13.81 65.3979 13.875 65.9579 14.005C66.5279 14.125 66.9979 14.295 67.3679 14.515L66.5879 16.18C65.8779 15.78 65.1029 15.58 64.2629 15.58C63.7629 15.58 63.3879 15.65 63.1379 15.79C62.8879 15.93 62.7629 16.11 62.7629 16.33C62.7629 16.58 62.8979 16.755 63.1679 16.855C63.4379 16.955 63.8679 17.05 64.4579 17.14C65.1179 17.25 65.6579 17.37 66.0779 17.5C66.4979 17.62 66.8629 17.845 67.1729 18.175C67.4829 18.505 67.6379 18.965 67.6379 19.555C67.6379 20.055 67.4879 20.5 67.1879 20.89C66.8879 21.28 66.4479 21.585 65.8679 21.805C65.2979 22.015 64.6179 22.12 63.8279 22.12ZM71.9766 22.12C71.3066 22.12 70.6516 22.04 70.0116 21.88C69.3716 21.71 68.8616 21.5 68.4816 21.25L69.2616 19.57C69.6216 19.8 70.0566 19.99 70.5666 20.14C71.0766 20.28 71.5766 20.35 72.0666 20.35C73.0566 20.35 73.5516 20.105 73.5516 19.615C73.5516 19.385 73.4166 19.22 73.1466 19.12C72.8766 19.02 72.4616 18.935 71.9016 18.865C71.2416 18.765 70.6966 18.65 70.2666 18.52C69.8366 18.39 69.4616 18.16 69.1416 17.83C68.8316 17.5 68.6766 17.03 68.6766 16.42C68.6766 15.91 68.8216 15.46 69.1116 15.07C69.4116 14.67 69.8416 14.36 70.4016 14.14C70.9716 13.92 71.6416 13.81 72.4116 13.81C72.9816 13.81 73.5466 13.875 74.1066 14.005C74.6766 14.125 75.1466 14.295 75.5166 14.515L74.7366 16.18C74.0266 15.78 73.2516 15.58 72.4116 15.58C71.9116 15.58 71.5366 15.65 71.2866 15.79C71.0366 15.93 70.9116 16.11 70.9116 16.33C70.9116 16.58 71.0466 16.755 71.3166 16.855C71.5866 16.955 72.0166 17.05 72.6066 17.14C73.2666 17.25 73.8066 17.37 74.2266 17.5C74.6466 17.62 75.0116 17.845 75.3216 18.175C75.6316 18.505 75.7866 18.965 75.7866 19.555C75.7866 20.055 75.6366 20.5 75.3366 20.89C75.0366 21.28 74.5966 21.585 74.0166 21.805C73.4466 22.015 72.7666 22.12 71.9766 22.12Z" fill="black"/>
</g>
<path d="M5 1H81V-1H5V1ZM85 5V27H87V5H85ZM81 31H5V33H81V31ZM1 27V5H-1V27H1ZM5 31C2.79086 31 1 29.2091 1 27H-1C-1 30.3137 1.68629 33 5 33V31ZM85 27C85 29.2091 83.2091 31 81 31V33C84.3137 33 87 30.3137 87 27H85ZM81 1C83.2091 1 85 2.79086 85 5H87C87 1.68629 84.3137 -1 81 -1V1ZM5 -1C1.68629 -1 -1 1.68629 -1 5H1C1 2.79086 2.79086 1 5 1V-1Z" fill="black"/>
<path d="M24.6604 17.5951C23.8212 17.6 23.0946 17.8067 22.4851 18.1144C22.2602 17.6577 22.0351 17.2585 21.9976 16.9605C21.9554 16.6143 21.9039 16.4027 21.9554 15.9893C22.0069 15.5757 22.2413 14.9891 22.2413 14.9411C22.2366 14.8978 22.1897 14.6862 21.7069 14.6814C21.2241 14.6766 20.8068 14.7776 20.76 14.9074C20.7131 15.0372 20.6194 15.3353 20.5584 15.643C20.474 16.095 19.5927 17.6961 19.0911 18.5375C18.927 18.2106 18.7864 17.9221 18.7582 17.6912C18.7161 17.3451 18.6645 17.1335 18.7161 16.7201C18.7676 16.3065 19.0021 15.7199 19.0021 15.6719C18.9974 15.6286 18.9505 15.417 18.4677 15.4122C17.9848 15.4074 17.5676 15.5084 17.5207 15.6382C17.4738 15.768 17.4223 16.0758 17.3192 16.3739C17.2207 16.672 16.0486 19.3453 15.744 20.0424C15.5893 20.3982 15.4534 20.6819 15.3549 20.8743C15.2564 21.0666 15.3502 20.8887 15.3407 20.9079C15.2564 21.0714 15.2096 21.1628 15.2096 21.1628V21.1676C15.1439 21.2878 15.0736 21.4032 15.0407 21.4032C15.0173 21.4032 14.9704 21.081 15.05 20.6387C15.2235 19.7107 15.6455 18.2635 15.6408 18.2106C15.6408 18.1866 15.7204 17.9317 15.3689 17.8019C15.0267 17.6721 14.9048 17.8885 14.8767 17.8885C14.8485 17.8885 14.8251 17.9654 14.8251 17.9654C14.8251 17.9654 15.2048 16.3355 14.0984 16.3355C13.4046 16.3355 12.4483 17.1096 11.9748 17.8164C11.6748 17.9847 11.0373 18.3404 10.3622 18.7203C10.1043 18.8646 9.83713 19.0185 9.58398 19.1578L9.53247 19.1001C8.19172 17.6336 5.71182 16.5951 5.81496 14.6237C5.85246 13.9073 6.09623 12.0177 10.5779 9.72906C14.2486 7.85389 17.1879 8.36836 17.6988 9.51269C18.4254 11.1474 16.1284 14.1862 12.3124 14.6237C10.8592 14.792 10.095 14.215 9.90286 13.9987C9.70128 13.7727 9.67315 13.763 9.59814 13.8063C9.47626 13.8736 9.55126 14.0756 9.59814 14.1958C9.71065 14.4987 10.1794 15.0372 10.9764 15.3064C11.6748 15.542 13.3812 15.6719 15.4439 14.8545C17.7551 13.9361 19.5599 11.3878 19.0302 9.25786C18.4911 7.0894 14.9846 6.3778 11.6702 7.58464C9.69654 8.30585 7.55886 9.43095 6.02122 10.907C4.19294 12.6572 3.90229 14.1862 4.02417 14.8209C4.45082 17.0855 7.49322 18.5616 8.71208 19.653C8.65114 19.6866 8.59488 19.7202 8.54331 19.7491C7.93389 20.0568 5.61338 21.3022 5.03208 22.6195C4.37577 24.11 5.13521 25.1823 5.6415 25.3266C7.20726 25.7737 8.81053 24.9708 9.67779 23.6485C10.5403 22.3263 10.4372 20.6098 10.0388 19.8261L10.0246 19.7972L10.5028 19.5087C10.8123 19.3212 11.117 19.1482 11.3842 18.9991C11.2342 19.4173 11.1263 19.9126 11.0701 20.6338C11.0045 21.4801 11.342 22.5763 11.7873 23.009C11.9842 23.1965 12.2186 23.2014 12.3639 23.2014C12.8796 23.2014 13.114 22.7637 13.3718 22.2397C13.6906 21.6002 13.9719 20.8598 13.9719 20.8598C13.9719 20.8598 13.6203 22.8648 14.5814 22.8648C14.9329 22.8648 15.2845 22.3984 15.4439 22.1579V22.1628C15.4439 22.1628 15.4533 22.1483 15.472 22.1147C15.4917 22.0849 15.5105 22.0544 15.5283 22.0234V22.0137C15.6689 21.7637 15.983 21.1916 16.4519 20.2444C17.0565 19.0232 17.6378 17.4941 17.6378 17.4941C17.6378 17.4941 17.6941 17.8692 17.8675 18.4846C17.9706 18.8501 18.1957 19.2492 18.3692 19.6385C18.2285 19.8405 18.1441 19.9559 18.1441 19.9559L18.1488 19.9607C18.0364 20.1146 17.9097 20.2781 17.7785 20.4416C17.3003 21.0282 16.7284 21.6965 16.6534 21.8888C16.5643 22.1148 16.583 22.2831 16.7565 22.4178C16.8831 22.5139 17.1081 22.5331 17.3472 22.5139C17.7785 22.485 18.0785 22.3745 18.2286 22.3071C18.4629 22.2206 18.7301 22.0907 18.9879 21.8984C19.4567 21.5426 19.7427 21.0379 19.7146 20.3647C19.7005 19.9945 19.5833 19.629 19.438 19.2828C19.4802 19.2203 19.5225 19.1578 19.5646 19.0906C20.3053 17.9798 20.8772 16.7586 20.8772 16.7586C20.8772 16.7586 20.9334 17.1336 21.1069 17.7491C21.196 18.0616 21.3741 18.403 21.5335 18.7396C20.8397 19.3213 20.4037 19.9945 20.2537 20.4369C19.9771 21.2542 20.1928 21.6244 20.6006 21.711C20.7834 21.7494 21.0459 21.6629 21.2428 21.5763C21.4866 21.4946 21.7819 21.3551 22.0538 21.1485C22.5226 20.7927 22.9727 20.2974 22.9492 19.6291C22.9352 19.3213 22.8555 19.0185 22.7477 18.73C23.3383 18.48 24.1024 18.3357 25.0728 18.4559C27.159 18.706 27.5716 20.0426 27.4919 20.6004C27.4122 21.1581 26.9762 21.4658 26.8308 21.5619C26.6855 21.6533 26.6386 21.687 26.6527 21.7543C26.6715 21.8553 26.7371 21.8504 26.8637 21.8312C27.0371 21.8023 27.9606 21.3744 27.9981 20.3456C28.0544 19.0232 26.8308 17.5807 24.6604 17.5951ZM8.57144 23.1581C7.88232 23.9322 6.91193 24.2255 6.49939 23.9754C6.05404 23.711 6.22744 22.5715 7.076 21.7493C7.59167 21.2493 8.26204 20.7877 8.70271 20.504C8.80115 20.4415 8.95116 20.3502 9.12931 20.2396C9.15743 20.2204 9.17618 20.2107 9.17618 20.2107C9.209 20.1915 9.2465 20.1675 9.28401 20.1434C9.59809 21.3166 9.29807 22.3455 8.57144 23.1581ZM13.6109 19.6433C13.3718 20.2444 12.8656 21.7878 12.5608 21.7012C12.2983 21.6291 12.139 20.4608 12.5092 19.3068C12.6967 18.725 13.0953 18.0326 13.3296 17.7633C13.7094 17.3306 14.1219 17.1864 14.225 17.3642C14.347 17.5951 13.7609 19.2684 13.6109 19.6433ZM17.7691 21.682C17.666 21.7349 17.5722 21.7733 17.53 21.7445C17.4972 21.7253 17.5722 21.6532 17.5722 21.6532C17.5722 21.6532 18.0925 21.0811 18.2988 20.8166C18.416 20.6628 18.5566 20.4849 18.7067 20.2829V20.3406C18.7067 21.0329 18.0598 21.4945 17.7691 21.682ZM20.9756 20.932C20.9005 20.8743 20.9101 20.6964 21.1631 20.1386C21.2616 19.9174 21.4866 19.5472 21.8757 19.1963C21.9226 19.3404 21.9507 19.4798 21.946 19.6097C21.9413 20.4752 21.3413 20.7973 20.9756 20.932Z" fill="white"/>
<defs>
<clipPath id="clip0">
<path d="M0 5C0 2.23858 2.23858 0 5 0H81C83.7614 0 86 2.23858 86 5V27C86 29.7614 83.7614 32 81 32H5C2.23858 32 0 29.7614 0 27V5Z" fill="white"/>
</clipPath>
</defs>
</svg>
