<svg width="130" height="32" viewBox="0 0 130 32" fill="none" xmlns="http://www.w3.org/2000/svg">
<path d="M125 0H31V32H125C127.761 32 130 29.7614 130 27V5C130 2.23858 127.761 0 125 0Z" fill="white"/>
<path d="M31 0H5C2.23858 0 0 2.23858 0 5V27C0 29.7614 2.23858 32 5 32H31V0Z" fill="white"/>
<path d="M41.2155 13.48H37.8555V11.5H47.0055V13.48H43.6455V22H41.2155V13.48ZM55.8545 13.93L52.2095 22.495C51.8395 23.425 51.3795 24.08 50.8295 24.46C50.2895 24.84 49.6345 25.03 48.8645 25.03C48.4445 25.03 48.0295 24.965 47.6195 24.835C47.2095 24.705 46.8745 24.525 46.6145 24.295L47.4695 22.63C47.6495 22.79 47.8545 22.915 48.0845 23.005C48.3245 23.095 48.5595 23.14 48.7895 23.14C49.1095 23.14 49.3695 23.06 49.5695 22.9C49.7695 22.75 49.9495 22.495 50.1095 22.135L50.1395 22.06L46.6445 13.93H49.0595L51.3245 19.405L53.6045 13.93H55.8545ZM61.7594 13.81C62.5094 13.81 63.1894 13.985 63.7994 14.335C64.4194 14.675 64.9044 15.16 65.2544 15.79C65.6044 16.41 65.7794 17.135 65.7794 17.965C65.7794 18.795 65.6044 19.525 65.2544 20.155C64.9044 20.775 64.4194 21.26 63.7994 21.61C63.1894 21.95 62.5094 22.12 61.7594 22.12C60.7294 22.12 59.9194 21.795 59.3294 21.145V24.91H56.9894V13.93H59.2244V14.86C59.8044 14.16 60.6494 13.81 61.7594 13.81ZM61.3544 20.2C61.9544 20.2 62.4444 20 62.8244 19.6C63.2144 19.19 63.4094 18.645 63.4094 17.965C63.4094 17.285 63.2144 16.745 62.8244 16.345C62.4444 15.935 61.9544 15.73 61.3544 15.73C60.7544 15.73 60.2594 15.935 59.8694 16.345C59.4894 16.745 59.2994 17.285 59.2994 17.965C59.2994 18.645 59.4894 19.19 59.8694 19.6C60.2594 20 60.7544 20.2 61.3544 20.2ZM75.4308 17.995C75.4308 18.025 75.4158 18.235 75.3858 18.625H69.2808C69.3908 19.125 69.6508 19.52 70.0608 19.81C70.4708 20.1 70.9808 20.245 71.5908 20.245C72.0108 20.245 72.3808 20.185 72.7008 20.065C73.0308 19.935 73.3358 19.735 73.6158 19.465L74.8608 20.815C74.1008 21.685 72.9908 22.12 71.5308 22.12C70.6208 22.12 69.8158 21.945 69.1158 21.595C68.4158 21.235 67.8758 20.74 67.4958 20.11C67.1158 19.48 66.9258 18.765 66.9258 17.965C66.9258 17.175 67.1108 16.465 67.4808 15.835C67.8608 15.195 68.3758 14.7 69.0258 14.35C69.6858 13.99 70.4208 13.81 71.2308 13.81C72.0208 13.81 72.7358 13.98 73.3758 14.32C74.0158 14.66 74.5158 15.15 74.8758 15.79C75.2458 16.42 75.4308 17.155 75.4308 17.995ZM71.2458 15.58C70.7158 15.58 70.2708 15.73 69.9108 16.03C69.5508 16.33 69.3308 16.74 69.2508 17.26H73.2258C73.1458 16.75 72.9258 16.345 72.5658 16.045C72.2058 15.735 71.7658 15.58 71.2458 15.58ZM80.7837 22.18C79.9537 22.18 79.1487 22.07 78.3687 21.85C77.5987 21.62 76.9787 21.325 76.5087 20.965L77.3337 19.135C77.7837 19.465 78.3187 19.73 78.9387 19.93C79.5587 20.13 80.1787 20.23 80.7987 20.23C81.4887 20.23 81.9987 20.13 82.3287 19.93C82.6587 19.72 82.8237 19.445 82.8237 19.105C82.8237 18.855 82.7237 18.65 82.5237 18.49C82.3337 18.32 82.0837 18.185 81.7737 18.085C81.4737 17.985 81.0637 17.875 80.5437 17.755C79.7437 17.565 79.0887 17.375 78.5787 17.185C78.0687 16.995 77.6287 16.69 77.2587 16.27C76.8987 15.85 76.7187 15.29 76.7187 14.59C76.7187 13.98 76.8837 13.43 77.2137 12.94C77.5437 12.44 78.0387 12.045 78.6987 11.755C79.3687 11.465 80.1837 11.32 81.1437 11.32C81.8137 11.32 82.4687 11.4 83.1087 11.56C83.7487 11.72 84.3087 11.95 84.7887 12.25L84.0387 14.095C83.0687 13.545 82.0987 13.27 81.1287 13.27C80.4487 13.27 79.9437 13.38 79.6137 13.6C79.2937 13.82 79.1337 14.11 79.1337 14.47C79.1337 14.83 79.3187 15.1 79.6887 15.28C80.0687 15.45 80.6437 15.62 81.4137 15.79C82.2137 15.98 82.8687 16.17 83.3787 16.36C83.8887 16.55 84.3237 16.85 84.6837 17.26C85.0537 17.67 85.2387 18.225 85.2387 18.925C85.2387 19.525 85.0687 20.075 84.7287 20.575C84.3987 21.065 83.8987 21.455 83.2287 21.745C82.5587 22.035 81.7437 22.18 80.7837 22.18ZM90.8141 22.12C89.9541 22.12 89.1791 21.945 88.4891 21.595C87.8091 21.235 87.2741 20.74 86.8841 20.11C86.5041 19.48 86.3141 18.765 86.3141 17.965C86.3141 17.165 86.5041 16.45 86.8841 15.82C87.2741 15.19 87.8091 14.7 88.4891 14.35C89.1791 13.99 89.9541 13.81 90.8141 13.81C91.6641 13.81 92.4041 13.99 93.0341 14.35C93.6741 14.7 94.1391 15.205 94.4291 15.865L92.6141 16.84C92.1941 16.1 91.5891 15.73 90.7991 15.73C90.1891 15.73 89.6841 15.93 89.2841 16.33C88.8841 16.73 88.6841 17.275 88.6841 17.965C88.6841 18.655 88.8841 19.2 89.2841 19.6C89.6841 20 90.1891 20.2 90.7991 20.2C91.5991 20.2 92.2041 19.83 92.6141 19.09L94.4291 20.08C94.1391 20.72 93.6741 21.22 93.0341 21.58C92.4041 21.94 91.6641 22.12 90.8141 22.12ZM98.1914 14.995C98.4714 14.605 98.8464 14.31 99.3164 14.11C99.7964 13.91 100.346 13.81 100.966 13.81V15.97C100.706 15.95 100.531 15.94 100.441 15.94C99.7714 15.94 99.2464 16.13 98.8664 16.51C98.4864 16.88 98.2964 17.44 98.2964 18.19V22H95.9564V13.93H98.1914V14.995ZM102.538 13.93H104.878V22H102.538V13.93ZM103.708 12.805C103.278 12.805 102.928 12.68 102.658 12.43C102.388 12.18 102.253 11.87 102.253 11.5C102.253 11.13 102.388 10.82 102.658 10.57C102.928 10.32 103.278 10.195 103.708 10.195C104.138 10.195 104.488 10.315 104.758 10.555C105.028 10.795 105.163 11.095 105.163 11.455C105.163 11.845 105.028 12.17 104.758 12.43C104.488 12.68 104.138 12.805 103.708 12.805ZM112 13.81C112.75 13.81 113.43 13.985 114.04 14.335C114.66 14.675 115.145 15.16 115.495 15.79C115.845 16.41 116.02 17.135 116.02 17.965C116.02 18.795 115.845 19.525 115.495 20.155C115.145 20.775 114.66 21.26 114.04 21.61C113.43 21.95 112.75 22.12 112 22.12C110.97 22.12 110.16 21.795 109.57 21.145V24.91H107.23V13.93H109.465V14.86C110.045 14.16 110.89 13.81 112 13.81ZM111.595 20.2C112.195 20.2 112.685 20 113.065 19.6C113.455 19.19 113.65 18.645 113.65 17.965C113.65 17.285 113.455 16.745 113.065 16.345C112.685 15.935 112.195 15.73 111.595 15.73C110.995 15.73 110.5 15.935 110.11 16.345C109.73 16.745 109.54 17.285 109.54 17.965C109.54 18.645 109.73 19.19 110.11 19.6C110.5 20 110.995 20.2 111.595 20.2ZM122.971 21.61C122.741 21.78 122.456 21.91 122.116 22C121.786 22.08 121.436 22.12 121.066 22.12C120.106 22.12 119.361 21.875 118.831 21.385C118.311 20.895 118.051 20.175 118.051 19.225V15.91H116.806V14.11H118.051V12.145H120.391V14.11H122.401V15.91H120.391V19.195C120.391 19.535 120.476 19.8 120.646 19.99C120.826 20.17 121.076 20.26 121.396 20.26C121.766 20.26 122.081 20.16 122.341 19.96L122.971 21.61Z" fill="black"/>
<path d="M5 1H125V-1H5V1ZM129 5V27H131V5H129ZM125 31H5V33H125V31ZM1 27V5H-1V27H1ZM5 31C2.79086 31 1 29.2091 1 27H-1C-1 30.3137 1.6863 33 5 33V31ZM129 27C129 29.2091 127.209 31 125 31V33C128.314 33 131 30.3137 131 27H129ZM125 1C127.209 1 129 2.79086 129 5H131C131 1.68629 128.314 -1 125 -1V1ZM5 -1C1.68629 -1 -1 1.68629 -1 5H1C1 2.79086 2.79086 1 5 1V-1Z" fill="black"/>
<g clip-path="url(#clip0)">
<rect x="1" y="1" width="31" height="31" fill="white"/>
<path d="M1 16V31H31V1H1V16ZM19.3984 15.4727V16.8203H15.5312V29.125H12.3672V16.8203H8.5V14.125H19.3984V15.4727ZM27.0156 14.2891C27.4961 14.3828 28.0352 14.5117 28.2227 14.582L28.5391 14.7109V16.1758C28.5391 16.9844 28.5156 17.6406 28.4922 17.6406C28.4688 17.6406 28.2227 17.5117 27.9414 17.3594C26.8867 16.7617 25.1992 16.5391 24.168 16.8437C23.9219 16.9141 23.5586 17.1367 23.3711 17.3242C23.0898 17.5938 23.0312 17.7578 23.0312 18.1914C23.0312 18.6602 23.0898 18.7891 23.4766 19.1523C23.7227 19.3867 24.6367 19.9258 25.5273 20.3711C27.4023 21.2969 28.3516 22.082 28.7852 23.0547C29.1719 23.9219 29.1836 25.75 28.8086 26.5703C28.457 27.3437 27.6836 28.1289 26.9219 28.4922C25.3047 29.2539 22.668 29.3242 20.6055 28.6445L19.8672 28.3984V25.1406L20.4531 25.5625C21.2148 26.1133 22.1992 26.4531 23.2305 26.5234C24.2617 26.5938 25.0234 26.4062 25.4922 25.9609C25.7852 25.6914 25.8438 25.5391 25.8438 25.0938C25.8438 24.2383 25.3516 23.793 23.3359 22.8086C21.5547 21.9297 20.9922 21.5313 20.4648 20.7578C19.293 19.0586 19.6445 16.457 21.2148 15.2734C22.5508 14.2539 24.7656 13.8789 27.0156 14.2891V14.2891Z" fill="#0077C6"/>
</g>
<defs>
<clipPath id="clip0">
<path d="M1 5C1 2.79086 2.79086 1 5 1H31V31H5C2.79086 31 1 29.2091 1 27V5Z" fill="white"/>
</clipPath>
</defs>
</svg>
