<svg width="166" height="32" viewBox="0 0 166 32" fill="none" xmlns="http://www.w3.org/2000/svg">
<path d="M161 0H31V32H161C163.761 32 166 29.7614 166 27V5C166 2.23858 163.761 0 161 0Z" fill="white"/>
<path d="M31 0H5C2.23858 0 0 2.23858 0 5V27C0 29.7614 2.23858 32 5 32H31V0Z" fill="#4CD489"/>
<path d="M5 1H161V-1H5V1ZM165 5V27H167V5H165ZM161 31H5V33H161V31ZM1 27V5H-1V27H1ZM5 31C2.79086 31 1 29.2091 1 27H-1C-1 30.3137 1.68629 33 5 33V31ZM165 27C165 29.2091 163.209 31 161 31V33C164.314 33 167 30.3137 167 27H165ZM161 1C163.209 1 165 2.79086 165 5H167C167 1.68629 164.314 -1 161 -1V1ZM5 -1C1.68629 -1 -1 1.68629 -1 5H1C1 2.79086 2.79086 1 5 1V-1Z" fill="black"/>
<path d="M15 6H17V8H17.5C17.8978 8 18.2794 8.15804 18.5607 8.43934C18.842 8.72064 19 9.10218 19 9.5V13L18.56 13.44L20.2 16.28C21.31 15.19 22 13.68 22 12H24C24 14.42 22.93 16.59 21.23 18.06L24.37 23.5L24.5 25.72L22.63 24.5L19.56 19.17C18.5 19.7 17.28 20 16 20C14.72 20 13.5 19.7 12.44 19.17L9.37 24.5L7.5 25.72L7.63 23.5L13.44 13.44L13 13V9.5C13 9.10218 13.158 8.72064 13.4393 8.43934C13.7206 8.15804 14.1022 8 14.5 8H15V6ZM13.44 17.43C14.22 17.8 15.09 18 16 18C16.91 18 17.78 17.8 18.56 17.43L17.1 14.9H17.09C16.47 15.5 15.53 15.5 14.91 14.9H14.9L13.44 17.43V17.43ZM16 10C15.7348 10 15.4804 10.1054 15.2929 10.2929C15.1054 10.4804 15 10.7348 15 11C15 11.2652 15.1054 11.5196 15.2929 11.7071C15.4804 11.8946 15.7348 12 16 12C16.2652 12 16.5196 11.8946 16.7071 11.7071C16.8946 11.5196 17 11.2652 17 11C17 10.7348 16.8946 10.4804 16.7071 10.2929C16.5196 10.1054 16.2652 10 16 10Z" fill="white"/>
<path d="M46.1199 19.75H41.2449L40.3149 22H37.8249L42.5049 11.5H44.9049L49.5999 22H47.0499L46.1199 19.75ZM45.3549 17.905L43.6899 13.885L42.0249 17.905H45.3549ZM55.6093 13.81C56.6093 13.81 57.4143 14.11 58.0243 14.71C58.6443 15.31 58.9543 16.2 58.9543 17.38V22H56.6143V17.74C56.6143 17.1 56.4743 16.625 56.1943 16.315C55.9143 15.995 55.5093 15.835 54.9793 15.835C54.3893 15.835 53.9193 16.02 53.5693 16.39C53.2193 16.75 53.0443 17.29 53.0443 18.01V22H50.7043V13.93H52.9393V14.875C53.2493 14.535 53.6343 14.275 54.0943 14.095C54.5543 13.905 55.0593 13.81 55.6093 13.81ZM69.5632 10.87V22H67.3282V21.07C66.7482 21.77 65.9082 22.12 64.8082 22.12C64.0482 22.12 63.3582 21.95 62.7382 21.61C62.1282 21.27 61.6482 20.785 61.2982 20.155C60.9482 19.525 60.7732 18.795 60.7732 17.965C60.7732 17.135 60.9482 16.405 61.2982 15.775C61.6482 15.145 62.1282 14.66 62.7382 14.32C63.3582 13.98 64.0482 13.81 64.8082 13.81C65.8382 13.81 66.6432 14.135 67.2232 14.785V10.87H69.5632ZM65.2132 20.2C65.8032 20.2 66.2932 20 66.6832 19.6C67.0732 19.19 67.2682 18.645 67.2682 17.965C67.2682 17.285 67.0732 16.745 66.6832 16.345C66.2932 15.935 65.8032 15.73 65.2132 15.73C64.6132 15.73 64.1182 15.935 63.7282 16.345C63.3382 16.745 63.1432 17.285 63.1432 17.965C63.1432 18.645 63.3382 19.19 63.7282 19.6C64.1182 20 64.6132 20.2 65.2132 20.2ZM74.144 14.995C74.424 14.605 74.799 14.31 75.269 14.11C75.749 13.91 76.299 13.81 76.919 13.81V15.97C76.659 15.95 76.484 15.94 76.394 15.94C75.724 15.94 75.199 16.13 74.819 16.51C74.439 16.88 74.249 17.44 74.249 18.19V22H71.909V13.93H74.144V14.995ZM82.2571 22.12C81.4071 22.12 80.6421 21.945 79.9621 21.595C79.2921 21.235 78.7671 20.74 78.3871 20.11C78.0071 19.48 77.8171 18.765 77.8171 17.965C77.8171 17.165 78.0071 16.45 78.3871 15.82C78.7671 15.19 79.2921 14.7 79.9621 14.35C80.6421 13.99 81.4071 13.81 82.2571 13.81C83.1071 13.81 83.8671 13.99 84.5371 14.35C85.2071 14.7 85.7321 15.19 86.1121 15.82C86.4921 16.45 86.6821 17.165 86.6821 17.965C86.6821 18.765 86.4921 19.48 86.1121 20.11C85.7321 20.74 85.2071 21.235 84.5371 21.595C83.8671 21.945 83.1071 22.12 82.2571 22.12ZM82.2571 20.2C82.8571 20.2 83.3471 20 83.7271 19.6C84.1171 19.19 84.3121 18.645 84.3121 17.965C84.3121 17.285 84.1171 16.745 83.7271 16.345C83.3471 15.935 82.8571 15.73 82.2571 15.73C81.6571 15.73 81.1621 15.935 80.7721 16.345C80.3821 16.745 80.1871 17.285 80.1871 17.965C80.1871 18.645 80.3821 19.19 80.7721 19.6C81.1621 20 81.6571 20.2 82.2571 20.2ZM88.4262 13.93H90.7662V22H88.4262V13.93ZM89.5962 12.805C89.1662 12.805 88.8162 12.68 88.5462 12.43C88.2762 12.18 88.1412 11.87 88.1412 11.5C88.1412 11.13 88.2762 10.82 88.5462 10.57C88.8162 10.32 89.1662 10.195 89.5962 10.195C90.0262 10.195 90.3762 10.315 90.6462 10.555C90.9162 10.795 91.0512 11.095 91.0512 11.455C91.0512 11.845 90.9162 12.17 90.6462 12.43C90.3762 12.68 90.0262 12.805 89.5962 12.805ZM101.338 10.87V22H99.1029V21.07C98.5229 21.77 97.6829 22.12 96.5829 22.12C95.8229 22.12 95.1329 21.95 94.5129 21.61C93.9029 21.27 93.4229 20.785 93.0729 20.155C92.7229 19.525 92.5479 18.795 92.5479 17.965C92.5479 17.135 92.7229 16.405 93.0729 15.775C93.4229 15.145 93.9029 14.66 94.5129 14.32C95.1329 13.98 95.8229 13.81 96.5829 13.81C97.6129 13.81 98.4179 14.135 98.9979 14.785V10.87H101.338ZM96.9879 20.2C97.5779 20.2 98.0679 20 98.4579 19.6C98.8479 19.19 99.0429 18.645 99.0429 17.965C99.0429 17.285 98.8479 16.745 98.4579 16.345C98.0679 15.935 97.5779 15.73 96.9879 15.73C96.3879 15.73 95.8929 15.935 95.5029 16.345C95.1129 16.745 94.9179 17.285 94.9179 17.965C94.9179 18.645 95.1129 19.19 95.5029 19.6C95.8929 20 96.3879 20.2 96.9879 20.2ZM111.727 22.18C110.897 22.18 110.092 22.07 109.312 21.85C108.542 21.62 107.922 21.325 107.452 20.965L108.277 19.135C108.727 19.465 109.262 19.73 109.882 19.93C110.502 20.13 111.122 20.23 111.742 20.23C112.432 20.23 112.942 20.13 113.272 19.93C113.602 19.72 113.767 19.445 113.767 19.105C113.767 18.855 113.667 18.65 113.467 18.49C113.277 18.32 113.027 18.185 112.717 18.085C112.417 17.985 112.007 17.875 111.487 17.755C110.687 17.565 110.032 17.375 109.522 17.185C109.012 16.995 108.572 16.69 108.202 16.27C107.842 15.85 107.662 15.29 107.662 14.59C107.662 13.98 107.827 13.43 108.157 12.94C108.487 12.44 108.982 12.045 109.642 11.755C110.312 11.465 111.127 11.32 112.087 11.32C112.757 11.32 113.412 11.4 114.052 11.56C114.692 11.72 115.252 11.95 115.732 12.25L114.982 14.095C114.012 13.545 113.042 13.27 112.072 13.27C111.392 13.27 110.887 13.38 110.557 13.6C110.237 13.82 110.077 14.11 110.077 14.47C110.077 14.83 110.262 15.1 110.632 15.28C111.012 15.45 111.587 15.62 112.357 15.79C113.157 15.98 113.812 16.17 114.322 16.36C114.832 16.55 115.267 16.85 115.627 17.26C115.997 17.67 116.182 18.225 116.182 18.925C116.182 19.525 116.012 20.075 115.672 20.575C115.342 21.065 114.842 21.455 114.172 21.745C113.502 22.035 112.687 22.18 111.727 22.18ZM123.062 21.61C122.832 21.78 122.547 21.91 122.207 22C121.877 22.08 121.527 22.12 121.157 22.12C120.197 22.12 119.452 21.875 118.922 21.385C118.402 20.895 118.142 20.175 118.142 19.225V15.91H116.897V14.11H118.142V12.145H120.482V14.11H122.492V15.91H120.482V19.195C120.482 19.535 120.567 19.8 120.737 19.99C120.917 20.17 121.167 20.26 121.487 20.26C121.857 20.26 122.172 20.16 122.432 19.96L123.062 21.61ZM132.686 13.93V22H130.466V21.04C130.156 21.39 129.786 21.66 129.356 21.85C128.926 22.03 128.461 22.12 127.961 22.12C126.901 22.12 126.061 21.815 125.441 21.205C124.821 20.595 124.511 19.69 124.511 18.49V13.93H126.851V18.145C126.851 19.445 127.396 20.095 128.486 20.095C129.046 20.095 129.496 19.915 129.836 19.555C130.176 19.185 130.346 18.64 130.346 17.92V13.93H132.686ZM143.254 10.87V22H141.019V21.07C140.439 21.77 139.599 22.12 138.499 22.12C137.739 22.12 137.049 21.95 136.429 21.61C135.819 21.27 135.339 20.785 134.989 20.155C134.639 19.525 134.464 18.795 134.464 17.965C134.464 17.135 134.639 16.405 134.989 15.775C135.339 15.145 135.819 14.66 136.429 14.32C137.049 13.98 137.739 13.81 138.499 13.81C139.529 13.81 140.334 14.135 140.914 14.785V10.87H143.254ZM138.904 20.2C139.494 20.2 139.984 20 140.374 19.6C140.764 19.19 140.959 18.645 140.959 17.965C140.959 17.285 140.764 16.745 140.374 16.345C139.984 15.935 139.494 15.73 138.904 15.73C138.304 15.73 137.809 15.935 137.419 16.345C137.029 16.745 136.834 17.285 136.834 17.965C136.834 18.645 137.029 19.19 137.419 19.6C137.809 20 138.304 20.2 138.904 20.2ZM145.599 13.93H147.939V22H145.599V13.93ZM146.769 12.805C146.339 12.805 145.989 12.68 145.719 12.43C145.449 12.18 145.314 11.87 145.314 11.5C145.314 11.13 145.449 10.82 145.719 10.57C145.989 10.32 146.339 10.195 146.769 10.195C147.199 10.195 147.549 10.315 147.819 10.555C148.089 10.795 148.224 11.095 148.224 11.455C148.224 11.845 148.089 12.17 147.819 12.43C147.549 12.68 147.199 12.805 146.769 12.805ZM154.131 22.12C153.281 22.12 152.516 21.945 151.836 21.595C151.166 21.235 150.641 20.74 150.261 20.11C149.881 19.48 149.691 18.765 149.691 17.965C149.691 17.165 149.881 16.45 150.261 15.82C150.641 15.19 151.166 14.7 151.836 14.35C152.516 13.99 153.281 13.81 154.131 13.81C154.981 13.81 155.741 13.99 156.411 14.35C157.081 14.7 157.606 15.19 157.986 15.82C158.366 16.45 158.556 17.165 158.556 17.965C158.556 18.765 158.366 19.48 157.986 20.11C157.606 20.74 157.081 21.235 156.411 21.595C155.741 21.945 154.981 22.12 154.131 22.12ZM154.131 20.2C154.731 20.2 155.221 20 155.601 19.6C155.991 19.19 156.186 18.645 156.186 17.965C156.186 17.285 155.991 16.745 155.601 16.345C155.221 15.935 154.731 15.73 154.131 15.73C153.531 15.73 153.036 15.935 152.646 16.345C152.256 16.745 152.061 17.285 152.061 17.965C152.061 18.645 152.256 19.19 152.646 19.6C153.036 20 153.531 20.2 154.131 20.2Z" fill="black"/>
</svg>
