<svg width="90" height="32" viewBox="0 0 90 32" fill="none" xmlns="http://www.w3.org/2000/svg">
<g clip-path="url(#clip0)">
<path d="M85 0H31V32H85C87.7614 32 90 29.7614 90 27V5C90 2.23858 87.7614 0 85 0Z" fill="white"/>
<path d="M5 0.5H30.5V31.5H5C2.51472 31.5 0.5 29.4853 0.5 27V5C0.5 2.51472 2.51472 0.5 5 0.5Z" fill="white" stroke="black"/>
<path d="M49.6513 16.54C50.2513 16.73 50.7213 17.05 51.0613 17.5C51.4013 17.94 51.5713 18.485 51.5713 19.135C51.5713 20.055 51.2113 20.765 50.4913 21.265C49.7813 21.755 48.7413 22 47.3713 22H41.9413V11.5H47.0713C48.3513 11.5 49.3313 11.745 50.0113 12.235C50.7013 12.725 51.0463 13.39 51.0463 14.23C51.0463 14.74 50.9213 15.195 50.6713 15.595C50.4313 15.995 50.0913 16.31 49.6513 16.54ZM44.3563 13.33V15.805H46.7713C47.3713 15.805 47.8263 15.7 48.1363 15.49C48.4463 15.28 48.6013 14.97 48.6013 14.56C48.6013 14.15 48.4463 13.845 48.1363 13.645C47.8263 13.435 47.3713 13.33 46.7713 13.33H44.3563ZM47.1913 20.17C47.8313 20.17 48.3113 20.065 48.6313 19.855C48.9613 19.645 49.1263 19.32 49.1263 18.88C49.1263 18.01 48.4813 17.575 47.1913 17.575H44.3563V20.17H47.1913ZM56.681 13.81C57.931 13.81 58.891 14.11 59.561 14.71C60.231 15.3 60.566 16.195 60.566 17.395V22H58.376V20.995C57.936 21.745 57.116 22.12 55.916 22.12C55.296 22.12 54.756 22.015 54.296 21.805C53.846 21.595 53.501 21.305 53.261 20.935C53.021 20.565 52.901 20.145 52.901 19.675C52.901 18.925 53.181 18.335 53.741 17.905C54.311 17.475 55.186 17.26 56.366 17.26H58.226C58.226 16.75 58.071 16.36 57.761 16.09C57.451 15.81 56.986 15.67 56.366 15.67C55.936 15.67 55.511 15.74 55.091 15.88C54.681 16.01 54.331 16.19 54.041 16.42L53.201 14.785C53.641 14.475 54.166 14.235 54.776 14.065C55.396 13.895 56.031 13.81 56.681 13.81ZM56.501 20.545C56.901 20.545 57.256 20.455 57.566 20.275C57.876 20.085 58.096 19.81 58.226 19.45V18.625H56.621C55.661 18.625 55.181 18.94 55.181 19.57C55.181 19.87 55.296 20.11 55.526 20.29C55.766 20.46 56.091 20.545 56.501 20.545ZM65.5788 22.12C64.9088 22.12 64.2538 22.04 63.6138 21.88C62.9738 21.71 62.4638 21.5 62.0838 21.25L62.8638 19.57C63.2238 19.8 63.6588 19.99 64.1688 20.14C64.6788 20.28 65.1788 20.35 65.6688 20.35C66.6588 20.35 67.1538 20.105 67.1538 19.615C67.1538 19.385 67.0188 19.22 66.7488 19.12C66.4788 19.02 66.0638 18.935 65.5038 18.865C64.8438 18.765 64.2988 18.65 63.8688 18.52C63.4388 18.39 63.0638 18.16 62.7438 17.83C62.4338 17.5 62.2788 17.03 62.2788 16.42C62.2788 15.91 62.4238 15.46 62.7138 15.07C63.0138 14.67 63.4438 14.36 64.0038 14.14C64.5738 13.92 65.2438 13.81 66.0138 13.81C66.5838 13.81 67.1488 13.875 67.7088 14.005C68.2788 14.125 68.7488 14.295 69.1188 14.515L68.3388 16.18C67.6288 15.78 66.8538 15.58 66.0138 15.58C65.5138 15.58 65.1388 15.65 64.8888 15.79C64.6388 15.93 64.5138 16.11 64.5138 16.33C64.5138 16.58 64.6488 16.755 64.9188 16.855C65.1888 16.955 65.6188 17.05 66.2088 17.14C66.8688 17.25 67.4088 17.37 67.8288 17.5C68.2488 17.62 68.6138 17.845 68.9238 18.175C69.2338 18.505 69.3888 18.965 69.3888 19.555C69.3888 20.055 69.2388 20.5 68.9388 20.89C68.6388 21.28 68.1988 21.585 67.6188 21.805C67.0488 22.015 66.3688 22.12 65.5788 22.12ZM75.9176 13.81C76.9176 13.81 77.7226 14.11 78.3326 14.71C78.9526 15.31 79.2626 16.2 79.2626 17.38V22H76.9226V17.74C76.9226 17.1 76.7826 16.625 76.5026 16.315C76.2226 15.995 75.8176 15.835 75.2876 15.835C74.6976 15.835 74.2276 16.02 73.8776 16.39C73.5276 16.75 73.3526 17.29 73.3526 18.01V22H71.0126V10.87H73.3526V14.77C73.6626 14.46 74.0376 14.225 74.4776 14.065C74.9176 13.895 75.3976 13.81 75.9176 13.81Z" fill="black"/>
</g>
<path d="M5 1H85V-1H5V1ZM89 5V27H91V5H89ZM85 31H5V33H85V31ZM1 27V5H-1V27H1ZM5 31C2.79086 31 1 29.2091 1 27H-1C-1 30.3137 1.68629 33 5 33V31ZM89 27C89 29.2091 87.2091 31 85 31V33C88.3137 33 91 30.3137 91 27H89ZM85 1C87.2091 1 89 2.79086 89 5H91C91 1.68629 88.3137 -1 85 -1V1ZM5 -1C1.68629 -1 -1 1.68629 -1 5H1C1 2.79086 2.79086 1 5 1V-1Z" fill="black"/>
<path fill-rule="evenodd" clip-rule="evenodd" d="M25.5384 8.90025L17.9616 4.40263C17.0573 3.86579 15.9426 3.86579 15.0382 4.40263L7.46141 8.90025C6.55733 9.43709 6.00012 10.429 6.00012 11.5027V20.4979C6.00012 21.5713 6.55733 22.5638 7.46167 23.1006L15.0385 27.5974C15.4907 27.866 15.995 27.9999 16.5 27.9999C17.0049 27.9999 17.5092 27.866 17.9613 27.5974L25.5382 23.1006C26.4425 22.5638 27 21.5713 27 20.4979V11.5027C27 10.429 26.4425 9.43709 25.5384 8.90025Z" fill="#FEFEFE"/>
<path fill-rule="evenodd" clip-rule="evenodd" d="M15.3032 27.1371L7.7264 22.6403C6.9853 22.2003 6.52493 21.3796 6.52493 20.498V11.503C6.52493 10.6214 6.9853 9.80067 7.72613 9.36093L15.3032 4.86331C15.6665 4.64768 16.0803 4.53364 16.4999 4.53364C16.9193 4.53364 17.3331 4.64768 17.6966 4.86331L25.2734 9.36093C25.8979 9.73161 26.3191 10.3735 26.4376 11.0934C26.1863 10.5571 25.6195 10.4113 24.9591 10.7971L17.7911 15.2246C16.8973 15.7471 16.2383 16.3335 16.2377 17.4111V26.2436C16.2372 26.8889 16.4978 27.307 16.8981 27.4282C16.7666 27.4509 16.6341 27.4668 16.4999 27.4668C16.0803 27.4668 15.6665 27.3527 15.3032 27.1371ZM25.5383 8.9003L17.9615 4.40294C17.5093 4.13439 17.0045 4.00024 16.4999 4.00024C15.9951 4.00024 15.4903 4.13439 15.0381 4.40294L7.46128 8.9003C6.55721 9.43713 6 10.4293 6 11.503V20.498C6 21.5714 6.55721 22.5638 7.46155 23.1007L15.0384 27.5978C15.4908 27.866 15.9951 28.0002 16.4999 28.0002C17.0047 28.0002 17.509 27.866 17.9612 27.5978L25.5383 23.1007C26.4426 22.5638 26.9998 21.5714 26.9998 20.498V11.503C26.9998 10.4293 26.4426 9.43713 25.5383 8.9003Z" fill="#3E474A"/>
<path fill-rule="evenodd" clip-rule="evenodd" d="M23.5521 21.3674L21.6654 22.4966C21.6154 22.5257 21.5786 22.5585 21.5784 22.6186V23.1123C21.5784 23.1726 21.6188 23.1978 21.6689 23.1684L23.5847 22.004C23.6347 21.9749 23.6424 21.9191 23.6426 21.859V21.4235C23.6426 21.3634 23.6022 21.3383 23.5521 21.3674Z" fill="#47B353"/>
<path fill-rule="evenodd" clip-rule="evenodd" d="M19.5345 17.2118C19.5957 17.1808 19.6459 17.2189 19.6467 17.2988L19.6531 17.9516C19.9264 17.8428 20.1637 17.8137 20.3788 17.8635C20.4254 17.8759 20.446 17.9394 20.427 18.0148L20.2833 18.5932C20.2722 18.6368 20.2476 18.681 20.218 18.7085C20.2055 18.7207 20.1928 18.7302 20.1801 18.7366C20.1608 18.7464 20.1418 18.7495 20.1235 18.7458C20.0253 18.7236 19.792 18.6725 19.4247 18.8585C19.0395 19.0535 18.9048 19.3882 18.9075 19.6367C18.9107 19.9333 19.0628 20.0232 19.5883 20.0322C20.2883 20.0439 20.5908 20.3497 20.5982 21.0548C20.6053 21.7472 20.2357 22.4907 19.6703 22.9463L19.6827 23.5924C19.6835 23.6702 19.633 23.7594 19.5718 23.7903L19.1893 24.0107C19.1279 24.0417 19.0776 24.0036 19.0768 23.9258L19.0702 23.2903C18.7424 23.4265 18.4103 23.4594 18.1981 23.3742C18.1582 23.3585 18.141 23.2995 18.1569 23.2323L18.2955 22.6481C18.3066 22.6021 18.331 22.5561 18.364 22.5267C18.3757 22.5153 18.3878 22.5066 18.4 22.5005C18.422 22.4894 18.4434 22.487 18.4617 22.4939C18.6903 22.5709 18.9826 22.5349 19.2639 22.3926C19.6211 22.2118 19.86 21.8475 19.8563 21.4856C19.8528 21.1572 19.675 21.0207 19.2427 21.0175C18.6924 21.0191 18.1794 20.9106 18.1709 20.1005C18.164 19.4335 18.5109 18.7395 19.0599 18.3005L19.053 17.6483C19.0522 17.5682 19.1012 17.4801 19.1641 17.4483L19.5345 17.2118Z" fill="#FEFEFE"/>
<defs>
<clipPath id="clip0">
<path d="M0 5C0 2.23858 2.23858 0 5 0H85C87.7614 0 90 2.23858 90 5V27C90 29.7614 87.7614 32 85 32H5C2.23858 32 0 29.7614 0 27V5Z" fill="white"/>
</clipPath>
</defs>
</svg>
