<svg width="107" height="32" viewBox="0 0 107 32" fill="none" xmlns="http://www.w3.org/2000/svg">
<g clip-path="url(#clip0)">
<path d="M102 0H31V32H102C104.761 32 107 29.7614 107 27V5C107 2.23858 104.761 0 102 0Z" fill="white"/>
<path d="M31 0H5C2.23858 0 0 2.23858 0 5V27C0 29.7614 2.23858 32 5 32H31V0Z" fill="#29B2E7"/>
<path d="M42.0455 11.5H46.8155C47.9555 11.5 48.9605 11.72 49.8305 12.16C50.7105 12.59 51.3905 13.2 51.8705 13.99C52.3605 14.78 52.6055 15.7 52.6055 16.75C52.6055 17.8 52.3605 18.72 51.8705 19.51C51.3905 20.3 50.7105 20.915 49.8305 21.355C48.9605 21.785 47.9555 22 46.8155 22H42.0455V11.5ZM46.6955 20.005C47.7455 20.005 48.5805 19.715 49.2005 19.135C49.8305 18.545 50.1455 17.75 50.1455 16.75C50.1455 15.75 49.8305 14.96 49.2005 14.38C48.5805 13.79 47.7455 13.495 46.6955 13.495H44.4755V20.005H46.6955ZM58.2931 22.12C57.4431 22.12 56.6781 21.945 55.9981 21.595C55.3281 21.235 54.8031 20.74 54.4231 20.11C54.0431 19.48 53.8531 18.765 53.8531 17.965C53.8531 17.165 54.0431 16.45 54.4231 15.82C54.8031 15.19 55.3281 14.7 55.9981 14.35C56.6781 13.99 57.4431 13.81 58.2931 13.81C59.1431 13.81 59.9031 13.99 60.5731 14.35C61.2431 14.7 61.7681 15.19 62.1481 15.82C62.5281 16.45 62.7181 17.165 62.7181 17.965C62.7181 18.765 62.5281 19.48 62.1481 20.11C61.7681 20.74 61.2431 21.235 60.5731 21.595C59.9031 21.945 59.1431 22.12 58.2931 22.12ZM58.2931 20.2C58.8931 20.2 59.3831 20 59.7631 19.6C60.1531 19.19 60.3481 18.645 60.3481 17.965C60.3481 17.285 60.1531 16.745 59.7631 16.345C59.3831 15.935 58.8931 15.73 58.2931 15.73C57.6931 15.73 57.1981 15.935 56.8081 16.345C56.4181 16.745 56.2231 17.285 56.2231 17.965C56.2231 18.645 56.4181 19.19 56.8081 19.6C57.1981 20 57.6931 20.2 58.2931 20.2ZM68.3622 22.12C67.5022 22.12 66.7272 21.945 66.0372 21.595C65.3572 21.235 64.8222 20.74 64.4322 20.11C64.0522 19.48 63.8622 18.765 63.8622 17.965C63.8622 17.165 64.0522 16.45 64.4322 15.82C64.8222 15.19 65.3572 14.7 66.0372 14.35C66.7272 13.99 67.5022 13.81 68.3622 13.81C69.2122 13.81 69.9522 13.99 70.5822 14.35C71.2222 14.7 71.6872 15.205 71.9772 15.865L70.1622 16.84C69.7422 16.1 69.1372 15.73 68.3472 15.73C67.7372 15.73 67.2322 15.93 66.8322 16.33C66.4322 16.73 66.2322 17.275 66.2322 17.965C66.2322 18.655 66.4322 19.2 66.8322 19.6C67.2322 20 67.7372 20.2 68.3472 20.2C69.1472 20.2 69.7522 19.83 70.1622 19.09L71.9772 20.08C71.6872 20.72 71.2222 21.22 70.5822 21.58C69.9522 21.94 69.2122 22.12 68.3622 22.12ZM76.9109 18.835L75.7859 19.945V22H73.4459V10.87H75.7859V17.17L79.2059 13.93H81.9959L78.6359 17.35L82.2959 22H79.4609L76.9109 18.835ZM91.0817 17.995C91.0817 18.025 91.0667 18.235 91.0367 18.625H84.9317C85.0417 19.125 85.3017 19.52 85.7117 19.81C86.1217 20.1 86.6317 20.245 87.2417 20.245C87.6617 20.245 88.0317 20.185 88.3517 20.065C88.6817 19.935 88.9867 19.735 89.2667 19.465L90.5117 20.815C89.7517 21.685 88.6417 22.12 87.1817 22.12C86.2717 22.12 85.4667 21.945 84.7667 21.595C84.0667 21.235 83.5267 20.74 83.1467 20.11C82.7667 19.48 82.5767 18.765 82.5767 17.965C82.5767 17.175 82.7617 16.465 83.1317 15.835C83.5117 15.195 84.0267 14.7 84.6767 14.35C85.3367 13.99 86.0717 13.81 86.8817 13.81C87.6717 13.81 88.3867 13.98 89.0267 14.32C89.6667 14.66 90.1667 15.15 90.5267 15.79C90.8967 16.42 91.0817 17.155 91.0817 17.995ZM86.8967 15.58C86.3667 15.58 85.9217 15.73 85.5617 16.03C85.2017 16.33 84.9817 16.74 84.9017 17.26H88.8767C88.7967 16.75 88.5767 16.345 88.2167 16.045C87.8567 15.735 87.4167 15.58 86.8967 15.58ZM95.0545 14.995C95.3345 14.605 95.7095 14.31 96.1795 14.11C96.6595 13.91 97.2095 13.81 97.8295 13.81V15.97C97.5695 15.95 97.3945 15.94 97.3045 15.94C96.6345 15.94 96.1095 16.13 95.7295 16.51C95.3495 16.88 95.1595 17.44 95.1595 18.19V22H92.8195V13.93H95.0545V14.995Z" fill="black"/>
</g>
<path d="M5 1H102V-1H5V1ZM106 5V27H108V5H106ZM102 31H5V33H102V31ZM1 27V5H-1V27H1ZM5 31C2.79086 31 1 29.2091 1 27H-1C-1 30.3137 1.68629 33 5 33V31ZM106 27C106 29.2091 104.209 31 102 31V33C105.314 33 108 30.3137 108 27H106ZM102 1C104.209 1 106 2.79086 106 5H108C108 1.68629 105.314 -1 102 -1V1ZM5 -1C1.68629 -1 -1 1.68629 -1 5H1C1 2.79086 2.79086 1 5 1V-1Z" fill="black"/>
<path d="M17.122 15.6607H14.6435V13.4334H17.122V15.6607ZM17.122 8H14.6435V10.2761H17.122V8ZM20.0543 13.4296H17.5758V15.657H20.0543V13.4296ZM14.1935 10.7261H11.7149V12.9797H14.1935V10.7261ZM17.122 10.7261H14.6435V12.9797H17.122V10.7261ZM27.5013 14.4758C26.9614 14.1121 25.7164 13.9808 24.7603 14.1608C24.6365 13.2609 24.1341 12.4772 23.2191 11.7722L22.6942 11.4235L22.3454 11.9485C21.6555 12.9909 21.468 14.7083 22.2067 15.8407C21.8805 16.017 21.2393 16.2569 20.3918 16.2419H4.09163C3.7654 18.1468 4.30912 20.6216 5.74152 22.3203C7.13267 23.9664 9.21756 24.8026 11.9436 24.8026C17.8457 24.8026 22.2142 22.084 24.2578 17.1456C25.0602 17.1606 26.7926 17.1494 27.6813 15.4507C27.7376 15.357 27.9288 14.9558 28 14.8095L27.5013 14.4758ZM8.33634 13.4296H5.86151V15.657H8.34009V13.4296H8.33634ZM11.2649 13.4296H8.78631V15.657H11.2649V13.4296ZM14.1935 13.4296H11.7149V15.657H14.1935V13.4296ZM11.2649 10.7261H8.78631V12.9797H11.2649V10.7261Z" fill="white"/>
<defs>
<clipPath id="clip0">
<path d="M0 5C0 2.23858 2.23858 0 5 0H102C104.761 0 107 2.23858 107 5V27C107 29.7614 104.761 32 102 32H5C2.23858 32 0 29.7614 0 27V5Z" fill="white"/>
</clipPath>
</defs>
</svg>
