<svg width="192" height="32" viewBox="0 0 192 32" fill="none" xmlns="http://www.w3.org/2000/svg">
<path d="M187 0H31V32H187C189.761 32 192 29.7614 192 27V5C192 2.23858 189.761 0 187 0Z" fill="white"/>
<path d="M31 0H5C2.23858 0 0 2.23858 0 5V27C0 29.7614 2.23858 32 5 32H31V0Z" fill="#0288D1"/>
<path d="M5 1H187V-1H5V1ZM191 5V27H193V5H191ZM187 31H5V33H187V31ZM1 27V5H-1V27H1ZM5 31C2.79086 31 1 29.2091 1 27H-1C-1 30.3137 1.6863 33 5 33V31ZM191 27C191 29.2091 189.209 31 187 31V33C190.314 33 193 30.3137 193 27H191ZM187 1C189.209 1 191 2.79086 191 5H193C193 1.68629 190.314 -1 187 -1V1ZM5 -1C1.68629 -1 -1 1.68629 -1 5H1C1 2.79086 2.79086 1 5 1V-1Z" fill="black"/>
<path d="M47.4746 11.5L42.9296 22H40.5296L35.9996 11.5H38.6246L41.8196 19L45.0596 11.5H47.4746ZM48.5127 13.93H50.8527V22H48.5127V13.93ZM49.6827 12.805C49.2527 12.805 48.9027 12.68 48.6327 12.43C48.3627 12.18 48.2277 11.87 48.2277 11.5C48.2277 11.13 48.3627 10.82 48.6327 10.57C48.9027 10.32 49.2527 10.195 49.6827 10.195C50.1127 10.195 50.4627 10.315 50.7327 10.555C51.0027 10.795 51.1377 11.095 51.1377 11.455C51.1377 11.845 51.0027 12.17 50.7327 12.43C50.4627 12.68 50.1127 12.805 49.6827 12.805ZM55.9194 22.12C55.2494 22.12 54.5944 22.04 53.9544 21.88C53.3144 21.71 52.8044 21.5 52.4244 21.25L53.2044 19.57C53.5644 19.8 53.9994 19.99 54.5094 20.14C55.0194 20.28 55.5194 20.35 56.0094 20.35C56.9994 20.35 57.4944 20.105 57.4944 19.615C57.4944 19.385 57.3594 19.22 57.0894 19.12C56.8194 19.02 56.4044 18.935 55.8444 18.865C55.1844 18.765 54.6394 18.65 54.2094 18.52C53.7794 18.39 53.4044 18.16 53.0844 17.83C52.7744 17.5 52.6194 17.03 52.6194 16.42C52.6194 15.91 52.7644 15.46 53.0544 15.07C53.3544 14.67 53.7844 14.36 54.3444 14.14C54.9144 13.92 55.5844 13.81 56.3544 13.81C56.9244 13.81 57.4894 13.875 58.0494 14.005C58.6194 14.125 59.0894 14.295 59.4594 14.515L58.6794 16.18C57.9694 15.78 57.1944 15.58 56.3544 15.58C55.8544 15.58 55.4794 15.65 55.2294 15.79C54.9794 15.93 54.8544 16.11 54.8544 16.33C54.8544 16.58 54.9894 16.755 55.2594 16.855C55.5294 16.955 55.9594 17.05 56.5494 17.14C57.2094 17.25 57.7494 17.37 58.1694 17.5C58.5894 17.62 58.9544 17.845 59.2644 18.175C59.5744 18.505 59.7294 18.965 59.7294 19.555C59.7294 20.055 59.5794 20.5 59.2794 20.89C58.9794 21.28 58.5394 21.585 57.9594 21.805C57.3894 22.015 56.7094 22.12 55.9194 22.12ZM69.4832 13.93V22H67.2632V21.04C66.9532 21.39 66.5832 21.66 66.1532 21.85C65.7232 22.03 65.2582 22.12 64.7582 22.12C63.6982 22.12 62.8582 21.815 62.2382 21.205C61.6182 20.595 61.3082 19.69 61.3082 18.49V13.93H63.6482V18.145C63.6482 19.445 64.1932 20.095 65.2832 20.095C65.8432 20.095 66.2932 19.915 66.6332 19.555C66.9732 19.185 67.1432 18.64 67.1432 17.92V13.93H69.4832ZM75.086 13.81C76.336 13.81 77.296 14.11 77.966 14.71C78.636 15.3 78.971 16.195 78.971 17.395V22H76.781V20.995C76.341 21.745 75.521 22.12 74.321 22.12C73.701 22.12 73.161 22.015 72.701 21.805C72.251 21.595 71.906 21.305 71.666 20.935C71.426 20.565 71.306 20.145 71.306 19.675C71.306 18.925 71.586 18.335 72.146 17.905C72.716 17.475 73.591 17.26 74.771 17.26H76.631C76.631 16.75 76.476 16.36 76.166 16.09C75.856 15.81 75.391 15.67 74.771 15.67C74.341 15.67 73.916 15.74 73.496 15.88C73.086 16.01 72.736 16.19 72.446 16.42L71.606 14.785C72.046 14.475 72.571 14.235 73.181 14.065C73.801 13.895 74.436 13.81 75.086 13.81ZM74.906 20.545C75.306 20.545 75.661 20.455 75.971 20.275C76.281 20.085 76.501 19.81 76.631 19.45V18.625H75.026C74.066 18.625 73.586 18.94 73.586 19.57C73.586 19.87 73.701 20.11 73.931 20.29C74.171 20.46 74.496 20.545 74.906 20.545ZM81.2689 10.87H83.6089V22H81.2689V10.87ZM94.0036 22.18C93.1736 22.18 92.3686 22.07 91.5886 21.85C90.8186 21.62 90.1986 21.325 89.7286 20.965L90.5536 19.135C91.0036 19.465 91.5386 19.73 92.1586 19.93C92.7786 20.13 93.3986 20.23 94.0186 20.23C94.7086 20.23 95.2186 20.13 95.5486 19.93C95.8786 19.72 96.0436 19.445 96.0436 19.105C96.0436 18.855 95.9436 18.65 95.7436 18.49C95.5536 18.32 95.3036 18.185 94.9936 18.085C94.6936 17.985 94.2836 17.875 93.7636 17.755C92.9636 17.565 92.3086 17.375 91.7986 17.185C91.2886 16.995 90.8486 16.69 90.4786 16.27C90.1186 15.85 89.9386 15.29 89.9386 14.59C89.9386 13.98 90.1036 13.43 90.4336 12.94C90.7636 12.44 91.2586 12.045 91.9186 11.755C92.5886 11.465 93.4036 11.32 94.3636 11.32C95.0336 11.32 95.6886 11.4 96.3286 11.56C96.9686 11.72 97.5286 11.95 98.0086 12.25L97.2586 14.095C96.2886 13.545 95.3186 13.27 94.3486 13.27C93.6686 13.27 93.1636 13.38 92.8336 13.6C92.5136 13.82 92.3536 14.11 92.3536 14.47C92.3536 14.83 92.5386 15.1 92.9086 15.28C93.2886 15.45 93.8636 15.62 94.6336 15.79C95.4336 15.98 96.0886 16.17 96.5986 16.36C97.1086 16.55 97.5436 16.85 97.9036 17.26C98.2736 17.67 98.4586 18.225 98.4586 18.925C98.4586 19.525 98.2886 20.075 97.9486 20.575C97.6186 21.065 97.1186 21.455 96.4486 21.745C95.7786 22.035 94.9636 22.18 94.0036 22.18ZM105.339 21.61C105.109 21.78 104.824 21.91 104.484 22C104.154 22.08 103.804 22.12 103.434 22.12C102.474 22.12 101.729 21.875 101.199 21.385C100.679 20.895 100.419 20.175 100.419 19.225V15.91H99.174V14.11H100.419V12.145H102.759V14.11H104.769V15.91H102.759V19.195C102.759 19.535 102.844 19.8 103.014 19.99C103.194 20.17 103.444 20.26 103.764 20.26C104.134 20.26 104.449 20.16 104.709 19.96L105.339 21.61ZM114.963 13.93V22H112.743V21.04C112.433 21.39 112.063 21.66 111.633 21.85C111.203 22.03 110.738 22.12 110.238 22.12C109.178 22.12 108.338 21.815 107.718 21.205C107.098 20.595 106.788 19.69 106.788 18.49V13.93H109.128V18.145C109.128 19.445 109.673 20.095 110.763 20.095C111.323 20.095 111.773 19.915 112.113 19.555C112.453 19.185 112.623 18.64 112.623 17.92V13.93H114.963ZM125.53 10.87V22H123.295V21.07C122.715 21.77 121.875 22.12 120.775 22.12C120.015 22.12 119.325 21.95 118.705 21.61C118.095 21.27 117.615 20.785 117.265 20.155C116.915 19.525 116.74 18.795 116.74 17.965C116.74 17.135 116.915 16.405 117.265 15.775C117.615 15.145 118.095 14.66 118.705 14.32C119.325 13.98 120.015 13.81 120.775 13.81C121.805 13.81 122.61 14.135 123.19 14.785V10.87H125.53ZM121.18 20.2C121.77 20.2 122.26 20 122.65 19.6C123.04 19.19 123.235 18.645 123.235 17.965C123.235 17.285 123.04 16.745 122.65 16.345C122.26 15.935 121.77 15.73 121.18 15.73C120.58 15.73 120.085 15.935 119.695 16.345C119.305 16.745 119.11 17.285 119.11 17.965C119.11 18.645 119.305 19.19 119.695 19.6C120.085 20 120.58 20.2 121.18 20.2ZM127.876 13.93H130.216V22H127.876V13.93ZM129.046 12.805C128.616 12.805 128.266 12.68 127.996 12.43C127.726 12.18 127.591 11.87 127.591 11.5C127.591 11.13 127.726 10.82 127.996 10.57C128.266 10.32 128.616 10.195 129.046 10.195C129.476 10.195 129.826 10.315 130.096 10.555C130.366 10.795 130.501 11.095 130.501 11.455C130.501 11.845 130.366 12.17 130.096 12.43C129.826 12.68 129.476 12.805 129.046 12.805ZM136.408 22.12C135.558 22.12 134.793 21.945 134.113 21.595C133.443 21.235 132.918 20.74 132.538 20.11C132.158 19.48 131.968 18.765 131.968 17.965C131.968 17.165 132.158 16.45 132.538 15.82C132.918 15.19 133.443 14.7 134.113 14.35C134.793 13.99 135.558 13.81 136.408 13.81C137.258 13.81 138.018 13.99 138.688 14.35C139.358 14.7 139.883 15.19 140.263 15.82C140.643 16.45 140.833 17.165 140.833 17.965C140.833 18.765 140.643 19.48 140.263 20.11C139.883 20.74 139.358 21.235 138.688 21.595C138.018 21.945 137.258 22.12 136.408 22.12ZM136.408 20.2C137.008 20.2 137.498 20 137.878 19.6C138.268 19.19 138.463 18.645 138.463 17.965C138.463 17.285 138.268 16.745 137.878 16.345C137.498 15.935 137.008 15.73 136.408 15.73C135.808 15.73 135.313 15.935 134.923 16.345C134.533 16.745 134.338 17.285 134.338 17.965C134.338 18.645 134.533 19.19 134.923 19.6C135.313 20 135.808 20.2 136.408 20.2ZM152.195 22.18C151.125 22.18 150.155 21.95 149.285 21.49C148.425 21.02 147.745 20.375 147.245 19.555C146.755 18.725 146.51 17.79 146.51 16.75C146.51 15.71 146.755 14.78 147.245 13.96C147.745 13.13 148.425 12.485 149.285 12.025C150.155 11.555 151.13 11.32 152.21 11.32C153.12 11.32 153.94 11.48 154.67 11.8C155.41 12.12 156.03 12.58 156.53 13.18L154.97 14.62C154.26 13.8 153.38 13.39 152.33 13.39C151.68 13.39 151.1 13.535 150.59 13.825C150.08 14.105 149.68 14.5 149.39 15.01C149.11 15.52 148.97 16.1 148.97 16.75C148.97 17.4 149.11 17.98 149.39 18.49C149.68 19 150.08 19.4 150.59 19.69C151.1 19.97 151.68 20.11 152.33 20.11C153.38 20.11 154.26 19.695 154.97 18.865L156.53 20.305C156.03 20.915 155.41 21.38 154.67 21.7C153.93 22.02 153.105 22.18 152.195 22.18ZM161.748 22.12C160.898 22.12 160.133 21.945 159.453 21.595C158.783 21.235 158.258 20.74 157.878 20.11C157.498 19.48 157.308 18.765 157.308 17.965C157.308 17.165 157.498 16.45 157.878 15.82C158.258 15.19 158.783 14.7 159.453 14.35C160.133 13.99 160.898 13.81 161.748 13.81C162.598 13.81 163.358 13.99 164.028 14.35C164.698 14.7 165.223 15.19 165.603 15.82C165.983 16.45 166.173 17.165 166.173 17.965C166.173 18.765 165.983 19.48 165.603 20.11C165.223 20.74 164.698 21.235 164.028 21.595C163.358 21.945 162.598 22.12 161.748 22.12ZM161.748 20.2C162.348 20.2 162.838 20 163.218 19.6C163.608 19.19 163.803 18.645 163.803 17.965C163.803 17.285 163.608 16.745 163.218 16.345C162.838 15.935 162.348 15.73 161.748 15.73C161.148 15.73 160.653 15.935 160.263 16.345C159.873 16.745 159.678 17.285 159.678 17.965C159.678 18.645 159.873 19.19 160.263 19.6C160.653 20 161.148 20.2 161.748 20.2ZM176.137 10.87V22H173.902V21.07C173.322 21.77 172.482 22.12 171.382 22.12C170.622 22.12 169.932 21.95 169.312 21.61C168.702 21.27 168.222 20.785 167.872 20.155C167.522 19.525 167.347 18.795 167.347 17.965C167.347 17.135 167.522 16.405 167.872 15.775C168.222 15.145 168.702 14.66 169.312 14.32C169.932 13.98 170.622 13.81 171.382 13.81C172.412 13.81 173.217 14.135 173.797 14.785V10.87H176.137ZM171.787 20.2C172.377 20.2 172.867 20 173.257 19.6C173.647 19.19 173.842 18.645 173.842 17.965C173.842 17.285 173.647 16.745 173.257 16.345C172.867 15.935 172.377 15.73 171.787 15.73C171.187 15.73 170.692 15.935 170.302 16.345C169.912 16.745 169.717 17.285 169.717 17.965C169.717 18.645 169.912 19.19 170.302 19.6C170.692 20 171.187 20.2 171.787 20.2ZM186.388 17.995C186.388 18.025 186.373 18.235 186.343 18.625H180.238C180.348 19.125 180.608 19.52 181.018 19.81C181.428 20.1 181.938 20.245 182.548 20.245C182.968 20.245 183.338 20.185 183.658 20.065C183.988 19.935 184.293 19.735 184.573 19.465L185.818 20.815C185.058 21.685 183.948 22.12 182.488 22.12C181.578 22.12 180.773 21.945 180.073 21.595C179.373 21.235 178.833 20.74 178.453 20.11C178.073 19.48 177.883 18.765 177.883 17.965C177.883 17.175 178.068 16.465 178.438 15.835C178.818 15.195 179.333 14.7 179.983 14.35C180.643 13.99 181.378 13.81 182.188 13.81C182.978 13.81 183.693 13.98 184.333 14.32C184.973 14.66 185.473 15.15 185.833 15.79C186.203 16.42 186.388 17.155 186.388 17.995ZM182.203 15.58C181.673 15.58 181.228 15.73 180.868 16.03C180.508 16.33 180.288 16.74 180.208 17.26H184.183C184.103 16.75 183.883 16.345 183.523 16.045C183.163 15.735 182.723 15.58 182.203 15.58Z" fill="black"/>
<path d="M27.0486 8.89272V23.108C27.0486 23.8083 26.613 24.4314 25.9568 24.663L21.0934 26.9458L21.5345 20.963V11.0377L21.0934 5.05493L25.9568 7.33776C26.613 7.56935 27.0486 8.19244 27.0486 8.89272Z" fill="white"/>
<path d="M7.74918 21.457L21.5343 11.0377V5.71824C21.5343 5.05765 20.7172 4.74887 20.2799 5.24403L5.35497 18.8891C4.85871 19.3468 4.88683 20.1392 5.41397 20.561C5.41397 20.561 6.14404 21.2403 6.40816 21.4289C6.814 21.7184 7.34721 21.7515 7.74918 21.457Z" fill="white"/>
<path d="M7.74918 10.543L21.5343 20.9623V26.2818C21.5343 26.9424 20.7172 27.2511 20.2799 26.756L5.35497 13.1109C4.85871 12.6532 4.88683 11.8608 5.41397 11.439C5.41397 11.439 6.14404 10.7597 6.40816 10.5711C6.814 10.2816 7.34721 10.2485 7.74918 10.543Z" fill="white"/>
</svg>
