<svg width="116" height="32" viewBox="0 0 116 32" fill="none" xmlns="http://www.w3.org/2000/svg">
<g clip-path="url(#clip0)">
<path d="M111 0H31V32H111C113.761 32 116 29.7614 116 27V5C116 2.23858 113.761 0 111 0Z" fill="white"/>
<path d="M31 0H5C2.23858 0 0 2.23858 0 5V27C0 29.7614 2.23858 32 5 32H31V0Z" fill="#29B2E7"/>
<path d="M52.3246 11.5L47.7796 22H45.3796L40.8496 11.5H43.4746L46.6696 19L49.9096 11.5H52.3246ZM62.9362 22L62.9213 15.7L59.8312 20.89H58.7362L55.6612 15.835V22H53.3812V11.5H55.3912L59.3213 18.025L63.1913 11.5H65.1863L65.2163 22H62.9362ZM80.6824 13.93L77.7574 22H75.5074L73.6924 16.99L71.8174 22H69.5674L66.6574 13.93H68.8624L70.7674 19.39L72.7474 13.93H74.7274L76.6474 19.39L78.6124 13.93H80.6824ZM84.9416 13.81C86.1916 13.81 87.1516 14.11 87.8216 14.71C88.4916 15.3 88.8266 16.195 88.8266 17.395V22H86.6366V20.995C86.1966 21.745 85.3766 22.12 84.1766 22.12C83.5566 22.12 83.0166 22.015 82.5566 21.805C82.1066 21.595 81.7616 21.305 81.5216 20.935C81.2816 20.565 81.1616 20.145 81.1616 19.675C81.1616 18.925 81.4416 18.335 82.0016 17.905C82.5716 17.475 83.4466 17.26 84.6266 17.26H86.4866C86.4866 16.75 86.3316 16.36 86.0216 16.09C85.7116 15.81 85.2466 15.67 84.6266 15.67C84.1966 15.67 83.7716 15.74 83.3516 15.88C82.9416 16.01 82.5916 16.19 82.3016 16.42L81.4616 14.785C81.9016 14.475 82.4266 14.235 83.0366 14.065C83.6566 13.895 84.2916 13.81 84.9416 13.81ZM84.7616 20.545C85.1616 20.545 85.5166 20.455 85.8266 20.275C86.1366 20.085 86.3566 19.81 86.4866 19.45V18.625H84.8816C83.9216 18.625 83.4416 18.94 83.4416 19.57C83.4416 19.87 83.5566 20.11 83.7866 20.29C84.0266 20.46 84.3516 20.545 84.7616 20.545ZM93.3594 14.995C93.6394 14.605 94.0144 14.31 94.4844 14.11C94.9644 13.91 95.5144 13.81 96.1344 13.81V15.97C95.8744 15.95 95.6994 15.94 95.6094 15.94C94.9394 15.94 94.4144 16.13 94.0344 16.51C93.6544 16.88 93.4644 17.44 93.4644 18.19V22H91.1244V13.93H93.3594V14.995ZM105.538 17.995C105.538 18.025 105.523 18.235 105.493 18.625H99.3875C99.4975 19.125 99.7575 19.52 100.168 19.81C100.578 20.1 101.088 20.245 101.698 20.245C102.118 20.245 102.488 20.185 102.808 20.065C103.138 19.935 103.443 19.735 103.723 19.465L104.968 20.815C104.208 21.685 103.098 22.12 101.638 22.12C100.728 22.12 99.9225 21.945 99.2225 21.595C98.5225 21.235 97.9825 20.74 97.6025 20.11C97.2225 19.48 97.0325 18.765 97.0325 17.965C97.0325 17.175 97.2175 16.465 97.5875 15.835C97.9675 15.195 98.4825 14.7 99.1325 14.35C99.7925 13.99 100.528 13.81 101.338 13.81C102.128 13.81 102.843 13.98 103.483 14.32C104.123 14.66 104.623 15.15 104.983 15.79C105.353 16.42 105.538 17.155 105.538 17.995ZM101.353 15.58C100.823 15.58 100.378 15.73 100.018 16.03C99.6575 16.33 99.4375 16.74 99.3575 17.26H103.333C103.253 16.75 103.033 16.345 102.673 16.045C102.313 15.735 101.873 15.58 101.353 15.58Z" fill="black"/>
</g>
<path d="M5 1H111V-1H5V1ZM115 5V27H117V5H115ZM111 31H5V33H111V31ZM1 27V5H-1V27H1ZM5 31C2.79086 31 1 29.2091 1 27H-1C-1 30.3137 1.68629 33 5 33V31ZM115 27C115 29.2091 113.209 31 111 31V33C114.314 33 117 30.3137 117 27H115ZM111 1C113.209 1 115 2.79086 115 5H117C117 1.68629 114.314 -1 111 -1V1ZM5 -1C1.68629 -1 -1 1.68629 -1 5H1C1 2.79086 2.79086 1 5 1V-1Z" fill="black"/>
<path fill-rule="evenodd" clip-rule="evenodd" d="M7.70038 18.8563C7.53153 19.3003 7.35336 19.5735 6.76911 19.5735C6.18389 19.5735 6.00637 19.3 5.8388 18.8563L4.10722 14.4009C4.0244 14.1852 4 14.0549 4 13.8982C4 13.3454 4.42952 13.0604 4.89564 13.0604C5.373 13.0604 5.57749 13.4058 5.65902 13.669L6.75691 17.0705H6.78099L7.87823 13.669C7.96266 13.4058 8.1649 13.0604 8.64193 13.0604H10.3315C10.7684 13.0604 11.0557 13.2989 11.1151 13.7178C11.5366 13.262 12.0887 13 12.7279 13C13.4479 13 14.0527 13.2989 14.5057 13.8722C14.9811 13.3213 15.74 13 16.329 13C17.73 13 18.6818 13.8135 18.6818 15.3168V18.6181C18.6818 19.1905 18.3239 19.5738 17.8253 19.5738C17.3242 19.5738 16.9688 19.1908 16.9688 18.6181V15.6179C16.9688 14.9245 16.5826 14.4337 15.9563 14.4337C15.3204 14.4337 14.9349 14.9248 14.9349 15.6179V18.6181C14.9349 19.1905 14.5753 19.5738 14.0784 19.5738C13.5773 19.5738 13.2229 19.1908 13.2229 18.6181V15.6179C13.2229 14.9245 12.8354 14.4337 12.2094 14.4337C11.5012 14.4337 11.1866 14.9248 11.1866 15.6179V18.6181C11.1866 19.1905 10.83 19.5738 10.3315 19.5738C9.83066 19.5738 9.47465 19.1908 9.47465 18.6181V14.3277L7.70038 18.8563ZM19.2699 13.9335C19.223 13.7769 19.1851 13.6359 19.1851 13.5274C19.1851 13.3226 19.3299 13.06 19.6885 13.06C19.9148 13.06 20.1293 13.1422 20.274 13.5997L21.6233 17.9514H21.647L22.9725 13.755C23.1173 13.2992 23.2107 13.06 23.5956 13.06C23.9764 13.06 24.0727 13.2992 24.2152 13.755L25.542 17.9514H25.5664L26.9143 13.5997C27.0591 13.1422 27.2742 13.06 27.4986 13.06C27.8584 13.06 28 13.3223 28 13.5271C28 13.6343 27.9644 13.7765 27.9165 13.9329L26.174 19.0226C26.0318 19.429 25.8643 19.5732 25.5657 19.5732C25.2774 19.5732 25.0999 19.429 24.9705 19.0226L23.6081 14.7223H23.5844L22.2226 19.0226C22.0916 19.429 21.9141 19.5732 21.6275 19.5732C21.3276 19.5732 21.1617 19.429 21.0169 19.0226L19.2699 13.9335Z" fill="white"/>
<defs>
<clipPath id="clip0">
<path d="M0 5C0 2.23858 2.23858 0 5 0H111C113.761 0 116 2.23858 116 5V27C116 29.7614 113.761 32 111 32H5C2.23858 32 0 29.7614 0 27V5Z" fill="white"/>
</clipPath>
</defs>
</svg>
