<svg width="90" height="32" viewBox="0 0 90 32" fill="none" xmlns="http://www.w3.org/2000/svg">
<g clip-path="url(#clip0)">
<path d="M85 0H31V32H85C87.7614 32 90 29.7614 90 27V5C90 2.23858 87.7614 0 85 0Z" fill="white"/>
<path d="M31 0H5C2.23858 0 0 2.23858 0 5V27C0 29.7614 2.23858 32 5 32H31V0Z" fill="#368FB9"/>
<path d="M48.9222 18.28V22H46.4922V18.25L42.4272 11.5H45.0072L47.8122 16.165L50.6172 11.5H53.0022L48.9222 18.28ZM56.3075 13.81C57.5575 13.81 58.5175 14.11 59.1875 14.71C59.8575 15.3 60.1925 16.195 60.1925 17.395V22H58.0025V20.995C57.5625 21.745 56.7425 22.12 55.5425 22.12C54.9225 22.12 54.3825 22.015 53.9225 21.805C53.4725 21.595 53.1275 21.305 52.8875 20.935C52.6475 20.565 52.5275 20.145 52.5275 19.675C52.5275 18.925 52.8075 18.335 53.3675 17.905C53.9375 17.475 54.8125 17.26 55.9925 17.26H57.8525C57.8525 16.75 57.6975 16.36 57.3875 16.09C57.0775 15.81 56.6125 15.67 55.9925 15.67C55.5625 15.67 55.1375 15.74 54.7175 15.88C54.3075 16.01 53.9575 16.19 53.6675 16.42L52.8275 14.785C53.2675 14.475 53.7925 14.235 54.4025 14.065C55.0225 13.895 55.6575 13.81 56.3075 13.81ZM56.1275 20.545C56.5275 20.545 56.8825 20.455 57.1925 20.275C57.5025 20.085 57.7225 19.81 57.8525 19.45V18.625H56.2475C55.2875 18.625 54.8075 18.94 54.8075 19.57C54.8075 19.87 54.9225 20.11 55.1525 20.29C55.3925 20.46 55.7175 20.545 56.1275 20.545ZM64.7253 14.995C65.0053 14.605 65.3803 14.31 65.8503 14.11C66.3303 13.91 66.8803 13.81 67.5003 13.81V15.97C67.2403 15.95 67.0653 15.94 66.9753 15.94C66.3053 15.94 65.7803 16.13 65.4003 16.51C65.0203 16.88 64.8303 17.44 64.8303 18.19V22H62.4903V13.93H64.7253V14.995ZM73.9767 13.81C74.9767 13.81 75.7817 14.11 76.3917 14.71C77.0117 15.31 77.3217 16.2 77.3217 17.38V22H74.9817V17.74C74.9817 17.1 74.8417 16.625 74.5617 16.315C74.2817 15.995 73.8767 15.835 73.3467 15.835C72.7567 15.835 72.2867 16.02 71.9367 16.39C71.5867 16.75 71.4117 17.29 71.4117 18.01V22H69.0717V13.93H71.3067V14.875C71.6167 14.535 72.0017 14.275 72.4617 14.095C72.9217 13.905 73.4267 13.81 73.9767 13.81Z" fill="black"/>
</g>
<path d="M5 1H85V-1H5V1ZM89 5V27H91V5H89ZM85 31H5V33H85V31ZM1 27V5H-1V27H1ZM5 31C2.79086 31 1 29.2091 1 27H-1C-1 30.3137 1.68629 33 5 33V31ZM89 27C89 29.2091 87.2091 31 85 31V33C88.3137 33 91 30.3137 91 27H89ZM85 1C87.2091 1 89 2.79086 89 5H91C91 1.68629 88.3137 -1 85 -1V1ZM5 -1C1.68629 -1 -1 1.68629 -1 5H1C1 2.79086 2.79086 1 5 1V-1Z" fill="black"/>
<path d="M16 1C7.71815 1 1 7.71815 1 16C1 24.2819 7.71815 31 16 31C24.2819 31 31 24.2819 31 16C31 7.71815 24.2819 1 16 1Z" fill="#368FB9"/>
<path d="M24.8263 21.3977C23.8996 21.6178 23.4305 21.8205 22.2838 22.5676C20.4942 23.7259 18.5367 24.2645 18.5367 24.2645C18.5367 24.2645 18.3745 24.5077 17.9054 24.6178C17.0946 24.8147 14.0425 24.9826 13.7645 24.9884C13.0174 24.9942 12.5599 24.7973 12.4324 24.4903C12.0444 23.5637 12.9884 23.1583 12.9884 23.1583C12.9884 23.1583 12.7799 23.0309 12.6583 22.9151C12.5483 22.805 12.4324 22.5849 12.3977 22.666C12.2529 23.0193 12.1776 23.8822 11.7896 24.2703C11.2568 24.8089 10.2491 24.6293 9.65253 24.3166C8.99809 23.9691 9.69886 23.1525 9.69886 23.1525C9.69886 23.1525 9.34558 23.361 9.06179 22.9324C8.80697 22.5386 8.56951 21.8668 8.63322 21.0386C8.70272 20.0946 9.75677 19.1795 9.75677 19.1795C9.75677 19.1795 9.57144 17.7838 10.1796 16.3533C10.7297 15.0502 12.2124 14.0019 12.2124 14.0019C12.2124 14.0019 10.9672 12.6236 11.4305 11.3842C11.7317 10.5734 11.8533 10.5792 11.9518 10.5444C12.2992 10.4112 12.6352 10.2664 12.8842 9.99421C14.1294 8.65058 15.7162 8.90541 15.7162 8.90541C15.7162 8.90541 16.4691 6.61776 17.1641 7.06371C17.3784 7.2027 18.1487 8.91699 18.1487 8.91699C18.1487 8.91699 18.9711 8.43629 19.0637 8.61583C19.5618 9.58301 19.6197 11.4305 19.3996 12.5541C19.029 14.4073 18.1023 15.4035 17.7317 16.029C17.6448 16.1737 18.7278 16.6313 19.4112 18.5251C20.0425 20.2568 19.4807 21.7104 19.5792 21.8726C19.5965 21.9015 19.6023 21.9131 19.6023 21.9131C19.6023 21.9131 20.3263 21.971 21.7799 21.0734C22.556 20.5927 23.4769 20.0541 24.5251 20.0425C25.5386 20.0251 25.5907 21.2124 24.8263 21.3977ZM26.2046 20.5463C26.1004 19.7239 25.4054 19.1564 24.5135 19.168C23.1815 19.1853 22.0637 19.8745 21.3224 20.332C21.0328 20.5116 20.7838 20.6448 20.5695 20.7432C20.6158 20.0714 20.5753 19.1911 20.2278 18.2239C19.805 17.0656 19.2375 16.3533 18.8321 15.9421C19.3012 15.2587 19.944 14.2625 20.2452 12.722C20.5058 11.4073 20.4247 9.36293 19.8282 8.21622C19.7066 7.98456 19.5039 7.8166 19.2491 7.7471C19.1448 7.71815 18.9479 7.66023 18.5599 7.77027C17.9749 6.55985 17.7722 6.43243 17.6158 6.32819C17.2915 6.11969 16.9093 6.07336 16.5502 6.20656C16.0695 6.38031 15.6583 6.84363 15.2703 7.66602C15.2124 7.78765 15.1602 7.90348 15.1139 8.01931C14.3784 8.07143 13.2201 8.33784 12.2413 9.39768C12.1197 9.53089 11.8823 9.62934 11.6332 9.72201H11.639C11.1294 9.90154 10.8977 10.3185 10.6139 11.0714C10.2201 12.1255 10.6255 13.1622 11.0251 13.834C10.4807 14.3205 9.75677 15.0965 9.37453 16.0058C8.89963 17.1293 8.84751 18.2297 8.86488 18.8263C8.45948 19.2548 7.83399 20.0598 7.76449 20.9633C7.67183 22.2259 8.12936 23.083 8.33206 23.3958C8.38998 23.4884 8.45368 23.5637 8.52318 23.639C8.50002 23.7954 8.49422 23.9633 8.52897 24.1371C8.60426 24.5425 8.85909 24.8726 9.24712 25.0811C10.0116 25.4865 11.0772 25.6602 11.8996 25.249C12.195 25.5618 12.7336 25.8629 13.7124 25.8629H13.7703C14.0193 25.8629 17.1815 25.695 18.1023 25.4691C18.5135 25.3707 18.7973 25.1969 18.9826 25.0405C19.5734 24.8552 21.2066 24.2992 22.7471 23.3031C23.8359 22.5965 24.2124 22.4459 25.0232 22.249C25.8108 22.0579 26.3031 21.3398 26.2046 20.5463Z" fill="white"/>
<defs>
<clipPath id="clip0">
<path d="M0 5C0 2.23858 2.23858 0 5 0H85C87.7614 0 90 2.23858 90 5V27C90 29.7614 87.7614 32 85 32H5C2.23858 32 0 29.7614 0 27V5Z" fill="white"/>
</clipPath>
</defs>
</svg>
